<svg width="218" height="358" viewBox="0 0 218 358" fill="none" xmlns="http://www.w3.org/2000/svg">
<path d="M30.5784 246.518C38.3291 253.826 47.221 259.764 56.0106 265.719C60.5749 268.814 65.1016 271.964 69.6175 275.135C74.5317 278.582 78.6278 282.821 82.4978 287.394C86.3786 291.984 89.9364 296.827 93.1713 301.897C94.7537 304.378 96.2824 306.897 97.7841 309.426C98.1931 310.111 98.5968 310.807 98.9897 311.503C99.1674 314.642 99.2643 317.786 99.162 320.936C99.0597 324.102 98.8336 327.305 99.1997 330.46C99.3396 331.663 99.5603 332.871 100.099 333.966C100.163 338.421 100.481 342.87 100.868 347.309C101.137 350.399 101.439 353.49 101.708 356.58C101.875 358.462 104.83 358.484 104.663 356.58C103.904 347.918 103.07 339.338 103.167 330.714C103.382 329.937 103.597 329.16 103.829 328.395C104.356 326.631 105.416 325.126 106.315 323.541C107.203 321.987 108.14 320.488 109.502 319.301C110.616 318.331 111.978 317.662 113.366 317.182C117.113 315.887 121.026 315.634 124.933 315.197C128.814 314.766 132.571 314 136.075 312.215C149.3 305.478 152.077 288.851 151.641 275.4C151.496 270.902 150.947 266.409 150.398 261.943C149.8 257.057 149.058 252.187 147.922 247.397C147.545 245.806 144.978 246.125 145.048 247.786C145.08 248.449 144.892 249.053 144.714 249.69C144.504 250.428 144.343 251.173 144.17 251.922C143.772 253.67 143.32 255.401 142.846 257.127C141.942 260.444 140.941 263.718 139.73 266.932C138.546 270.066 137.205 273.129 135.768 276.155C134.713 278.366 133.615 280.604 131.818 282.314C129.697 284.331 126.866 285.501 124.207 286.623C121.365 287.826 118.431 288.888 115.885 290.668C113.598 292.265 111.633 294.249 109.841 296.38C108.829 297.588 107.892 298.834 107.058 300.144C108.086 294.702 109.179 289.271 110.196 283.851C111.822 275.211 113.528 266.582 115.105 257.931C115.568 257.85 115.826 257.44 115.891 256.981C116.569 251.868 117.543 246.783 118.824 241.778C119.099 241.12 119.373 240.467 119.615 239.814C120.568 237.258 120.837 234.491 121.881 231.967C122.861 229.594 124.793 227.927 126.527 226.115C128.443 224.109 130.014 221.736 131.672 219.514C133.395 217.205 134.719 214.66 136.258 212.233C137.771 209.844 139.687 207.951 141.716 206.004C143.777 204.024 145.462 201.737 147.427 199.661C149.451 197.525 151.383 195.384 153.089 192.973C154.704 190.686 156.162 188.297 157.691 185.951C159.344 183.422 161.125 180.984 162.928 178.557C166.465 173.805 169.931 169.043 172.913 163.919C175.868 158.844 178.618 153.526 180.739 148.041C182.849 142.589 183.888 136.796 184.668 131.02C185.088 127.913 185.303 124.785 185.443 121.652C185.572 118.799 185.551 115.913 185.809 113.071C185.82 112.92 185.842 112.774 185.858 112.629C185.858 112.612 185.863 112.58 185.868 112.553C185.874 112.51 185.879 112.467 185.885 112.424C185.944 112.014 186.003 111.604 186.068 111.194C186.218 110.196 186.364 109.198 186.482 108.195C186.697 106.345 186.875 104.382 186.455 102.548C186.277 101.783 185.944 101.065 185.406 100.483C184.614 99.6253 183.355 100.159 183 101.119C182.031 103.74 181.606 106.545 180.524 109.128C179.458 111.669 177.886 114.042 176.293 116.28C173.053 120.821 169.328 124.985 166.136 129.569C162.869 134.272 159.86 139.164 156.943 144.088C154.209 148.705 151.749 153.472 149.693 158.429C147.588 163.504 146.183 168.725 144.816 174.037C143.368 179.646 141.764 185.228 139.59 190.606C135.322 201.15 128.545 210.426 123.938 220.814C122.791 223.402 121.731 226.029 120.762 228.688C119.852 230.042 119.292 231.563 118.873 233.127C119.632 225.921 120.089 218.683 120.245 211.435C120.374 205.319 120.283 199.208 120.487 193.092C120.649 188.146 120.864 183.195 120.88 178.249C121.096 178.131 121.252 177.91 121.236 177.57C121.09 174.064 120.74 170.553 120.783 167.042C121.069 164.583 121.343 162.123 121.682 159.669C121.709 159.475 121.682 159.308 121.634 159.162C122 157.221 122.447 155.295 122.963 153.386C123.066 153.025 123.173 152.663 123.281 152.302C123.851 150.377 124.422 148.44 125.192 146.585C125.563 145.69 125.961 144.805 126.306 143.894C126.51 143.344 126.753 142.858 126.817 142.314C126.839 142.265 126.86 142.222 126.882 142.173C129.406 137.055 132.512 132.25 135.903 127.671C143.411 117.531 152.89 108.772 158.332 97.2198C159.753 94.2103 161.179 91.2386 162.799 88.3262C164.355 85.5379 165.636 82.7064 166.755 79.7184C167.003 79.0658 167.24 78.4079 167.482 77.7499C167.724 77.518 167.832 77.1782 167.821 76.8276C168.241 75.6896 168.661 74.557 169.08 73.419C169.689 72.4752 170.388 71.6015 171.11 70.7439C172.945 68.565 174.641 66.2836 176.605 64.218C178.785 61.9204 181.137 59.8008 183.414 57.6003C185.755 55.3405 187.914 52.9081 190.282 50.6807C194.884 46.3444 199.906 42.4828 204.53 38.1628C209.045 33.9506 213.217 29.377 215.273 23.4443C216.436 20.0951 216.942 16.5462 217.447 13.0514C218.029 9.05488 218.346 5.02067 217.394 1.04577C217.071 -0.286382 215.391 -0.280989 214.697 0.695206C213.185 2.82018 213.206 5.57079 212.043 7.84138C210.649 10.5758 208.744 12.9489 206.65 15.1763C202.156 19.9494 197.021 24.0376 192.187 28.4547C187.645 32.6022 183.608 37.1704 180.211 42.3102C176.987 47.1858 174.355 52.4227 172.041 57.7837C169.667 63.2849 167.6 68.9102 165.528 74.53C164.489 77.3562 163.558 80.274 162.266 82.9976C160.872 85.9316 159.128 88.6822 157.713 91.6108C156.259 94.6149 154.978 97.7052 153.256 100.574C151.577 103.368 149.693 106.033 147.685 108.6C143.831 113.529 139.606 118.146 135.763 123.086C128.626 132.255 122.587 142.303 119.513 153.602C119.249 154.573 119.013 155.554 118.792 156.536C117.694 151.035 116.214 145.603 114.437 140.21C113.738 138.074 112.99 135.949 112.231 133.835C112.123 129.31 112.855 124.823 113.937 120.444C116.165 111.447 120.057 102.813 120.482 93.4391C120.487 93.3151 120.487 93.1856 120.493 93.0616C120.837 93.3204 121.462 93.2503 121.569 92.738C121.709 92.0746 121.585 91.5568 121.327 90.9474C122.334 89.3995 123.189 87.7599 123.9 86.0502C124.993 83.4291 126.031 80.7701 126.941 78.0789C128.819 72.5129 130.38 66.7528 130.892 60.8849C131.134 58.0858 131.134 55.2596 130.461 52.5144C129.804 49.8232 128.642 47.2613 127.393 44.7966C124.993 40.0666 122.317 35.5308 120.923 30.364C120.132 27.43 119.793 24.4529 119.755 21.4218C119.734 19.7229 119.761 18.0024 119.981 16.3143C120.148 15.0469 120.692 13.6932 120.17 12.4365C119.917 11.8271 119.416 11.4711 118.738 11.6221C117.855 11.8163 117.344 12.6469 116.892 13.3534C116.343 14.2163 115.659 14.9876 115.062 15.8181C113.775 17.5925 112.807 19.5665 111.967 21.5836C110.314 25.5423 109.281 29.7437 108.641 33.9775C107.193 43.5723 108 53.4205 110.471 62.7834C111.084 65.1079 111.816 67.4 112.683 69.6491C113.512 71.7956 114.507 73.8667 115.406 75.9863C116.294 78.0843 116.951 80.2308 117.306 82.4906C117.656 84.7127 117.742 86.9725 117.839 89.2161C118.044 93.9784 117.527 98.5736 116.359 103.19C115.207 107.748 113.646 112.181 112.435 116.722C111.418 120.524 110.594 124.408 110.228 128.329C109.631 126.694 109.033 125.06 108.447 123.421C106.558 118.146 105.04 112.688 102.391 107.721C99.8994 103.039 96.2824 99.1399 93.139 94.9115C91.4543 92.6463 90.0225 90.2948 89.0644 87.6251C88.1602 85.101 87.5627 82.4798 86.9007 79.8856C84.0157 68.5596 77.3306 58.4956 75.0484 47.0078C72.9331 36.3614 76.9054 25.4021 80.7324 15.6186C81.6743 13.2132 82.6162 10.8023 83.5528 8.3915C84.0695 7.05935 81.7927 6.07776 81.2275 7.40992C77.0938 17.0856 72.6694 26.9284 71.7005 37.5317C70.6402 49.1166 76.0334 59.4017 80.361 69.7731C81.6528 72.8743 82.627 76.0132 83.5259 79.1899C83.0468 78.1544 82.5301 77.135 81.9488 76.1534C80.4256 73.5754 78.4663 71.4397 76.1626 69.5412C73.4714 67.3245 70.624 65.2966 67.8521 63.1825C65.29 61.2301 62.4857 59.6013 59.563 58.2476C56.4412 56.8021 53.2709 55.6587 49.8477 55.2219C46.5482 54.8012 43.211 54.8444 39.9062 54.4614C36.8113 54.1001 33.8724 53.2425 31.1704 51.6731C28.5061 50.1252 26.1647 48.1404 24.0817 45.8752C21.7349 43.3242 19.7865 40.4387 18.1502 37.3861C17.3482 35.8868 16.6323 34.3443 15.8949 32.8179C15.1629 31.297 14.3986 29.706 14.2264 28.0071C14.1618 27.3869 13.7419 26.8529 13.0745 26.8529C12.4771 26.8529 11.885 27.3815 11.9227 28.0071C12.1649 32.0359 12.138 36.0755 12.6708 40.0828C13.1337 43.5831 13.8873 47.0456 14.9799 50.411C17.0737 56.8884 20.3409 63.1717 25.3896 67.8315C30.1693 72.2433 36.047 74.9885 42.07 77.2429C45.7301 78.6128 49.4386 79.8587 53.2386 80.7755C57.0602 81.6978 60.9356 82.1778 64.8594 82.3828C69.0685 82.5985 73.3045 82.701 77.4706 83.4237C79.1876 83.7203 81.093 84.0115 82.5193 85.0902C83.6604 85.9531 84.5754 87.1127 85.4151 88.2831C85.4582 88.9303 85.9534 89.5829 86.7231 89.5559C88.2894 93.1748 90.4639 96.3407 93.0044 99.5444C96.5461 104.01 99.7863 108.406 101.907 113.75C104.033 119.111 105.756 124.645 107.736 130.065C108.673 132.627 109.604 135.205 110.503 137.799C110.885 140.108 111.472 142.378 112.22 144.649C112.586 145.765 112.979 146.871 113.372 147.982C113.479 148.284 113.679 148.478 113.915 148.586C115.239 153.289 116.321 158.051 116.994 162.884C116.994 163.455 117 164.033 117.005 164.604C117.005 164.691 117.026 164.771 117.059 164.852C116.989 165.661 116.94 166.476 116.903 167.285C116.811 167.441 116.763 167.625 116.795 167.84C116.817 167.986 116.838 168.137 116.86 168.282C116.822 169.485 116.827 170.693 116.865 171.901C116.881 172.344 117.161 172.613 117.489 172.705C117.5 172.77 117.505 172.829 117.511 172.894C117.602 174.879 117.737 176.863 117.796 178.848C117.828 179.824 117.839 180.806 117.845 181.787C117.721 188.389 117.349 194.996 117.322 201.586C117.279 213.851 116.876 226.045 115.32 238.223C115.32 238.245 115.315 238.266 115.309 238.288C115.299 238.142 115.299 238.002 115.288 237.857C114.922 232.075 113.894 226.369 112.29 220.803C110.648 215.118 108.42 209.617 106.078 204.191C103.726 198.749 101.202 193.367 98.4999 188.092C95.8733 182.969 92.8214 178.088 89.2367 173.579C85.6519 169.065 81.5936 164.944 78.025 160.419C74.5533 156.018 71.7759 151.159 69.4453 146.067C67.0393 140.809 65.0639 135.367 62.7387 130.071C60.4996 124.969 57.9537 119.991 54.8265 115.374C53.3732 113.227 51.78 111.156 49.9392 109.328C47.9907 107.392 45.7731 105.855 43.4425 104.431C42.2637 103.708 41.0957 102.98 39.9869 102.155C38.9643 101.394 37.7209 102.646 37.9739 103.708C38.566 106.221 39.9116 108.54 40.7674 110.967C41.7255 113.68 42.5974 116.42 43.4748 119.155C45.2026 124.553 47.038 129.909 48.9972 135.227C52.9372 145.895 57.1463 156.455 61.1024 167.118C63.0294 172.306 64.9078 177.597 67.513 182.483C69.9566 187.068 73.0246 191.296 76.3564 195.271C79.7743 199.354 83.499 203.167 87.0622 207.115C90.5877 211.019 93.7687 215.194 97.0843 219.271C98.7421 221.31 100.384 223.359 101.859 225.533C103.376 227.76 104.733 230.112 106.095 232.442C108.834 237.128 111.423 242.069 113.14 247.241C113.194 247.403 113.259 247.575 113.318 247.748C113.318 248.988 113.307 250.234 113.302 251.475C111.945 259.338 110.368 267.175 108.867 275.001C106.617 286.72 104.361 298.451 102.338 310.208C101.896 309.62 101.67 308.919 101.525 308.191C101.186 303.699 100.599 299.222 99.5549 294.832C98.0909 288.667 95.6257 282.762 92.7245 277.142C89.9095 271.689 86.5454 266.544 82.7239 261.744C78.7032 256.701 74.1173 252.187 69.0524 248.196C66.5118 246.189 63.7291 244.566 60.9248 242.969C58.1152 241.373 55.3701 239.669 52.6089 237.981C47.0864 234.604 41.5048 231.234 36.5099 227.081C34.3246 225.263 32.2685 223.273 30.5138 221.035C28.7375 218.764 27.3596 216.24 26.1755 213.619C23.6296 207.967 21.6004 202.099 18.4516 196.738C17.2029 194.607 15.7065 192.644 13.7204 191.156C11.4544 189.457 8.83311 188.81 6.08266 188.4C5.28606 188.281 4.48945 188.162 3.71437 187.936C2.94467 187.715 2.2288 187.44 1.41067 187.537C0.172694 187.682 -0.467822 188.993 0.398758 189.98C4.0427 194.144 5.97501 199.294 8.13339 204.31C10.2702 209.283 11.7289 214.476 13.3705 219.622C15.0284 224.81 16.9607 229.998 20.0771 234.502C23.1182 238.892 26.6814 242.905 30.5568 246.561L30.5784 246.518ZM132.135 209.784C134.982 204.876 137.916 200.012 140.338 194.872C142.792 189.656 144.655 184.198 146.243 178.659C147.777 173.304 149.009 167.873 150.947 162.641C154.725 152.421 160.56 143.004 166.578 133.975C168.182 131.57 169.845 129.197 171.599 126.899C173.273 124.71 175.06 122.612 176.745 120.427C178.43 118.248 180.045 116.01 181.428 113.626C182.241 112.219 182.903 110.784 183.462 109.301C183.355 110.051 183.242 110.8 183.134 111.566C182.8 113.901 182.784 116.269 182.693 118.626C182.574 121.684 182.451 124.747 182.155 127.795C181.606 133.528 180.599 139.353 178.796 144.832C176.998 150.296 174.258 155.543 171.454 160.548C168.585 165.672 165.297 170.483 161.793 175.186C160.022 177.564 158.235 179.938 156.55 182.375C154.93 184.721 153.455 187.159 151.878 189.532C150.339 191.857 148.686 194.057 146.759 196.08C145.726 197.169 144.671 198.243 143.686 199.375C142.771 200.432 141.942 201.559 140.968 202.573C140.01 203.571 138.998 204.51 138.024 205.48C140.957 201.268 143.675 196.91 146.512 192.633C149.822 187.628 152.965 182.532 156.087 177.403C157.637 174.857 159.15 172.29 160.512 169.636C161.863 167.01 162.961 164.291 164.042 161.541C166.594 155.085 169.344 148.667 171.416 142.038C171.669 141.235 170.475 140.944 170.178 141.699C167.945 147.464 165.754 153.246 163.472 158.995C162.342 161.843 161.281 164.717 159.946 167.473C158.665 170.116 157.212 172.673 155.705 175.191C152.642 180.32 149.521 185.423 146.237 190.411C144.536 192.995 142.814 195.567 141.129 198.167C139.482 200.707 137.878 203.258 136.113 205.723C134.223 208.355 132.189 210.911 130.526 213.7C129.159 215.997 128.082 218.441 127.162 220.948C126.742 221.558 126.322 222.162 125.875 222.755C125.547 223.187 125.197 223.602 124.836 224.006C126.946 219.099 129.455 214.401 132.14 209.779L132.135 209.784ZM173.069 62.9344C177.445 52.0668 182.973 41.5498 191.396 33.2602C196.031 28.6974 201.149 24.674 205.837 20.176C208.157 17.9539 210.391 15.624 212.296 13.0298C213.19 11.8163 213.992 10.5381 214.665 9.18972C214.799 8.92005 214.918 8.65038 215.031 8.37532C214.955 9.62119 214.815 10.867 214.638 12.0967C214.186 15.2464 213.734 18.4339 212.813 21.4811C211.995 24.194 210.746 26.745 209.04 29.0156C207.145 31.5451 204.847 33.8049 202.549 35.9569C197.931 40.2769 192.909 44.1386 188.301 48.4694C185.965 50.6645 183.834 53.0646 181.53 55.292C180.141 56.6349 178.731 57.9509 177.343 59.2885C178.71 56.9316 180.072 54.5369 181.665 52.3364C183.473 49.8447 185.605 47.6065 187.666 45.3251C189.889 42.8711 192.074 40.374 194.249 37.8769C195.374 36.5879 196.445 35.2773 197.473 33.9074C198.528 32.5051 199.572 31.1029 200.843 29.8786C201.348 29.3878 200.611 28.692 200.084 29.1181C197.661 31.0813 196.047 33.875 194.034 36.2265C191.811 38.8261 189.55 41.3934 187.273 43.9444C185.255 46.2042 183.166 48.4047 181.326 50.8101C179.372 53.3612 177.827 56.1981 176.191 58.9541C175.502 60.1136 174.829 61.284 174.194 62.4705C173.613 63.1016 173.047 63.7434 172.498 64.4014C172.692 63.9052 172.88 63.409 173.08 62.9182L173.069 62.9344ZM114.712 67.2059C111.569 58.3392 110.067 48.7499 110.611 39.3439C110.858 35.04 111.558 30.7361 112.758 26.594C113.334 24.6147 114.023 22.6677 114.911 20.8016C115.692 19.1674 116.65 17.695 117.694 16.2496C117.522 17.6896 117.452 19.1512 117.43 20.602C117.387 23.3365 117.559 26.0655 118.065 28.7568C119.034 33.9182 121.236 38.6589 123.668 43.2649C124.912 45.6217 126.177 47.9894 127.086 50.4973C128.001 53.016 128.416 55.5131 128.378 58.1936C128.297 63.8728 126.925 69.4927 125.321 74.913C124.417 77.971 123.324 80.9535 122.242 83.9468C121.768 85.252 121.236 86.5356 120.633 87.7815C120.541 87.3932 120.46 87.0102 120.423 86.6165C120.347 85.8183 120.396 85.0147 120.487 84.2219C120.67 82.6093 121.053 81.0182 121.096 79.3948C121.144 77.6798 121.192 75.9809 121.338 74.2658C121.483 72.5777 121.639 70.8841 121.58 69.1852C121.521 67.4432 121.139 65.7928 120.773 64.0993C120.396 62.3735 120.084 60.6368 119.669 58.9217C119.481 58.1289 119.271 57.3361 119.029 56.5594C118.76 55.7019 118.383 54.9091 118.06 54.0731C116.601 50.2708 116.644 46.0262 116.887 42.0136C116.94 41.1399 115.584 41.1399 115.53 42.0136C115.417 43.8419 115.396 45.6703 115.476 47.4986C115.557 49.2622 115.681 51.0151 116.154 52.7194C116.612 54.359 117.382 55.8799 117.845 57.5195C118.313 59.1752 118.652 60.8687 118.991 62.5568C119.336 64.2665 119.836 65.9816 120.03 67.7183C120.218 69.4118 120.143 71.1269 120.003 72.8204C119.863 74.5301 119.669 76.2343 119.632 77.9494C119.615 78.6128 119.632 79.2708 119.589 79.9288C119.572 79.8587 119.562 79.7886 119.545 79.7184C118.544 75.3606 116.198 71.4181 114.712 67.2221V67.2059ZM80.9638 81.4443C77.449 80.4843 73.7082 80.1931 70.0804 80.0097C66.1566 79.8101 62.2112 79.8209 58.3197 79.2276C54.5412 78.6506 50.8326 77.6636 47.2049 76.4717C40.9827 74.433 34.7121 72.0869 29.405 68.1551C24.1248 64.2449 20.4916 58.7114 18.1179 52.6331C16.67 48.9225 15.6473 45.0393 15.0176 41.1075C14.7162 39.2145 14.5439 37.3106 14.4363 35.4014C14.6677 35.8706 14.8938 36.3398 15.1145 36.7982C16.4655 39.6513 18.0587 42.3803 19.9802 44.8882C23.8018 49.8825 28.9098 54.3104 35.0566 56.0525C41.4994 57.8754 48.4051 56.581 54.7296 58.9001C57.7276 60.0004 60.6395 61.3703 63.3738 63.0261C66.2642 64.7735 68.9286 66.9146 71.6413 68.9264C74.4618 71.019 77.266 73.1601 79.2468 76.1049C79.4244 76.3638 79.5805 76.6334 79.742 76.9031C79.2468 76.7467 78.7516 76.5957 78.2726 76.38C77.3737 75.9701 76.491 75.544 75.5813 75.1557C73.7943 74.3898 71.9697 73.7966 70.0643 73.4028C66.3234 72.6316 62.4965 72.3997 58.7987 71.3965C55.214 70.4203 51.7907 68.9695 48.4966 67.2706C44.7827 65.356 41.2303 63.1663 37.6402 61.0359C36.8759 60.5829 36.1869 61.7748 36.9458 62.2278C43.3348 66.0409 49.6916 70.0644 56.8395 72.3188C60.5749 73.4999 64.4019 73.8882 68.245 74.5462C70.1665 74.8752 72.0612 75.3283 73.8805 76.0348C75.6513 76.7197 77.3145 77.7013 79.1338 78.2622C79.8281 78.478 80.4202 78.7045 80.9746 79.0928C81.4482 80.0259 81.8842 80.9805 82.2933 81.9459C81.8734 81.7517 81.4321 81.5845 80.9638 81.4605V81.4443ZM111.203 235.457C108.689 230.667 105.922 225.873 102.666 221.542C101.046 219.39 99.3288 217.313 97.628 215.221C95.9755 213.182 94.4039 211.079 92.7191 209.067C89.3067 204.984 85.582 201.176 82.0026 197.239C78.4879 193.372 75.1453 189.349 72.3357 184.932C69.4399 180.385 67.3784 175.477 65.4461 170.461C63.4008 165.16 61.4684 159.815 59.4177 154.513C57.3562 149.174 55.2463 143.851 53.2009 138.506C51.1717 133.21 49.2018 127.886 47.4094 122.504C45.6547 117.24 44.1315 111.852 41.9838 106.728C43.1788 107.467 44.3791 108.206 45.4932 109.064C47.4309 110.558 49.1425 112.375 50.6389 114.311C53.933 118.577 56.5219 123.426 58.8203 128.285C63.6376 138.49 66.8563 149.465 73.4014 158.779C76.647 163.407 80.5386 167.5 84.2417 171.756C87.9557 176.022 91.2713 180.525 94.0971 185.433C96.9875 190.455 99.4688 195.735 101.902 200.993C104.361 206.3 106.692 211.693 108.635 217.216C110.519 222.556 111.962 228.084 112.667 233.709C112.688 233.892 112.71 234.076 112.731 234.254C112.225 233.466 111.768 232.663 111.407 231.794C110.804 230.344 110.18 228.904 109.534 227.474C106.902 221.633 103.915 215.97 100.847 210.351C97.8217 204.812 94.673 199.332 91.1206 194.106C87.5466 188.842 83.359 184.036 79.7312 178.81C75.5275 172.754 71.7759 166.379 68.1427 159.966C67.7175 159.211 66.5549 159.89 66.9801 160.646C70.1612 166.298 73.4552 171.891 77.0292 177.306C80.5224 182.602 84.6454 187.423 88.3109 192.59C91.9225 197.682 95.1251 203.037 98.1555 208.49C101.218 214.002 104.205 219.562 106.902 225.263C107.682 226.919 108.441 228.591 109.173 230.274C109.782 231.67 110.293 233.116 111.09 234.421C111.655 235.343 112.36 236.276 113.022 237.242C113.081 237.991 113.13 238.746 113.173 239.496C112.554 238.132 111.908 236.778 111.213 235.446L111.203 235.457ZM105.303 309.966C105.659 308.585 106.084 307.22 106.611 305.883C107.661 303.202 109.146 300.732 110.982 298.516C112.731 296.407 114.62 294.357 116.865 292.772C121.892 289.217 128.4 288.478 133.195 284.504C135.095 282.929 136.403 280.836 137.507 278.657C139.019 275.664 140.397 272.6 141.667 269.494C143.126 265.924 144.348 262.283 145.408 258.572C145.769 257.31 146.113 256.043 146.442 254.776C146.781 256.771 147.077 258.777 147.335 260.789C147.852 264.823 148.347 268.884 148.595 272.951C149.047 280.248 148.659 287.777 146.409 294.773C144.466 300.813 140.822 306.271 135.16 309.356C128.297 313.094 120.261 311.832 113 314.189C111.294 314.744 109.636 315.483 108.205 316.572C108.027 316.707 107.86 316.853 107.688 316.998C108.99 315.025 110.465 313.169 112.123 311.47C114.879 308.644 118.044 306.411 121.499 304.529C125.03 302.604 128.534 300.786 131.629 298.176C134.509 295.749 137.06 292.966 139.315 289.956C141.867 286.553 144.143 282.842 145.828 278.938C146.146 278.21 145.139 277.562 144.73 278.296C142.889 281.597 141.108 284.914 138.917 288.004C136.716 291.105 134.18 293.974 131.328 296.493C129.848 297.798 128.287 298.99 126.602 300.026C124.863 301.088 123.049 302.016 121.257 302.987C117.834 304.831 114.637 306.967 111.832 309.68C109.243 312.188 107.026 315.073 105.217 318.19C104.964 317.408 104.695 316.637 104.388 315.877C104.668 313.908 104.975 311.94 105.298 309.976L105.303 309.966ZM20.2709 229.222C19.0222 226.865 18.021 224.389 17.1329 221.876C15.3082 216.704 13.9519 211.37 11.928 206.262C10.9161 203.701 9.76967 201.187 8.65549 198.669C7.5467 196.155 6.37332 193.631 4.93081 191.29C4.88237 191.21 4.82316 191.129 4.77472 191.042C5.14073 191.102 5.50674 191.156 5.87275 191.215C7.26143 191.431 8.66087 191.69 9.95805 192.261C11.9496 193.146 13.5536 194.64 14.7915 196.414C18.134 201.193 20.1471 206.834 22.3916 212.168C23.6027 215.043 24.8514 217.901 26.5792 220.512C28.1078 222.825 29.9163 224.956 31.9186 226.87C36.4829 231.239 41.8654 234.734 47.2156 238.056C49.9876 239.777 52.7703 241.476 55.5477 243.174C58.1905 244.792 60.9463 246.222 63.5784 247.867C66.3234 249.576 68.7994 251.62 71.2215 253.762C73.6436 255.903 75.9366 258.179 78.0626 260.616C81.9972 265.125 85.4636 270.022 88.4347 275.216C91.465 280.507 94.1078 286.132 95.8787 291.984C96.4115 293.737 96.8529 295.511 97.2297 297.297C97.1974 297.243 97.1705 297.183 97.1382 297.129C96.3523 295.668 95.6526 294.158 94.926 292.669C94.2155 291.213 93.4781 289.762 92.6169 288.387C91.6857 286.904 90.5877 285.528 89.5058 284.158C87.3151 281.392 84.9361 278.814 82.4978 276.263C77.632 271.171 72.5994 266.236 67.3084 261.582C64.6333 259.225 61.8614 256.987 59.1594 254.668C56.4466 252.348 53.7769 249.986 51.1018 247.619C45.1541 242.355 39.1957 237.096 32.8928 232.258C32.22 231.741 31.5633 232.889 32.2254 233.402C37.8662 237.754 43.2164 242.468 48.5397 247.198C51.1771 249.539 53.8038 251.89 56.4627 254.204C59.154 256.55 61.9098 258.81 64.6118 261.14C69.9136 265.713 74.9623 270.573 79.8335 275.605C82.2771 278.129 84.7208 280.664 86.976 283.366C89.1721 285.998 91.239 288.689 92.8214 291.741C93.6772 293.392 94.4469 295.091 95.2866 296.752C96.1424 298.445 97.1005 300.08 97.9455 301.778C97.9886 301.87 98.037 301.962 98.0801 302.054C98.2147 302.96 98.3331 303.866 98.4407 304.777C98.3761 304.669 98.3062 304.556 98.2416 304.448C95.0821 299.271 91.7288 294.249 87.9933 289.471C84.2794 284.714 80.3179 280.006 75.7105 276.079C73.4176 274.127 70.9201 272.444 68.4388 270.74C66.1835 269.186 63.9605 267.59 61.7053 266.037C52.9426 260.029 43.9215 254.317 35.864 247.354C31.8163 243.859 28.0217 240.052 24.7061 235.856C23.0536 233.763 21.5358 231.573 20.287 229.216L20.2709 229.222Z" fill="#844935" fill-opacity="0.2"/>
</svg>
