<svg width="40" height="61" viewBox="0 0 40 61" fill="none" xmlns="http://www.w3.org/2000/svg">
<path d="M37.7006 46.5154C37.4175 46.4482 37.2288 46.6161 36.9772 46.7841C36.757 46.9521 36.5054 47.0865 36.2852 47.2208C35.8135 47.4896 35.3102 47.7247 34.7756 47.9263C34.2724 48.1279 33.7377 48.2622 33.203 48.363C32.6683 48.4638 32.1022 48.531 31.5675 48.5982C31.253 48.6654 30.907 48.7326 30.5925 48.7661C30.7498 48.5982 30.8441 48.4302 30.8756 48.1615C30.8756 47.9599 30.7812 47.8591 30.624 47.7919C29.7119 47.5568 28.8312 47.7919 27.9506 48.1279C28.0135 48.0271 28.0764 47.9263 28.1079 47.7919C28.1708 47.6576 28.1079 47.5232 28.0135 47.4224C27.8562 47.2544 27.6361 47.1536 27.4159 47.1536C27.2901 47.1536 27.1958 47.1536 27.1014 47.1536C27.007 47.1536 26.8812 47.1536 26.7869 47.1872C26.3151 47.2544 25.8748 47.3552 25.4345 47.4896C25.2772 47.5232 25.1514 47.5904 24.9941 47.624L25.057 47.5232C25.057 47.5232 25.0571 47.2208 24.9627 47.1536C24.774 47.0193 24.5853 46.9185 24.3651 46.9185C24.145 46.9185 23.9562 46.9857 23.7361 47.0529C23.5159 47.12 23.3272 47.1872 23.1071 47.2544C22.9183 47.3216 22.7296 47.4224 22.5409 47.5232C22.4466 47.5568 22.3522 47.624 22.2579 47.6575L22.3208 47.5904C22.3208 47.5904 22.3837 47.3552 22.3208 47.2208C22.1006 46.8513 21.6917 46.7505 21.3143 46.9185C20.9369 47.0865 20.5595 47.1872 20.1821 47.3552C19.6788 47.5904 19.1756 47.8927 18.7038 48.195V48.1279C18.7038 48.1279 18.8611 47.9263 18.7982 47.7919C18.7667 47.6911 18.6724 47.5904 18.6095 47.5232C18.4837 47.3888 18.295 47.3552 18.1377 47.3888C17.9175 47.3888 17.7288 47.5568 17.5401 47.624C17.32 47.7247 17.1313 47.7919 16.9111 47.8927C16.1563 48.2286 15.4014 48.699 14.7409 49.2029C14.3635 49.5052 13.9547 49.8076 13.5772 50.1435L13.6716 50.0091C13.6716 50.0091 13.8289 49.9419 13.8603 49.8412L13.9232 49.6732C14.049 49.5052 14.1748 49.3036 14.3006 49.1357C15.2127 47.7919 16.0619 46.4146 16.9111 45.0036C17.6974 43.6599 18.4522 42.2825 19.1442 40.8716C19.3014 40.6364 19.4587 40.4685 19.5845 40.2669C19.6159 40.2669 19.6474 40.1997 19.6788 40.1661V40.0653L19.9305 39.763C19.9305 39.763 19.9934 39.7294 20.0248 39.6958C20.0563 39.6286 20.0877 39.595 20.1506 39.5278C20.2764 39.4271 20.4022 39.2927 20.5595 39.1919C20.6538 39.1247 20.7796 39.0575 20.874 38.9903C21.22 38.7552 21.5659 38.5536 21.9434 38.352C22.7296 37.9825 23.5159 37.5794 24.3337 37.2434C25.9691 36.5716 27.6361 36.0005 29.2401 35.295C30.0264 34.9591 30.8127 34.5895 31.5675 34.22C32.2909 33.8841 33.0143 33.5481 33.7377 33.2122C35.0901 32.5403 36.4111 31.7005 37.449 30.5583C38.078 29.8864 38.5812 29.1137 39.0215 28.2739C39.1788 27.9715 39.336 27.6356 39.4933 27.3333C39.6191 27.0309 39.7764 26.6614 39.4933 26.3926C39.399 26.2918 39.2417 26.2918 39.1473 26.3926C38.8014 26.695 38.5183 27.0645 38.2038 27.4004C37.8578 27.7364 37.5119 28.0723 37.1344 28.4083C36.7885 28.7106 36.4111 29.0465 36.0651 29.3489C35.9393 29.4497 35.8449 29.5505 35.7191 29.6176C35.8135 29.4497 35.9078 29.2481 36.0022 29.0801C36.1909 28.677 36.3482 28.2739 36.3796 27.8036C36.3796 27.6356 36.2853 27.5348 36.1594 27.5012C35.782 27.4004 35.499 27.77 35.2473 28.0387C34.9328 28.3747 34.6498 28.7106 34.3667 29.0465C34.0836 29.4161 33.8006 29.752 33.5175 30.1215L33.3917 30.2559C33.549 29.7184 33.7062 29.1809 33.6433 28.6098C33.6433 28.509 33.5804 28.4083 33.4861 28.3747C33.3603 28.3411 33.203 28.2403 33.0772 28.2739C32.9828 28.2739 32.857 28.3747 32.7627 28.4083C32.574 28.509 32.3853 28.6434 32.228 28.8114C31.9135 29.1137 31.6619 29.4833 31.4103 29.8192C31.0957 30.2223 30.7812 30.5919 30.4353 30.9614C30.3095 31.0958 30.1836 31.2637 30.0578 31.4317C30.1207 31.2637 30.1837 31.1294 30.2466 30.9614C30.4038 30.4911 30.5611 30.0208 30.4982 29.5169C30.4982 29.3825 30.3724 29.2817 30.278 29.2817C29.8691 29.2481 29.5861 29.5169 29.2716 29.7856C28.9256 30.088 28.6111 30.3903 28.328 30.6926C27.982 31.0286 27.6675 31.3981 27.3216 31.7341C27.1329 31.9356 26.9756 32.1372 26.7554 32.2716C26.6925 31.9356 26.7554 31.5661 26.6925 31.2637C26.6611 31.0958 26.5667 31.0286 26.4095 31.0286C25.8119 31.0286 25.3401 31.6333 24.9627 32.07C24.4909 32.6411 24.0506 33.2458 23.5474 33.7833C23.2958 34.0856 22.9812 34.3544 22.6982 34.6231C22.4151 34.8919 22.1321 35.1606 21.8804 35.4966C21.6288 35.7989 21.3458 36.1013 21.0942 36.4036L21.1571 36.2692C21.7546 34.6903 22.3208 33.1114 22.8869 31.5325C22.9183 31.5325 22.9498 31.4653 22.9812 31.4317C23.6417 29.8864 24.3651 28.3747 25.2458 26.9973C26.1264 25.62 27.1329 24.3434 28.2651 23.2012C28.8312 22.6301 29.3974 22.059 30.0264 21.5551C30.3409 21.2864 30.6554 21.0512 30.9699 20.816C31.253 20.6145 31.5675 20.3457 31.9135 20.2114C31.9764 20.2114 32.0393 20.1442 32.1022 20.1106C32.1651 20.2114 32.2594 20.3121 32.3538 20.4129C32.6054 20.6817 32.9199 20.8832 33.203 21.0848C33.4546 21.2528 33.7377 21.3871 34.0207 21.4879C34.3667 21.5887 34.807 21.5551 34.9014 21.1184C34.9643 20.7825 34.7441 20.5473 34.5554 20.3121C34.3982 20.1106 34.2095 19.909 34.0207 19.741H34.4925C34.9014 19.741 35.3102 19.741 35.7191 19.741C36.0651 19.741 36.4111 19.6739 36.7256 19.5059C37.3546 19.1699 37.7949 18.5653 37.9522 17.8598C38.1094 17.1207 37.8264 16.3481 37.2288 15.9449C36.5683 15.4746 35.7191 15.5754 34.9643 15.777C34.3038 15.9785 33.7062 16.4152 33.2659 16.9863C33.2974 16.6168 33.2974 16.2473 33.1716 15.9113C33.0457 15.5754 32.7312 15.2059 32.3538 15.4074C32.0393 15.5754 31.9135 16.0121 31.8191 16.3145C31.599 17.1207 31.5361 17.9606 31.6619 18.8004C31.6933 19.0356 31.7562 19.3043 31.8506 19.5395C31.8506 19.5395 31.7562 19.6067 31.7248 19.6403C31.3788 19.8082 31.0643 20.077 30.7183 20.3121C30.0578 20.7825 29.4603 21.32 28.8627 21.8911C27.6675 23.0332 26.5353 24.3098 25.5603 25.6872C24.9627 26.527 24.428 27.434 23.9562 28.3411C24.1135 27.8036 24.2708 27.2997 24.428 26.7622C25.3716 23.47 26.1579 20.1442 26.6611 16.7512C26.6925 16.4824 26.724 16.2473 26.7554 15.9785C26.8183 15.9785 26.8812 15.9113 26.9127 15.8777C27.1014 15.7434 27.2901 15.609 27.4474 15.441C27.7933 15.1387 28.1079 14.8027 28.3909 14.4332C28.7054 14.0637 28.9885 13.5934 29.0514 13.0895C29.2401 12.9887 29.3974 12.8879 29.5861 12.7535C30.1208 12.384 30.624 11.9137 31.0643 11.4098C31.5046 10.9394 31.9764 10.4691 32.3853 9.93163C32.7941 9.39413 33.1086 8.78944 33.3917 8.15115C33.6748 7.51287 33.9578 6.84099 34.178 6.16912C34.3982 5.46364 34.4925 4.75817 34.5869 4.01911C34.6498 3.5152 34.7127 2.57457 34.0836 2.4066C33.9578 2.4066 33.8006 2.4066 33.6433 2.4066C33.6119 2.4066 33.5804 2.4066 33.5175 2.33942V2.27223C33.4546 2.10426 33.3917 1.93629 33.2659 1.80191C33.0457 1.49957 32.7627 1.23082 32.5111 0.962067C32.228 0.659722 31.9449 0.390971 31.6304 0.189408C31.2845 -0.0121557 30.9385 -0.0457494 30.5611 0.0550322C30.2151 0.155814 29.8691 0.290189 29.5861 0.55894C29.3974 0.726909 29.2087 0.99566 28.957 1.09644C28.674 1.19722 28.2651 1.02925 27.982 0.962067C27.6361 0.894879 27.2587 0.894879 26.9127 0.962067C26.5667 1.02925 26.2522 1.16363 25.9691 1.36519C25.6861 1.56676 25.4345 1.8691 25.2143 2.13785C25.0256 2.37301 24.8054 2.67535 24.5224 2.80973C24.2393 2.9441 23.9562 2.9777 23.6417 3.01129C23.3272 3.01129 23.0127 3.01129 22.6982 3.11207C22.3837 3.17926 22.0692 3.28004 21.7861 3.44801C21.22 3.75036 20.7482 4.22067 20.3079 4.75817C19.7732 5.39646 19.3329 6.13552 19.1127 6.97537C18.8925 7.84881 18.9555 8.75584 19.1127 9.62928C19.1127 9.69647 19.1127 9.73007 19.1756 9.76366C19.2385 9.99882 19.3014 10.234 19.3958 10.4355C19.3958 10.4691 19.4587 10.5027 19.4901 10.5363C19.5845 10.8051 19.7103 11.0738 19.899 11.309C20.1821 11.6785 20.4966 11.9809 20.874 12.2496C21.1885 12.4848 21.503 12.7199 21.849 12.9215C22.1635 13.1902 22.5095 13.459 22.8554 13.6941C23.0441 13.8285 23.2329 13.9629 23.453 14.0637C23.453 14.1645 23.5159 14.2652 23.6103 14.2988C23.8933 14.3996 24.1764 14.4668 24.4595 14.5004C24.5853 14.6012 24.7111 14.702 24.8369 14.8027C24.8998 14.8363 24.9627 14.9035 25.0256 14.9371C25.2458 15.2395 25.5917 15.4074 25.8748 15.6426C25.9062 15.6426 25.9377 15.6762 26.0006 15.7098C26.0006 15.8106 26.0635 15.9113 26.1579 15.9785C25.7175 19.1699 25.0256 22.2942 24.1764 25.3848C23.7361 26.9973 23.2643 28.6434 22.6982 30.2223C22.1635 31.8012 21.5345 33.3802 20.9683 34.9591C19.8675 38.0497 18.4837 40.9724 16.8797 43.7943L16.8167 43.9286C17.1627 43.1896 17.4772 42.4169 17.7603 41.6442C18.0434 40.8044 18.295 39.9646 18.4837 39.0911C18.6724 38.1841 18.8611 37.277 18.9555 36.37C18.9555 36.1348 18.9869 35.8997 19.0184 35.6645C19.0184 35.3958 19.0184 35.127 19.0184 34.8919C19.0184 34.6903 19.0813 34.5223 19.0184 34.3544C18.9555 34.1864 18.8611 34.052 18.7038 33.9512C18.6095 33.8841 18.4837 33.8841 18.3893 33.9512C18.0434 34.1864 17.7917 34.5223 17.603 34.8919C17.603 34.1528 17.603 33.4473 17.4143 32.7419C17.2571 32.1036 17.0369 31.4989 16.6909 30.995C16.5966 30.827 16.5022 30.6926 16.2821 30.7262C16.1563 30.7262 16.0305 30.827 15.9361 30.9278C15.8418 31.0286 15.8103 31.1966 15.8103 31.3309C15.8103 31.3981 15.8103 31.4653 15.8103 31.4989C15.6845 30.8942 15.5587 30.2895 15.2756 29.752C15.1184 29.4497 14.9297 29.1473 14.678 28.9122C14.4579 28.7106 14.1434 28.509 13.8603 28.5426C13.42 28.5762 13.2942 29.0465 13.2313 29.4833C13.0426 29.0801 12.8539 28.677 12.6022 28.3075C12.3506 27.9044 12.099 27.5012 11.753 27.1653C11.6901 27.0981 11.5643 27.0981 11.5014 27.1317C11.2184 27.2661 11.0926 27.5684 11.124 27.9044C11.124 28.1395 11.1555 28.3411 11.2184 28.5426C11.1555 28.4754 11.124 28.4083 11.0611 28.3747C10.7151 28.0387 10.3377 27.7364 9.96031 27.434C9.7716 27.2997 9.5829 27.1317 9.36274 27.0309C9.14258 26.9301 8.92241 26.9637 8.70224 27.0309C8.45063 27.0309 8.23048 27.1653 8.13613 27.434C8.04177 27.7364 8.10467 28.1059 8.19902 28.4419C8.26192 28.677 8.35628 28.8786 8.45064 29.0801C8.35628 28.9794 8.23048 28.9122 8.10467 28.845C7.66435 28.5426 7.16113 28.3075 6.6579 28.1395C6.21758 28.0051 5.6829 27.9044 5.24258 28.0387C5.02242 28.1059 4.80225 28.2403 4.7708 28.509C4.73935 28.7778 4.86516 28.9794 5.05387 29.1473C5.11677 29.2145 5.21114 29.2817 5.27404 29.3489C4.86517 29.3489 4.48775 29.3489 4.07888 29.4161C3.57565 29.5169 3.07243 29.6512 2.5692 29.8528C2.09743 30.0544 1.68856 30.2895 1.24823 30.5583C0.807912 30.827 0.336136 31.0958 0.0530719 31.5661C-0.0412827 31.7005 -0.00982302 31.8684 0.147435 31.9692C0.87082 32.4059 1.81436 32.1372 2.60065 32.1372C3.51275 32.1372 4.45629 32.238 5.33693 32.4395C7.03531 32.8091 8.7337 33.4809 10.2434 34.4216C10.9982 34.8919 11.7216 35.3958 12.3506 36.0005C12.9482 36.5716 13.5143 37.277 13.8918 38.0161C14.3006 38.7888 14.5208 39.6622 14.678 40.5356C14.8668 41.4763 14.9297 42.4505 14.8353 43.3911C14.7409 44.3654 14.6151 45.3396 14.3635 46.2802C14.2377 46.7505 14.0805 47.2208 13.9547 47.7247C13.8289 48.1951 13.6716 48.6318 13.5458 49.1021L13.4829 49.3708C12.8538 50.2443 12.2248 51.1177 11.5329 51.9576C9.45709 54.5443 7.34984 57.0638 5.14823 59.5498C4.86517 59.8521 4.61355 60.1545 4.33048 60.4568C4.11032 60.692 4.48774 61.0279 4.73936 60.7928C6.34338 59.0123 7.88451 57.1982 9.42564 55.3505C9.55145 55.3505 9.67725 55.3505 9.74015 55.1826C9.74015 55.1826 9.80305 55.1826 9.8345 55.1826C9.96031 55.1154 10.0547 55.0482 10.149 54.9474C10.3063 54.813 10.495 54.6787 10.6837 54.5779C11.0926 54.3427 11.5329 54.074 11.9732 53.906C12.8853 53.5029 13.8288 53.2005 14.7724 52.999C15.2756 52.8982 15.7789 52.7974 16.2821 52.7302C16.7853 52.663 17.2885 52.663 17.7917 52.663C18.8611 52.6966 19.899 52.7638 20.9683 52.7974C22.0377 52.831 23.1071 52.8646 24.1764 52.8646C25.2458 52.8646 26.2837 52.7974 27.3216 52.6294C28.3595 52.4615 29.3974 52.2599 30.4353 52.0248C30.9385 51.924 31.4103 51.7896 31.882 51.6216C32.3538 51.4537 32.7941 51.2521 33.2659 51.0505C34.1465 50.6474 35.0901 50.2107 35.8764 49.606C36.2538 49.3036 36.6312 48.9677 36.9457 48.5982C37.103 48.4302 37.2288 48.2622 37.3861 48.0943C37.5119 47.9263 37.6691 47.7583 37.7949 47.5904C37.9207 47.3888 38.0151 47.1872 38.0151 46.9521C38.0151 46.7505 37.9207 46.6497 37.7635 46.5825L37.7006 46.5154ZM37.2602 16.9863C37.2602 16.9863 37.3546 17.2215 37.3546 17.3223C37.2917 17.4231 37.1973 17.4903 37.1344 17.5574C36.9772 17.7254 36.7885 17.8598 36.5998 17.9606C36.2223 18.2293 35.782 18.3637 35.3417 18.4645C34.9643 18.5653 34.5554 18.666 34.178 18.8004C34.524 18.666 34.9014 18.5653 35.2473 18.3973C35.6877 18.1957 36.128 17.9606 36.5054 17.6582C36.6941 17.5238 36.8828 17.3559 37.0401 17.1543C37.103 17.0871 37.1973 17.0199 37.2602 16.9192V16.9863ZM37.0401 16.7848C37.0401 16.7848 36.9457 16.8856 36.9457 16.9192C36.8514 17.0199 36.757 17.1207 36.6627 17.1879C36.5054 17.3223 36.3482 17.4567 36.1594 17.591C35.8135 17.8262 35.4046 18.0278 34.9957 18.1957C34.5554 18.3973 34.1151 18.5317 33.6433 18.666C33.549 18.666 33.4546 18.7332 33.3603 18.7332C33.8006 18.2293 34.3038 17.759 34.8699 17.4231C35.2159 17.2215 35.5933 17.0535 35.9707 16.9863C36.1909 16.9528 36.4111 16.8856 36.6312 16.852C36.7256 16.852 36.8199 16.8184 36.9457 16.7848H37.0401ZM34.0836 20.7489L34.178 20.8832C34.178 20.8832 34.0522 20.8496 33.9893 20.816C33.8635 20.7489 33.7377 20.6817 33.6119 20.6145C33.3288 20.4465 33.0772 20.2785 32.8256 20.0434C32.8256 20.0434 32.9828 20.0434 33.0457 20.0434C33.203 20.0434 33.2974 20.1106 33.4546 20.1778C33.7062 20.3121 33.8635 20.5137 34.0522 20.7153L34.0836 20.7489ZM36.9457 18.5317C36.757 18.7332 36.5369 18.9012 36.2852 19.002C35.9707 19.1364 35.6248 19.1364 35.2788 19.1028C34.9328 19.1028 34.5869 19.1028 34.2409 19.1028C34.6498 19.002 35.0272 18.9012 35.4361 18.7668C35.9078 18.6324 36.3796 18.4645 36.8199 18.1957C37.0086 18.0613 37.1659 17.927 37.3232 17.759C37.2602 18.0278 37.103 18.2965 36.9457 18.4981V18.5317ZM33.8635 17.2551C34.3038 16.7512 34.9014 16.4488 35.5304 16.3481C35.9707 16.2809 36.4425 16.2809 36.8199 16.4824H36.757C36.5369 16.5496 36.2852 16.5832 36.0651 16.6168C35.6248 16.7176 35.2159 16.852 34.8385 17.0871C34.1151 17.5238 33.4861 18.1285 32.9514 18.8004C33.2345 18.2629 33.5175 17.7254 33.8949 17.2551H33.8635ZM32.2595 17.1207C32.3224 16.7848 32.3853 16.3817 32.574 16.0793C32.6369 16.2137 32.6683 16.3481 32.6998 16.4824C32.6998 16.8184 32.6369 17.1879 32.574 17.4903C32.4796 17.8262 32.3538 18.1621 32.2595 18.4645V18.2965C32.1965 17.8934 32.2594 17.4903 32.2909 17.0871L32.2595 17.1207ZM27.2901 13.0223C27.1329 13.0895 26.9441 13.123 26.7554 13.1566C26.8498 12.3504 26.8812 11.5441 26.8812 10.7043C26.8812 9.69647 26.724 8.68866 26.5667 7.71443C26.5353 7.44568 26.4724 7.17693 26.4095 6.87459C26.4095 6.74021 26.3466 6.60584 26.3151 6.43787C26.6925 6.10193 27.0385 5.76599 27.4474 5.46364C27.5103 5.39646 27.5732 5.36286 27.6361 5.29568C27.7304 5.7324 27.8562 6.16912 27.9191 6.63943C28.0135 7.17693 28.0449 7.74803 28.0449 8.28553C28.0449 9.42772 27.9506 10.5699 27.7619 11.6785C27.699 11.9809 27.6675 12.3168 27.6046 12.6191L27.5417 12.8879C27.5417 12.8879 27.353 12.9551 27.2272 12.9887L27.2901 13.0223ZM30.3095 4.75817C30.3095 4.75817 30.3095 4.92614 30.3095 4.99333C30.3095 5.22849 30.3095 5.43005 30.3095 5.66521C30.278 6.10193 30.2151 6.50505 30.1522 6.94177C29.9949 7.78162 29.8062 8.62147 29.5232 9.42772C29.1458 10.5027 28.674 11.5441 28.1079 12.552L27.982 12.7871H27.9506C27.982 12.552 28.045 12.2832 28.0764 12.048C28.1708 11.4769 28.2651 10.9059 28.2966 10.3348C28.4224 9.19257 28.4538 8.01678 28.2966 6.90818C28.2022 6.30349 28.0764 5.7324 27.9506 5.1613C28.2337 4.95974 28.5167 4.82536 28.8312 4.72458C29.3345 4.5902 29.8377 4.69099 30.3409 4.75817H30.3095ZM31.8191 4.65739C31.882 4.92614 31.9135 5.22849 31.9449 5.53083C31.9449 5.86677 31.9449 6.20271 31.8506 6.53865C31.7248 7.24412 31.4732 7.916 31.2216 8.55428C30.6869 9.83085 29.932 11.0066 29.1143 12.1152C28.9885 12.2832 28.8941 12.4176 28.7683 12.552C28.674 12.6191 28.5796 12.6527 28.4538 12.7199H28.3595C28.4853 12.4512 28.6425 12.216 28.7683 11.9473C29.0828 11.3426 29.3659 10.6707 29.5861 10.0324C29.9006 9.15897 30.1522 8.28553 30.3095 7.3785C30.4038 6.87459 30.4982 6.33709 30.5296 5.83318C30.5296 5.56443 30.5611 5.29568 30.5611 5.06052C30.5611 4.99333 30.5611 4.92614 30.5611 4.82536C31.0014 4.89255 31.3788 4.82536 31.7562 4.65739H31.8191ZM33.2345 3.44801C33.2345 3.44801 33.549 3.21286 33.7062 3.14567C33.7691 3.14567 33.832 3.14567 33.8949 3.07848H33.9578C33.9578 3.07848 34.0207 3.31364 34.0207 3.44801C34.0207 3.71676 34.0207 3.98552 33.9578 4.25427C33.9264 4.59021 33.8635 4.92614 33.8006 5.26208C33.6748 5.93396 33.4232 6.57224 33.1401 7.21053C32.8885 7.78162 32.6683 8.41991 32.3224 8.95741C31.9764 9.49491 31.5675 9.96522 31.1587 10.4019C30.6554 10.9394 30.1207 11.5105 29.5546 11.9809C29.8062 11.6113 30.0578 11.2082 30.3095 10.8387C31.0643 9.62929 31.7562 8.28553 32.0707 6.84099C32.1651 6.43787 32.228 6.03474 32.1965 5.63161C32.1965 5.26208 32.1336 4.89255 32.0393 4.52302L32.1336 4.45583C32.5111 4.15348 32.8256 3.75036 33.203 3.44801H33.2345ZM31.2216 0.794097C31.5675 0.928472 31.8506 1.23082 32.1022 1.49957C32.2595 1.66754 32.3853 1.80191 32.5425 1.96988C32.6683 2.10426 32.7941 2.23863 32.8885 2.4066C32.9514 2.54098 32.9828 2.67535 33.0772 2.80973C32.9199 2.9441 32.7627 3.07848 32.6054 3.21286C32.2595 3.5488 31.9135 3.98551 31.4417 4.15348H31.3788C31.3788 4.15348 31.3788 3.95192 31.3788 3.85114C31.3788 3.68317 31.3788 3.5152 31.3788 3.34723C31.3788 3.01129 31.3474 2.67535 31.253 2.37301C31.1272 1.80191 30.8127 1.3316 30.4982 0.861284C30.7183 0.760503 31.0014 0.726909 31.2216 0.794097ZM29.5861 1.53316C29.8062 1.3316 29.9635 1.09644 30.2151 0.962067C30.5296 1.39879 30.8441 1.8691 30.9699 2.4402C31.0328 2.70895 31.0643 3.01129 31.0643 3.31364C31.0643 3.48161 31.0643 3.64958 31.0643 3.81755C31.0643 3.95192 31.0643 4.0527 31.0643 4.18708C30.6554 4.18708 30.2151 4.0863 29.8062 4.01911C29.8062 3.91833 29.8062 3.85114 29.7748 3.75036C29.7119 3.48161 29.649 3.21286 29.5861 2.9777C29.4917 2.54098 29.3345 2.17145 29.0829 1.83551C29.2716 1.80191 29.4288 1.70113 29.5861 1.56676V1.53316ZM28.674 1.83551H28.7369C29.0514 2.17145 29.2087 2.60817 29.303 3.04489C29.3659 3.28004 29.3974 3.48161 29.4603 3.71676C29.4603 3.81754 29.4917 3.88473 29.4917 3.98552C29.2716 3.98552 29.0829 3.98551 28.8627 4.01911V3.95192C28.8627 3.95192 28.7998 3.85114 28.7998 3.81755C28.7683 3.68317 28.7369 3.54879 28.7054 3.41442C28.7054 3.41442 28.7054 3.38083 28.674 3.34723H28.7054C28.7054 3.34723 28.7998 3.14567 28.7998 3.04489C28.7998 3.01129 28.7998 2.9777 28.7998 2.9441C28.7998 2.9441 28.7998 2.87692 28.7998 2.84332C28.7998 2.80973 28.7998 2.74254 28.7998 2.70895C28.7998 2.57457 28.7054 2.47379 28.6111 2.37301C28.5482 2.30582 28.4538 2.27223 28.3595 2.27223C28.2651 2.27223 28.1393 2.27223 28.0449 2.37301C28.0449 2.37301 28.0135 2.4066 27.982 2.4402C27.9506 2.4402 27.9191 2.47379 27.8877 2.50739C27.8248 2.57457 27.7933 2.60817 27.7619 2.70895C27.7619 2.70895 27.7304 2.80973 27.699 2.84332C27.699 2.91051 27.6675 2.94411 27.6675 3.01129C27.6675 3.11208 27.6675 3.14567 27.6675 3.24645C27.6675 3.34723 27.7619 3.41442 27.8248 3.44801C27.8562 3.48161 27.9191 3.54879 27.982 3.54879C28.0449 3.54879 28.0764 3.54879 28.1393 3.54879C28.1393 3.71676 28.2022 3.85114 28.2337 3.98552C28.2337 4.0527 28.2337 4.0863 28.2651 4.15348C28.2651 4.15348 28.0764 4.25427 27.982 4.28786C27.9191 4.18708 27.8248 4.11989 27.7304 4.0527L27.6361 3.91833C27.5103 3.75036 27.3845 3.54879 27.2901 3.34723C27.1329 2.94411 27.007 2.54098 26.9127 2.10426C26.9127 2.00348 26.8183 1.96988 26.7554 1.96988C26.7554 1.8691 26.724 1.76832 26.724 1.66754C26.9756 1.60035 27.2272 1.56676 27.4788 1.60035C27.8562 1.60035 28.2022 1.80191 28.5482 1.80191L28.674 1.83551ZM26.5353 1.83551C26.5353 1.83551 26.5667 2.10426 26.5982 2.23863C26.6611 2.54098 26.7554 2.84332 26.8498 3.17926C26.9441 3.48161 27.1014 3.78395 27.3216 4.01911C27.4159 4.11989 27.5103 4.22067 27.6046 4.28786C27.6675 4.35505 27.699 4.42223 27.7619 4.48942C27.5732 4.5902 27.3845 4.72458 27.2272 4.85896C27.1958 4.79177 27.1328 4.69099 27.0699 4.6238C27.007 4.52302 26.9127 4.42224 26.8183 4.35505C26.9441 4.15348 26.9756 3.95192 26.9127 3.75036C26.8812 3.64958 26.7869 3.54879 26.6925 3.48161C26.6296 3.41442 26.5667 3.34723 26.4724 3.31364C26.378 3.28004 26.2837 3.28004 26.1893 3.31364C26.1579 3.31364 26.0949 3.34723 26.0635 3.38083C26.0006 3.41442 25.9692 3.48161 25.9377 3.5152C25.9377 3.5152 25.9062 3.58239 25.8748 3.61598C25.7804 3.31364 25.7175 3.01129 25.6861 2.67535C25.9691 2.30582 26.2208 1.96988 26.5982 1.80191L26.5353 1.83551ZM24.4595 3.58239C24.774 3.48161 25.0571 3.31364 25.3087 3.04489L25.403 2.9441C25.4659 3.34723 25.5603 3.71676 25.749 4.0863C25.749 4.18708 25.749 4.28786 25.8119 4.38864C25.8119 4.45583 25.8748 4.52302 25.9062 4.5902C25.9691 4.65739 26.0635 4.72458 26.1579 4.75817C26.2208 4.82536 26.2522 4.89255 26.3151 4.95974C26.4095 5.09411 26.5353 5.19489 26.6296 5.32927L26.4409 5.53083C26.0635 5.86677 25.6546 6.23631 25.2143 6.50506C25.0885 6.40427 24.9627 6.2699 24.8369 6.16912C24.8369 6.13552 24.774 6.10193 24.7425 6.03474C24.6482 5.90037 24.5224 5.76599 24.428 5.66521C24.428 5.66521 24.4909 5.56443 24.5224 5.49724C24.5224 5.49724 24.5224 5.39646 24.5224 5.32927C24.5224 5.32927 24.5224 5.29568 24.5224 5.26208V5.19489C24.5224 5.19489 24.5224 5.06052 24.5224 4.99333C24.5224 4.95974 24.5224 4.89255 24.4909 4.85896C24.4909 4.82536 24.4595 4.79177 24.428 4.75817C24.3966 4.72458 24.3337 4.65739 24.3022 4.65739C24.2393 4.6238 24.1764 4.5902 24.1135 4.5902C24.0506 4.5902 23.9877 4.5902 23.9562 4.5902C23.8619 4.28786 23.8304 3.98551 23.7675 3.64958C23.9877 3.64958 24.2079 3.61598 24.428 3.54879L24.4595 3.58239ZM22.6353 3.81755C22.9183 3.75036 23.2329 3.75036 23.5159 3.71676C23.5788 4.0863 23.6417 4.45583 23.7361 4.79177L23.6732 4.85896C23.6732 4.85896 23.6103 4.92614 23.6103 4.99333C23.6103 5.06052 23.5788 5.12771 23.5474 5.19489C23.5474 5.29568 23.5474 5.36286 23.5474 5.46364C23.5474 5.49724 23.5788 5.53083 23.6103 5.56443H23.6417C23.6417 5.56443 23.7046 5.7324 23.7675 5.79958C23.7675 5.79958 23.8304 5.83318 23.8619 5.86677C23.8619 5.86677 23.9248 5.86677 23.9562 5.86677C23.9562 5.86677 23.9562 5.90037 23.9562 5.93396C23.9562 6.00115 23.9877 6.06833 24.0506 6.10193H24.0821V6.16912C24.0821 6.16912 24.1764 6.2363 24.2079 6.30349C24.2079 6.33709 24.2708 6.37068 24.3022 6.43787V6.50506H24.3651C24.3651 6.50506 24.428 6.74021 24.4909 6.84099C24.2079 6.94178 23.9248 7.00896 23.6103 7.04256C23.2014 6.63943 22.7611 6.2363 22.4151 5.7324C22.1006 5.29568 21.8804 4.79177 21.7232 4.25427V4.18708C22.0063 4.01911 22.2893 3.91833 22.5409 3.85114L22.6353 3.81755ZM21.5659 4.38864C21.7232 4.92614 21.9433 5.46365 22.2579 5.90037C22.5409 6.30349 22.8869 6.63943 23.2643 6.94177C23.2014 6.94177 23.17 6.97537 23.1385 7.04256C22.3208 7.04256 21.4401 7.00896 20.6853 7.31131C20.6224 7.17693 20.5595 7.07615 20.4966 6.94177C20.3393 6.60584 20.2764 6.2699 20.2135 5.90037C20.3079 5.7324 20.4337 5.56443 20.5595 5.43005C20.8425 5.02693 21.1885 4.69099 21.5659 4.38864ZM21.0942 8.01678C21.1571 8.25194 21.22 8.4535 21.2829 8.65506C21.4401 9.09178 21.6603 9.5285 21.8804 9.93163C22.3208 10.7715 22.824 11.5441 23.3587 12.3168C23.6417 12.7199 24.0192 13.0559 24.3651 13.4254C24.3651 13.4254 24.3022 13.4254 24.3022 13.4926C24.2079 13.5598 24.145 13.6941 24.1135 13.7949C24.1135 13.7277 24.0506 13.6606 23.9562 13.627C23.3901 13.3918 22.9498 13.0223 22.478 12.6191C22.0377 12.2496 21.5659 11.9137 21.1571 11.5105C20.7482 11.1074 20.4022 10.6707 20.1506 10.1332C19.9305 9.66288 19.8046 9.09178 20.0877 8.62147C20.3393 8.21834 20.6853 7.98318 21.0942 7.84881C21.0942 7.8824 21.0942 7.94959 21.0942 7.98318V8.01678ZM19.6159 7.3449C19.7103 6.97537 19.8361 6.60584 20.0248 6.2699C20.0877 6.57224 20.1506 6.87459 20.3079 7.14334C20.3393 7.24412 20.4022 7.3449 20.4651 7.44568C20.3079 7.51287 20.1821 7.61365 20.0248 7.74803C19.8046 7.916 19.6474 8.15116 19.5216 8.38631C19.5216 8.05037 19.5216 7.68084 19.6159 7.3449ZM25.057 13.3246C25.057 13.3246 24.8054 13.3246 24.6796 13.3246C24.6796 13.291 24.6796 13.2574 24.6167 13.2238C24.3022 12.9215 23.9877 12.6191 23.7046 12.2496C23.4216 11.9137 23.2014 11.5441 22.9498 11.1746C22.6982 10.8051 22.478 10.4019 22.2579 9.99882C22.0377 9.59569 21.849 9.22616 21.6603 8.78944C21.5659 8.55428 21.503 8.31912 21.4087 8.08397C21.3772 7.98319 21.3458 7.84881 21.3143 7.74803C21.7861 7.64725 22.3208 7.64725 22.7611 7.64725C23.0441 7.64725 23.2958 7.64725 23.5788 7.64725C23.7361 7.81522 23.8619 7.98319 23.9877 8.18475C24.2393 8.62147 24.4595 9.05819 24.6482 9.5285C25.0256 10.4355 25.3087 11.4434 25.5288 12.4176C25.5917 12.6863 25.6546 12.9551 25.6861 13.2574C25.4659 13.2574 25.2143 13.2574 24.9941 13.291L25.057 13.3246ZM26.0635 13.291C26.032 12.9887 25.9691 12.7535 25.9062 12.4848C25.7804 11.9809 25.6546 11.4769 25.4974 11.0066C25.2143 10.0324 24.8369 9.09178 24.3651 8.21834C24.2708 8.01678 24.145 7.84881 24.0192 7.68084C24.2393 7.68084 24.428 7.61365 24.6482 7.54647C25.1829 7.3785 25.6546 7.10975 26.095 6.77381C26.095 6.84099 26.1264 6.90818 26.1579 6.97537C26.2208 7.21053 26.2522 7.44568 26.2837 7.68084C26.3466 8.15116 26.4095 8.62147 26.4724 9.12538C26.5982 10.0996 26.6296 11.0738 26.5667 12.0816C26.5667 12.4848 26.5038 12.8543 26.4724 13.2574C26.3466 13.2574 26.2208 13.2574 26.095 13.2574L26.0635 13.291ZM20.7482 38.1841C20.9054 37.8481 21.0627 37.4786 21.2829 37.1763C21.503 36.8403 21.7861 36.5716 22.0377 36.2692C22.2893 35.9669 22.5409 35.6645 22.824 35.3958C23.0756 35.127 23.3587 34.8919 23.6417 34.6231C24.1764 34.0856 24.6167 33.4473 25.0885 32.8427C25.2772 32.6075 25.4974 32.3387 25.7175 32.1372C25.8748 32.0028 26.0321 31.8348 26.2208 31.7676C26.2208 32.1708 26.1579 32.5739 26.3466 32.9098C26.4095 33.0442 26.5353 33.1114 26.6925 33.0778C27.0385 32.9434 27.3216 32.7083 27.5732 32.4059C27.8877 32.07 28.1707 31.7676 28.4853 31.4317C28.7998 31.1294 29.0828 30.827 29.3974 30.5247C29.5546 30.3903 29.7119 30.2559 29.8691 30.1215L29.932 30.0544C29.9006 30.3903 29.7748 30.7262 29.649 31.0286C29.4917 31.4317 29.2716 31.8348 29.3345 32.3051C29.3345 32.4731 29.5546 32.6411 29.7119 32.5403C30.0893 32.3387 30.3409 32.0028 30.624 31.6669C30.9385 31.2973 31.2216 30.9614 31.5361 30.5919C31.7877 30.2895 32.0393 29.9536 32.2909 29.6176C32.4167 29.4833 32.5425 29.3153 32.6683 29.2145C32.7941 29.1137 32.9514 29.0129 33.1086 28.9458C33.1086 29.3489 32.9514 29.7856 32.857 30.1551C32.857 30.1887 32.8256 30.2559 32.7941 30.2895C32.7627 30.3903 32.7312 30.4911 32.6998 30.6255C32.6369 30.827 32.5111 31.163 32.6054 31.3645C32.6683 31.5325 32.857 31.5997 33.0143 31.4653C33.2974 31.2301 33.5175 30.9278 33.7377 30.659C33.9893 30.3231 34.2724 29.9872 34.5554 29.6512C34.807 29.3153 35.0901 28.9794 35.3732 28.677C35.4675 28.5426 35.5933 28.4419 35.6877 28.3075C35.5933 28.5762 35.499 28.8114 35.3732 29.0465C35.2788 29.2481 35.153 29.4833 35.0272 29.6848C34.9014 29.92 34.807 30.088 34.8385 30.3567C34.8385 30.4911 34.9643 30.5919 35.0586 30.5919C35.2788 30.659 35.4675 30.5247 35.6562 30.3903C35.8135 30.2559 35.9707 30.1215 36.128 30.0208C36.5054 29.7184 36.8828 29.3825 37.2602 29.0465C37.6377 28.7106 38.0151 28.3747 38.361 28.0387L38.4869 27.9044C38.4869 27.9044 38.3611 28.1395 38.2982 28.2739C37.9207 28.9794 37.4804 29.6176 36.9457 30.2223C35.9393 31.3309 34.6812 32.1372 33.3917 32.8091C32.7941 33.1114 32.1651 33.4137 31.5675 33.6825C32.4167 32.8762 33.2659 32.0028 33.8949 30.995C33.9578 30.8606 33.832 30.7598 33.7377 30.8606C33.3288 31.3645 32.9199 31.902 32.4796 32.4059C32.1651 32.7755 31.8191 33.0778 31.4732 33.4137C31.4417 33.4137 31.3788 33.4137 31.3474 33.4137C31.1586 33.5817 30.9385 33.7833 30.7498 33.9512C30.6554 34.052 30.5611 34.1192 30.4353 34.1864L30.3409 34.2536C29.9006 34.4552 29.4603 34.6903 29.0199 34.8919C28.8627 34.9591 28.7054 35.0263 28.5167 35.0934C28.7054 34.8583 28.9256 34.6567 29.1143 34.4216C29.4288 34.0184 29.7119 33.5481 29.9635 33.1114C30.0578 32.977 29.8691 32.8091 29.7748 32.9434C29.6175 33.145 29.4603 33.3802 29.3345 33.6153C29.2087 33.8505 29.0514 34.052 28.8941 34.2536C28.5796 34.6567 28.2337 35.0262 27.8877 35.3958C27.2272 35.6645 26.5667 35.9333 25.9062 36.202C26.1579 35.8325 26.4095 35.4294 26.6296 35.0263C26.9441 34.4888 27.2587 33.9177 27.4159 33.313C27.4474 33.1786 27.2587 33.0778 27.1958 33.2122C26.9756 33.7833 26.6611 34.3208 26.378 34.8583C26.095 35.3958 25.749 35.8997 25.403 36.37C25.0256 36.538 24.6482 36.6724 24.2393 36.8403C23.5474 37.1427 22.8554 37.445 22.1635 37.7809L22.2893 37.6466C22.6667 37.2099 23.0442 36.7731 23.3272 36.2692C23.6732 35.6645 23.9562 35.0263 24.2393 34.388C24.3022 34.2536 24.0821 34.1528 24.0192 34.2872C23.7675 34.8583 23.5159 35.4294 23.2014 35.9669C22.9183 36.4708 22.5095 36.9075 22.1635 37.3442C21.9433 37.613 21.7232 37.8817 21.4716 38.1169C21.1256 38.2849 20.8111 38.4864 20.4966 38.7216L20.3079 38.856C20.4337 38.6208 20.528 38.3856 20.6538 38.1505L20.7482 38.1841ZM14.678 38.4864C14.5522 37.7138 14.4264 36.9747 14.2377 36.2356C14.0176 35.3286 13.7345 34.4552 13.4829 33.5817C13.4514 33.4473 13.2627 33.5145 13.2942 33.6489C13.4829 34.5223 13.7659 35.3958 13.9861 36.2692C14.1119 36.7395 14.2063 37.1763 14.2692 37.6466C13.7345 36.6724 12.9797 35.8325 12.1305 35.127C11.7216 34.4216 11.3127 33.7497 10.9353 33.0442C10.495 32.238 9.96032 31.5325 9.42564 30.7934C9.33129 30.6926 9.17402 30.7934 9.26837 30.9278C9.74015 31.7005 10.2748 32.4059 10.7152 33.2122C10.9982 33.7161 11.2498 34.1864 11.5329 34.6567C11.4385 34.5895 11.3442 34.5223 11.2184 34.4552C10.4635 33.9177 9.64579 33.4809 8.82805 33.1114C8.7337 33.0106 8.63935 32.9098 8.51354 32.8091C8.29338 32.5739 8.01031 32.3723 7.7587 32.1372C7.50709 31.902 7.28694 31.6333 7.06677 31.3981C6.81516 31.1294 6.56355 30.8942 6.28049 30.659C6.18613 30.5583 6.06032 30.7598 6.15468 30.827C6.43774 31.0622 6.68935 31.3309 6.94097 31.5661C7.19258 31.8348 7.41274 32.1372 7.66435 32.3723C7.82161 32.5403 8.01032 32.6747 8.16757 32.8427C7.53854 32.5739 6.90951 32.3723 6.24903 32.2044C5.96596 32.1372 5.65145 32.0364 5.36839 32.0028L5.24258 31.902C5.05387 31.7676 4.86516 31.6669 4.67645 31.5325C4.29903 31.2637 3.89017 31.0286 3.51275 30.7598C3.38694 30.659 3.22969 30.8606 3.35549 30.9614C3.76436 31.2301 4.17323 31.4989 4.5821 31.7676L4.70791 31.8684C4.29904 31.8012 3.89016 31.7676 3.48129 31.7341C3.00952 31.7341 2.53775 31.6669 2.06598 31.7341C1.65711 31.7341 1.24823 31.8348 0.83936 31.7676C0.745006 31.7676 0.650656 31.7676 0.52485 31.7005C0.745011 31.4653 0.996621 31.3309 1.24823 31.163C1.62565 30.9278 2.03453 30.6926 2.4434 30.5247C3.32404 30.1215 4.26758 29.8864 5.24258 29.9536C5.49419 29.9536 5.71435 30.0208 5.96596 30.0544C6.09177 30.0544 6.18613 30.1215 6.31193 30.1551C6.40629 30.2223 6.50064 30.2559 6.595 30.2895C6.84661 30.4239 7.06678 30.0208 6.84662 29.8528C6.75226 29.7856 6.62645 29.7184 6.50065 29.6512C6.18613 29.4833 5.84016 29.2817 5.55709 29.0465C5.46274 28.9794 5.39984 28.9122 5.30548 28.845C5.27403 28.845 5.17968 28.7442 5.17968 28.7106C5.17968 28.6098 5.36839 28.6098 5.43129 28.6098C6.24903 28.5426 7.12968 28.9458 7.79016 29.3825C8.23048 29.6848 8.63934 30.088 9.04821 30.4575C9.17402 30.5583 9.29983 30.5247 9.42564 30.4239C9.51999 30.3231 9.55144 30.1887 9.51999 30.088C9.51999 29.92 9.39419 29.8528 9.29983 29.752C9.20548 29.6512 9.14258 29.5169 9.07967 29.3825C9.01677 29.2481 8.92241 29.1137 8.85951 28.9794C8.73371 28.7442 8.6079 28.509 8.57645 28.2067C8.57645 28.0723 8.54499 27.9715 8.54499 27.8372C8.54499 27.8036 8.54499 27.77 8.54499 27.7364H8.60789C8.60789 27.7364 8.7337 27.7028 8.82805 27.6692C8.95386 27.6692 9.04822 27.6692 9.17402 27.7364C9.29983 27.8036 9.39419 27.9044 9.51999 27.9715C9.6458 28.0723 9.7716 28.1395 9.89741 28.2403C10.3377 28.5762 10.7781 28.9458 11.0926 29.4161C11.3442 29.7856 11.5643 30.1887 11.7216 30.5919V30.659C11.7216 30.659 11.8474 30.9614 11.9418 31.1294C12.1305 31.3645 12.5079 31.1294 12.3821 30.8606C12.2877 30.6255 12.1934 30.3903 12.099 30.1551V30.0544C11.9418 29.752 11.8474 29.4833 11.7845 29.1809C11.7216 28.9122 11.6587 28.6434 11.6272 28.3411C11.6272 28.2067 11.5958 28.0723 11.5958 27.9379C11.816 28.2067 12.0047 28.5426 12.1934 28.845C12.445 29.2481 12.6337 29.6848 12.8224 30.1215C13.0111 30.5583 13.1684 31.0286 13.2942 31.4989C13.3571 31.7341 13.4514 31.9356 13.4829 32.1708C13.5458 32.3723 13.6087 32.5739 13.7345 32.7419C13.8918 32.9434 14.2692 32.8091 14.2063 32.5403C14.0176 31.7341 13.7345 30.995 13.6716 30.1551V30.0208C13.6716 30.0208 13.6716 29.9872 13.6716 29.92C13.6716 29.7856 13.6716 29.6848 13.703 29.5505V29.4833C13.703 29.4833 13.703 29.3825 13.7345 29.3489V29.2817H13.8288H13.9547C13.9547 29.2817 14.1748 29.4833 14.2692 29.5505C14.4579 29.752 14.6151 29.9872 14.7409 30.2559C14.9926 30.827 15.1184 31.4317 15.2442 32.0364C15.3385 32.5067 15.4329 32.977 15.4958 33.4809C15.5272 33.7497 15.5901 33.9848 15.5901 34.2536C15.5901 34.4888 15.653 34.7239 15.7474 34.9255C15.8732 35.1942 16.2821 35.0934 16.2506 34.7911C16.1877 34.1192 16.1248 33.4473 16.1248 32.7755C16.1248 32.4731 16.1248 32.1372 16.1877 31.8348C16.1877 31.7676 16.1877 31.6669 16.1877 31.5997C16.8796 32.7419 17.0055 34.1528 16.9426 35.4966C16.9426 35.8997 16.8796 36.3028 16.8482 36.7059C16.8482 36.8403 16.9426 36.9747 17.0684 37.0083C17.2256 37.0083 17.32 36.9075 17.3514 36.7731C17.4458 36.3364 17.6659 35.8997 17.8547 35.4966C17.9805 35.2278 18.1692 34.9591 18.3893 34.7575V34.8247C18.3893 34.8247 18.3893 34.9255 18.3893 34.9927C18.3893 35.127 18.3893 35.2278 18.3893 35.3622C18.3893 35.7989 18.3893 36.202 18.3264 36.6388C18.2635 37.5122 18.0748 38.4192 17.8861 39.2591C17.6974 40.0989 17.4772 40.9052 17.2256 41.6778C16.9426 42.4505 16.628 43.2232 16.2821 43.9958C15.9047 44.9028 15.5272 45.7763 15.1498 46.6833C15.1498 46.7169 15.1498 46.7505 15.1498 46.7841C14.8668 47.2208 14.5837 47.6576 14.3006 48.0943C14.3635 47.8591 14.4264 47.5904 14.5208 47.3552C14.8353 46.4146 15.024 45.4068 15.1498 44.3989C15.1498 44.2646 15.1813 44.0966 15.1813 43.9622C15.1813 43.9622 15.2127 43.9286 15.2442 43.8614C15.4643 42.7528 15.653 41.6442 15.9046 40.5356C16.1563 39.4271 16.3764 38.3185 16.5966 37.2099C16.628 37.0419 16.4079 37.0419 16.3764 37.2099C16.0934 38.3185 15.8732 39.4271 15.6216 40.5356C15.4643 41.1403 15.37 41.7786 15.2442 42.4169C15.2442 42.081 15.2127 41.745 15.1813 41.4091C15.0555 40.5021 14.8668 39.5614 14.5208 38.688L14.678 38.4864ZM36.7885 47.7919C36.474 48.1615 36.1594 48.4974 35.8135 48.8333C35.0586 49.5052 34.2094 49.9083 33.3288 50.3451C32.8885 50.5466 32.4167 50.7818 31.9449 50.9498C31.5046 51.1177 31.0328 51.2521 30.5611 51.3529C30.3095 51.4201 30.0893 51.4537 29.8377 51.5208C30.5296 50.9833 31.1901 50.4458 31.8506 49.8747C31.9764 49.774 31.8506 49.5724 31.6933 49.6732C30.8127 50.2779 29.9949 50.9497 29.1772 51.6216C28.6111 51.756 28.0449 51.8568 27.4788 51.9576C27.1329 52.0247 26.7869 52.0583 26.4095 52.0919C27.4474 51.4873 28.4538 50.849 29.5546 50.3451C29.6804 50.2779 29.6175 50.0763 29.4603 50.1435C28.1393 50.681 26.9441 51.4201 25.749 52.1591C25.2772 52.1927 24.8054 52.2263 24.3337 52.2263C23.7046 52.2263 23.0441 52.2263 22.4151 52.2263C22.824 52.0248 23.2643 51.8232 23.7046 51.6216C24.5224 51.2185 25.3716 50.7818 26.1893 50.3787C26.3151 50.3115 26.2522 50.1099 26.095 50.1771C25.2458 50.5466 24.428 50.9833 23.5788 51.3865C23.0127 51.6888 22.4151 51.9576 21.849 52.2599C21.6288 52.2599 21.4087 52.2599 21.1571 52.2599C20.6538 52.2599 20.1821 52.2263 19.6788 52.1927C19.9934 52.0247 20.3079 51.8904 20.5909 51.7224C21.22 51.3865 21.8175 51.0841 22.4466 50.7482C22.5724 50.681 22.478 50.4794 22.3522 50.5466C21.7232 50.849 21.0942 51.1849 20.4966 51.4873C20.0248 51.7224 19.5845 51.9576 19.1127 52.1927C18.7353 52.1927 18.3264 52.1591 17.949 52.1255C17.603 52.1255 17.2571 52.1255 16.9111 52.1255C17.0684 52.0247 17.1942 51.8904 17.3514 51.7896C17.8861 51.4201 18.4208 51.0505 18.924 50.681C19.0183 50.6138 18.924 50.4458 18.7982 50.513C18.2635 50.8826 17.7288 51.2185 17.1942 51.588C16.9426 51.756 16.6909 51.9576 16.4393 52.1255H16.3764C15.8732 52.1927 15.37 52.2935 14.8982 52.3607C14.5837 52.4279 14.2377 52.4951 13.9232 52.5959C14.049 52.4951 14.1748 52.3607 14.3321 52.2599C14.7409 51.924 15.1813 51.6552 15.5901 51.3193C15.7159 51.2185 15.5901 51.0505 15.4643 51.1177C15.024 51.4201 14.5837 51.6888 14.1748 52.0248C13.8918 52.2599 13.6087 52.4951 13.3256 52.7638C12.8853 52.8982 12.445 53.0662 12.0361 53.2341C11.5958 53.4021 11.1869 53.6373 10.7781 53.8724L10.8724 53.738C10.8724 53.738 10.9353 53.738 10.9353 53.6709C11.3442 53.1669 11.7531 52.6966 12.1619 52.2263C12.6022 51.756 13.074 51.3193 13.5772 50.9162C14.5522 50.1099 15.5587 49.3036 16.6595 48.7661C17.0055 48.5982 17.32 48.4638 17.6659 48.3294C17.7603 48.3294 17.8232 48.2622 17.9175 48.2286C17.9804 48.2286 18.0434 48.1615 18.1063 48.1615C18.1377 48.1615 18.2006 48.1615 18.2321 48.1615C17.8861 48.8333 17.32 49.3708 16.7853 49.8747C16.5337 50.1099 16.8167 50.5466 17.0998 50.3115C17.9176 49.6732 18.7038 49.0685 19.553 48.531C19.9619 48.2958 20.3708 48.0943 20.8111 47.9263C20.9054 47.8927 21.0312 47.8591 21.1256 47.8255C21.2514 47.7919 21.3772 47.7247 21.503 47.6911C21.5659 47.6911 21.6288 47.6911 21.6917 47.6911C21.2514 48.2622 20.6853 48.6654 20.1821 49.1693C20.0877 49.2701 20.0248 49.438 20.1192 49.5724C20.1821 49.6732 20.3393 49.774 20.4651 49.7068C21.1571 49.3036 21.849 48.8333 22.5724 48.4638C22.9184 48.2958 23.2643 48.0943 23.6417 47.9935C23.7361 47.9935 23.799 47.9599 23.8933 47.9263C23.9877 47.9263 24.0506 47.8591 24.145 47.8255C24.2079 47.8255 24.2708 47.8255 24.3651 47.8255C24.2708 47.9599 24.1135 48.0943 23.9877 48.195C23.799 48.3294 23.6103 48.4302 23.453 48.5646C23.2958 48.6318 23.17 48.7326 23.0127 48.8333C22.7611 49.0349 23.0127 49.5388 23.2958 49.3708C23.4216 49.3036 23.5474 49.2029 23.7046 49.1357L23.8304 49.0685C24.0191 49.0013 24.2079 48.9005 24.3966 48.8333C24.774 48.6654 25.1514 48.531 25.5603 48.3966C25.9377 48.2622 26.3151 48.1951 26.724 48.1279C26.9127 48.1279 27.1329 48.0943 27.3216 48.0271C27.3845 48.0271 27.4788 48.0271 27.5417 48.0271C27.4788 48.1279 27.3845 48.2286 27.3216 48.3294C27.1329 48.531 26.9127 48.6318 26.724 48.8333C26.5667 49.0349 26.724 49.4044 27.0071 49.3372C28.045 49.0349 29.1143 48.4638 30.2151 48.5646L30.0893 48.6654C29.9006 48.7997 29.6804 48.9677 29.649 49.2701C29.649 49.438 29.7433 49.606 29.9006 49.6396C30.4353 49.7068 30.9699 49.5724 31.4732 49.4716C32.0078 49.3708 32.5425 49.3036 33.0772 49.2365C34.178 49.0685 35.2473 48.699 36.2538 48.195C36.5054 48.0607 36.757 47.9263 36.9772 47.7583C36.9457 47.8255 36.8828 47.8591 36.8514 47.8927L36.7885 47.7919Z" fill="#CC997E" fill-opacity="0.6"/>
</svg>
