<svg width="156" height="333" viewBox="0 0 156 333" fill="none" xmlns="http://www.w3.org/2000/svg">
<path d="M6.66669 98.7766C7.91663 99.7184 9.27074 100.562 10.7042 101.222C9.43938 101.39 8.18448 101.631 6.95933 101.957C5.11914 102.45 3.1599 103.17 1.79587 104.541C0.412005 105.931 -0.247687 108.421 0.937775 110.147C2.0786 111.799 4.26104 111.646 5.98219 111.177C8.29856 110.551 10.5256 109.442 12.6337 108.317C13.9084 107.642 15.1584 106.912 16.3835 106.153C17.2069 105.64 18.1989 105.172 18.8784 104.447C21.9537 106.804 25.1678 109.003 28.0447 111.601C31.0356 114.308 33.6943 117.454 36.1297 120.649C38.6395 123.943 41.2187 127.182 43.669 130.52C44.8693 132.157 46.1242 133.804 47.1063 135.584C48.0686 137.325 48.9713 139.1 49.9386 140.84C51.0248 142.803 52.0813 144.8 53.0783 146.806C54.1001 148.867 54.5366 151.14 55.5336 153.211C55.5336 153.221 55.5435 153.226 55.5484 153.231C55.6476 153.522 55.7468 153.813 55.846 154.099C58.5791 162.131 61.8924 170.025 63.7971 178.304C64.7246 182.332 65.4091 186.41 65.9994 190.497C66.6094 194.708 67.2344 198.934 67.3981 203.194C67.7304 211.788 66.545 220.382 65.1809 228.843C64.5064 233.029 63.5342 237.102 62.1057 241.101C60.7169 245.001 59.0751 248.802 57.597 252.668C54.5415 260.651 51.2976 268.535 48.0537 276.444C45.2513 283.283 42.7663 290.191 40.6731 297.256C41.0005 293.677 41.1592 290.087 40.9261 286.468C40.6483 282.124 39.944 277.81 39.0611 273.55C38.203 269.413 36.834 265.429 35.8568 261.321C34.8599 257.14 34.0117 252.924 33.1238 248.719C32.236 244.532 31.5713 240.336 31.2043 236.071C30.4801 227.596 30.4454 218.962 31.606 210.526C32.1715 206.413 32.8907 202.331 34.0762 198.347C35.2368 194.461 36.7199 190.675 38.2823 186.932C38.5403 186.316 38.7932 185.695 39.0462 185.078C40.3457 185.788 41.8982 186.005 43.3813 185.892C45.3753 185.739 47.2998 185.162 49.14 184.398C51.0248 183.619 53.2271 182.638 54.1447 180.69C54.7499 179.408 54.5465 178.018 53.4949 177.022C52.5922 176.164 51.3175 175.883 50.0973 175.947C48.0339 176.05 46.0994 176.908 44.2692 177.83C44.4973 177.451 44.7255 177.076 44.9487 176.701C46.2532 174.556 47.2899 172.313 47.8801 169.867C48.4307 167.599 48.7035 165.237 48.3662 162.92C48.0636 160.849 47.0319 158.61 45.0132 157.708C43.0887 156.845 40.8864 157.333 39.2297 158.556C37.4143 159.902 36.2785 161.889 35.5344 163.985C34.3391 167.348 34.1109 171.12 34.4432 174.724C33.4661 173.383 32.36 172.145 31.0704 171.07C30.2718 170.405 29.4137 169.808 28.5605 169.221C27.8017 168.704 26.884 168.107 25.9267 168.122C23.4715 168.166 22.8515 171.41 23.3872 173.264C23.9774 175.306 25.644 176.854 27.2461 178.151C29.245 179.768 31.4572 181.055 33.7439 182.223C34.5474 182.633 35.3956 182.983 36.2239 183.367C36.2289 183.382 36.2388 183.397 36.2487 183.417C36.4273 183.806 36.834 184.013 37.2556 184.053C35.584 187.529 34.0315 191.059 32.7221 194.688C31.3283 198.559 30.3313 202.513 29.6567 206.561C28.2381 215.091 27.8265 223.705 28.2778 232.344C28.3225 233.217 28.382 234.094 28.4465 234.967C27.3156 231.614 26.1995 228.251 24.8752 224.968C23.5707 221.728 22.1719 218.503 20.4012 215.486C18.6106 212.434 16.3835 209.633 13.9729 207.049C11.2647 204.15 8.35808 201.453 5.43162 198.781C4.38008 197.819 2.87221 199.303 3.85927 200.344C8.59616 205.353 13.9084 209.993 17.6037 215.865C21.3287 221.792 23.5856 228.488 25.9763 235.016C27.39 238.877 28.3572 242.891 29.875 246.717C29.9345 246.86 30.0139 246.993 30.1081 247.106C30.8273 250.79 31.6705 254.453 32.5038 258.107C32.985 260.207 33.4661 262.313 34.0514 264.388C34.6119 266.375 35.2815 268.333 35.8271 270.325C36.9679 274.491 37.7863 278.816 38.3071 283.1C38.8329 287.434 38.947 291.808 38.5899 296.162C38.2377 300.461 37.6127 304.736 37.0721 309.016C36.9382 310.096 36.8042 311.181 36.6852 312.26C36.6604 312.492 36.7447 312.709 36.8886 312.887C36.1495 317.068 35.6634 321.288 35.5444 325.553C35.4848 327.659 35.5047 329.759 35.594 331.865C35.6535 333.374 38.0195 333.383 37.9649 331.865C37.33 314.834 42.2802 298.03 48.5051 282.311C51.625 274.432 55.0822 266.686 58.1426 258.782C59.4867 255.311 60.821 251.84 62.19 248.378C62.2297 248.334 62.2644 248.29 62.2991 248.235C63.6582 245.977 64.9677 243.689 66.4309 241.49C67.8693 239.326 69.4813 237.284 71.1529 235.292C72.8393 233.281 74.5754 231.318 76.2667 229.311C77.9135 227.359 79.5057 225.362 81.1376 223.395C84.3765 219.504 87.6948 215.673 91.2214 212.039C94.6786 208.474 98.2945 204.855 102.476 202.134C103.265 201.621 104.053 201.108 104.842 200.6C104.867 200.738 104.887 200.871 104.916 201.009C105.144 202 105.591 202.947 105.993 203.879C106.717 205.575 107.54 207.247 108.621 208.751C110.963 212.024 114.519 214.411 118.279 215.821C119.216 216.171 120.347 216.462 121.354 216.433C121.895 216.418 122.48 216.225 123.006 216.117C123.695 215.974 124.127 215.708 124.419 215.062C124.891 214.031 124.886 212.956 124.4 211.931C124.211 211.527 123.894 211.206 123.675 210.826C123.393 210.338 123.164 209.806 122.902 209.303C121.215 206.044 119.474 202.498 116.553 200.142C115.938 199.644 115.283 199.19 114.593 198.805C115.828 198.44 117.049 198.021 118.234 197.538C121.721 196.113 124.995 194.047 127.133 190.882C128.908 188.254 129.826 184.669 128.189 181.76C127.286 180.153 125.719 178.89 123.849 178.688C122.039 178.486 120.233 179.245 118.661 180.054C116.85 180.991 115.05 182.021 113.398 183.21C111.85 184.324 110.571 185.675 109.45 187.208C108.969 187.864 108.532 188.554 108.125 189.255C108.011 186.77 107.768 184.275 106.677 182.066C105.963 180.616 104.718 178.954 103.136 178.402C100.809 177.584 99.2766 179.975 98.9542 181.947C98.6021 184.112 99.0534 186.336 99.7627 188.387C100.596 190.808 101.588 193.194 102.699 195.502C103.051 196.236 103.443 197.163 103.939 198.021C103.21 198.49 102.491 198.973 101.767 199.441C99.971 200.605 98.2747 201.853 96.6627 203.258C90.3534 208.746 84.8031 215.022 79.5007 221.457C76.8124 224.721 74.1686 228.015 71.4406 231.249C69.5111 233.537 67.6163 235.85 65.8704 238.275C66.1978 237.186 66.4954 236.086 66.7483 234.977C67.6858 230.899 68.2413 226.733 68.8117 222.591C69.3871 218.395 69.8732 214.189 70.0666 209.954C70.1113 208.953 70.1311 207.957 70.1311 206.961C70.389 206.847 70.5775 206.611 70.5478 206.246C70.2402 202.533 69.9922 198.815 69.7839 195.093C69.9922 194.954 70.1212 194.708 70.0319 194.387C69.903 193.929 69.7889 193.46 69.6748 192.997C69.6549 192.637 69.6351 192.282 69.6202 191.922C69.65 191.69 69.6797 191.454 69.7194 191.222C69.7641 190.97 69.6897 190.758 69.5557 190.601C69.4913 189.205 69.4367 187.805 69.3821 186.405C69.3921 185.167 69.4169 183.929 69.4615 182.692C69.6252 182.426 69.6698 182.1 69.4962 181.785C69.6252 179.083 69.898 176.386 70.4882 173.738C71.0388 171.258 71.8919 168.861 72.7401 166.475C73.5982 164.049 74.5158 161.643 75.493 159.266C77.3381 154.769 79.59 150.475 81.7377 146.116C82.9678 143.621 84.1583 141.072 85.1304 138.454C87.2583 135.387 89.5449 132.433 92.0002 129.618C95.135 126.019 98.7806 122.981 102.654 120.195C106.543 117.395 110.472 114.579 114.712 112.336C119.097 110.014 123.71 108.135 128.01 105.65C128.085 106.025 128.189 106.395 128.328 106.759C128.928 108.367 129.811 109.841 130.833 111.212C131.805 112.513 132.856 113.825 134.017 114.964C135.173 116.098 136.547 116.936 137.931 117.765C138.62 118.179 139.394 118.499 140.178 118.692C141.006 118.889 142.216 119.14 143.015 118.741C145.465 117.508 144.805 114.239 143.957 112.223C143.412 110.926 142.692 109.767 141.656 108.791C141.423 108.574 141.18 108.372 140.932 108.174C141.968 108.214 143.01 108.184 144.046 108.061C147.91 107.598 152.002 106.035 154.438 102.874C155.475 101.528 156.328 99.5803 155.876 97.8546C155.385 95.9661 153.416 95.2413 151.65 95.0934C149.731 94.9307 147.717 95.3794 145.877 95.902C143.888 96.4641 141.998 97.2678 140.197 98.2786C137.96 99.5359 135.808 100.917 133.516 102.075C133.253 102.208 132.985 102.337 132.718 102.47C134.751 100.631 136.715 98.7125 138.243 96.4247C139.25 94.9159 139.979 93.2049 140.738 91.563C141.492 89.9359 141.8 88.1658 141.12 86.4548C140.951 86.0308 140.758 85.6018 140.5 85.2271C140.163 84.7439 139.701 84.5762 139.141 84.4776C138.332 84.3346 137.519 84.3692 136.75 84.6699C135.917 84.9954 135.337 85.5476 134.687 86.1393C134.092 86.6816 133.526 87.2388 133.02 87.865C130.877 90.5177 129.583 93.8016 128.938 97.1199C128.626 98.7273 128.536 100.423 128.254 101.967C128.174 102.396 128.095 102.82 128.02 103.249C123.695 105.502 119.196 107.4 114.846 109.609C110.472 111.828 106.494 114.634 102.511 117.479C98.5624 120.299 94.6886 123.312 91.4546 126.941C90.6758 127.818 89.912 128.711 89.1729 129.623C90.3584 125.24 92.0002 120.994 93.8255 116.833C95.9732 111.946 98.3937 107.183 101.196 102.632C104.098 97.9187 107.476 93.5156 110.789 89.0829C114.152 84.5861 117.579 80.1189 121.359 75.9574C124.752 72.2249 128.392 68.729 132.117 65.3318C132.117 65.3417 132.122 65.3515 132.127 65.3614C132.48 66.3179 133.372 66.9047 134.24 67.3583C136.11 68.3247 138.065 69.0249 140.197 69.0742C143.397 69.1481 147.791 68.2409 149.508 65.2282C150.371 63.7096 150.465 61.5993 149.091 60.3321C147.732 59.0797 145.733 59.0994 144.022 59.3706C143.084 59.5185 142.167 59.7798 141.274 60.0954C142.405 59.2523 143.496 58.345 144.379 57.2504C146.219 54.9774 148.516 51.0969 146.447 48.2963C145.187 46.5903 143.079 45.9838 141.105 46.7776C139.205 47.537 137.717 48.9816 136.527 50.6038C135.823 51.5604 135.232 52.581 134.726 53.6411C134.637 52.9509 134.518 52.2655 134.364 51.5801C133.799 49.1098 133.075 46.2698 130.704 44.9237C130.203 44.6377 129.632 44.7511 129.216 45.116C126.904 47.1179 126.855 50.4115 127.341 53.1875C127.812 55.86 128.799 58.5718 130.084 60.9681C130.51 61.762 131.011 62.546 131.607 63.2363C127.946 66.3327 124.39 69.5722 121.081 73.0385C117.148 77.1605 113.611 81.6326 110.179 86.1689C106.766 90.6755 103.279 95.1821 100.224 99.9353C97.3224 104.452 94.8423 109.22 92.6549 114.111C90.6163 118.672 88.7364 123.322 87.3923 128.129C87.5411 124.791 87.1194 121.448 86.1473 118.218C85.3784 115.659 84.5551 113.115 83.821 110.541C83.1117 108.061 82.4123 105.581 81.5889 103.13C80.5027 99.9008 79.2478 96.7156 77.7845 93.6339C78.0772 91.5088 78.3599 89.3837 78.6426 87.2585C79.1585 83.3929 79.6694 79.5026 79.9868 75.6024C81.8667 69.3799 84.3219 63.3299 86.9409 57.3835C89.9417 50.5693 93.4386 44.046 97.1537 37.5918C99.0187 34.3572 100.973 31.1868 102.947 28.0213C103.374 27.336 103.78 26.6407 104.217 25.9652C104.718 25.1911 105.273 24.5945 105.918 23.9387C106.087 23.7661 106.231 23.5837 106.365 23.3963C106.548 23.3125 106.727 23.2287 106.91 23.1399C107.848 23.6823 108.984 23.7711 110.05 23.8253C111.345 23.8943 112.649 23.919 113.944 23.8648C116.255 23.7661 118.596 23.4309 120.749 22.5631C122.44 21.8826 124.404 20.9162 125.064 19.0869C125.396 18.155 125.223 17.0949 124.687 16.2715C124.018 15.2558 122.852 14.8515 121.671 14.9057C120.263 14.9747 118.824 15.3248 117.465 15.6601C115.952 16.0299 114.464 16.4983 113.011 17.0653C113.517 16.5871 114.018 16.0989 114.494 15.5911C115.873 14.1217 117.168 12.5735 118.472 11.0351C120.927 8.13588 123.358 4.46746 121.295 0.670833C121.071 0.261586 120.585 -0.00960108 120.119 0.000260287C117.946 0.0495671 116.181 1.4844 114.841 3.06714C113.403 4.7633 112.193 6.67147 111.017 8.54513C110.283 9.71863 109.574 10.9168 108.904 12.1297C108.974 10.9809 108.989 9.83204 108.924 8.6684C108.82 6.93773 108.567 5.13803 107.748 3.5898C107.545 3.20027 107.357 2.71214 107.044 2.4015C106.776 2.13525 106.384 2.00705 106.017 1.94295C105.546 1.85913 105.08 1.90843 104.658 2.14018C104.306 2.33247 104.038 2.7713 103.885 2.9636C103.364 3.62431 102.962 4.15189 102.674 4.9556C102.421 5.65575 102.292 6.39535 102.173 7.1251C101.886 8.91 101.891 10.7146 102.025 12.5193C102.178 14.5507 102.679 16.4786 103.16 18.4509C103.369 19.3088 103.542 20.147 103.592 20.8176C103.637 21.4684 103.721 22.07 103.979 22.6222C103.845 22.7603 103.706 22.8983 103.582 23.0364C103.116 23.564 102.724 24.1458 102.357 24.7424C100.958 27.0056 99.5693 29.2885 98.2102 31.5763C95.4127 36.2851 92.6896 41.058 90.1848 45.9246C87.7097 50.732 85.5074 55.6726 83.4341 60.6624C82.3478 63.2757 81.3062 65.9136 80.334 68.5762C80.3588 66.7222 80.3588 64.8732 80.4481 63.0193C80.5721 60.3814 80.8251 57.7435 80.8152 55.1006C80.7953 49.6769 79.8182 44.3123 78.8857 38.9872C78.8559 38.8047 78.8212 38.6223 78.7914 38.4448C78.8311 38.3659 78.8609 38.2821 78.8609 38.1835V34.6432C78.8609 34.3375 78.593 34.0466 78.2756 34.0614C78.1863 34.0614 78.1069 34.091 78.0325 34.1255C77.4175 30.7579 76.6884 27.4247 75.4682 24.2C75.1358 23.3175 74.7787 22.4497 74.4117 21.5819C74.4315 21.5621 74.4563 21.5424 74.4762 21.5227C75.3343 20.7486 76.1874 19.9695 77.1298 19.2891C78.0921 18.5939 79.0246 17.8543 79.9025 17.0555C81.579 15.5368 83.0373 13.821 84.4757 12.0804C85.2445 11.1485 85.9389 10.1624 86.5143 9.1023C87.0103 8.18519 87.6998 7.11523 87.6651 6.04035C87.6353 4.93587 86.6879 3.45174 85.4479 3.56021C84.5253 3.64403 83.573 4.05328 82.7397 4.43294C81.1772 5.14789 79.7934 6.26223 78.6327 7.51955C77.1645 9.11216 75.9939 10.9267 74.9722 12.8299C74.8978 11.8733 74.7539 10.9267 74.5357 9.98982C74.1686 8.4268 73.6081 6.84405 72.7401 5.47825C71.8423 4.06314 70.4436 2.55435 68.648 2.47053C66.783 2.38178 65.4438 3.96946 64.5361 5.38456C63.3804 7.19413 63.1423 9.23543 63.559 11.3112C63.9409 13.2194 64.7593 15.167 65.6621 16.8878C66.3763 18.2438 67.2791 19.4962 68.2612 20.6795C68.2463 20.6795 68.2314 20.6697 68.2116 20.6647C67.1799 20.3788 66.1382 20.1421 65.0867 19.9498C63.5838 19.6737 62.0561 19.4124 60.5383 19.2891C59.0056 19.1658 57.3936 19.2398 55.9849 19.9202C54.2786 20.7486 53.2569 22.6765 54.1001 24.4712C54.9383 26.2463 57.0513 27.05 58.8816 27.2669C60.7665 27.4888 62.7009 27.1338 64.5312 26.6999C66.5202 26.2266 68.5092 25.7138 70.4535 25.0777C71.1529 24.8509 72.011 24.6537 72.6012 24.1754C73.2113 25.7236 73.7669 27.2867 74.2182 28.8891C74.9226 31.3939 75.2698 33.9727 75.736 36.5267C76.6933 41.7927 77.7101 47.0932 78.0177 52.443C78.1714 55.0957 78.0524 57.7385 77.8837 60.3913C77.7101 63.0982 77.6655 65.8002 77.6209 68.5121C77.5365 73.8915 76.9909 79.2511 76.361 84.591C76.1626 86.2773 75.9493 87.9636 75.736 89.6499C75.6666 89.5266 75.6021 89.3985 75.5277 89.2703C74.248 87.012 72.8294 84.8326 71.4902 82.6089C70.1857 80.4493 68.9705 78.2502 67.5419 76.1645C66.0936 74.0492 64.5262 71.9931 62.8249 70.0653C61.2277 68.2508 59.4471 66.6138 57.8202 64.8289C54.5515 61.259 52.2252 56.9151 50.1618 52.5761C49.8245 51.8661 49.4922 51.1561 49.1598 50.451C49.1598 50.451 49.1598 50.451 49.1648 50.451C52.8551 47.5863 57.2051 44.9089 59.3727 40.5946C60.3002 38.7406 60.8161 35.94 58.9312 34.4608C57.3936 33.2528 55.2657 34.0269 53.8422 35.0328C51.4167 36.7486 49.7501 39.3767 48.5398 42.1576C48.4952 41.8026 48.4456 41.4476 48.3861 41.0926C47.7115 37.0543 45.7969 33.1295 42.3893 30.7036C40.7425 29.535 38.4212 28.539 36.4818 29.6189C34.5226 30.7135 33.9075 33.3366 33.9423 35.4026C33.9819 37.8975 35.093 40.1755 36.5215 42.1674C37.2903 43.2423 38.1385 44.2581 38.952 45.2984C39.7555 46.3289 40.5293 47.394 41.4469 48.3308C41.551 48.4393 41.6651 48.5379 41.7792 48.6414C41.2187 48.5576 40.6582 48.4886 40.0878 48.4689C38.7436 48.4245 37.3846 48.5773 36.0701 48.8732C34.5077 49.2183 32.8709 49.7311 31.5267 50.6137C29.9395 51.659 28.7986 53.37 29.4335 55.3176C30.1329 57.4526 32.1616 58.2119 34.2696 57.9752C36.4322 57.7336 38.5353 56.925 40.5392 56.1311C41.933 55.5789 43.3069 54.9774 44.6511 54.3167C45.4249 53.9419 46.4219 53.6165 47.0171 52.9706C47.1907 52.7832 47.3296 52.5712 47.4536 52.3444C48.8969 55.9191 50.5288 59.4347 52.6914 62.6396C51.8581 62.4967 50.9802 62.5805 50.1965 62.8566C47.652 63.754 45.8961 66.0813 44.9685 68.517C44.3684 70.0948 44.1105 71.8058 44.0807 73.5118C43.5748 72.8018 42.9895 72.1509 42.3199 71.579C40.6285 70.1244 37.0969 67.3978 34.9244 69.4341C32.3401 71.86 36.1693 75.1784 37.9203 76.7315C39.4777 78.1121 41.1344 79.3251 42.801 80.5725C43.1234 80.8141 43.4508 81.1297 43.8029 81.4157C43.8029 81.603 43.8079 81.7904 43.8128 81.9778C43.8128 82.5399 44.1353 82.8949 44.537 83.0527C42.7216 90.1874 42.8059 97.6376 43.4508 104.945C44.1898 113.347 45.8316 121.63 48.0636 129.766C48.6837 132.029 49.3483 134.287 50.0427 136.531C49.9286 136.299 49.8096 136.072 49.6955 135.841C48.7977 133.982 47.7016 132.286 46.5211 130.594C44.1055 127.138 41.4915 123.829 38.9321 120.481C36.4173 117.188 33.7339 113.958 30.7232 111.093C27.5685 108.091 23.9427 105.64 20.4706 103.027C21.17 102.282 21.5718 101.217 22.0083 100.34C22.6928 98.9788 23.3772 97.6228 24.027 96.2472C25.019 94.1467 26.0557 91.9673 26.5864 89.6894C27.1172 87.4065 27.0924 84.9214 25.4605 83.0773C24.7066 82.2243 23.6005 81.6228 22.4348 81.7214C21.3585 81.8101 20.431 82.3969 19.6869 83.1463C18.1543 84.6897 17.2218 86.8197 16.6563 88.8807C16.4827 89.5119 16.3438 90.1528 16.2297 90.7988C15.823 89.9162 15.3766 89.0582 14.8756 88.22C13.6406 86.1541 12.1079 84.241 10.1388 82.8259C8.37792 81.5587 5.93755 80.6465 3.76503 81.248C1.68675 81.82 0.466566 83.738 0.1392 85.7645C-0.277448 88.3236 0.258242 90.9171 1.51811 93.1754C2.76805 95.4188 4.64297 97.2382 6.68157 98.7766H6.66669ZM31.6805 178.136C29.8155 177.022 27.757 175.666 26.4475 173.9C25.9466 173.225 25.5101 172.377 25.649 171.514C25.7035 171.179 25.9168 170.883 25.9863 170.646C26.0061 170.651 26.0309 170.656 26.0507 170.666C26.0954 170.691 26.145 170.705 26.269 170.779C29.8403 172.87 32.3997 176.031 34.349 179.59C33.4462 179.127 32.5485 178.654 31.6805 178.131V178.136ZM45.8514 180.044C46.7542 179.595 47.6768 179.191 48.6539 178.915C49.507 178.673 50.5983 178.427 51.3968 178.802C51.496 178.846 51.744 179.088 51.7887 179.25C51.7639 179.25 51.7242 179.497 51.7192 179.502C51.6647 179.615 51.5109 179.842 51.4316 179.936C50.8463 180.621 50.0328 181.055 49.2194 181.444C48.4456 181.814 47.9496 182.016 47.0716 182.322C46.1887 182.633 45.281 182.894 44.3585 183.072C43.5648 183.224 42.7167 183.293 41.8139 183.2C41.7941 183.2 41.5659 183.165 41.3626 183.116C41.2286 183.086 41.0947 183.042 40.9608 183.003C41.1146 182.86 41.2882 182.717 41.437 182.598C41.8933 182.243 42.3843 181.928 42.8853 181.627C43.8426 181.05 44.8445 180.542 45.8465 180.049L45.8514 180.044ZM37.0671 170.893C37.1415 168.822 37.4342 166.756 38.1187 164.794C38.7039 163.117 39.7059 161.381 41.1642 160.519C41.8486 160.114 42.4042 159.947 43.1234 159.971C43.1432 159.971 43.2127 159.976 43.2424 159.981C43.3069 159.991 43.3664 160.006 43.4309 160.021C43.4706 160.03 43.8277 160.154 43.793 160.134C44.1997 160.321 44.3932 160.474 44.6957 160.854C45.8217 162.249 45.8762 164.394 45.7374 166.189C45.5836 168.186 45.0926 170.262 44.3138 172.106C43.3367 174.418 41.8486 176.484 40.5392 178.609C40.0729 179.369 39.572 180.079 38.9966 180.744C38.8776 180.769 38.7585 180.803 38.6494 180.853C38.0095 179.66 37.6722 178.225 37.454 177.012C37.0919 175.005 36.9927 172.924 37.0622 170.893H37.0671ZM108.393 194.831C109.063 193.086 109.946 191.399 110.918 189.856C111.612 188.757 112.391 187.726 113.314 186.804C114.311 185.803 115.466 185.029 116.672 184.294C117.887 183.555 119.132 182.825 120.412 182.199C121.404 181.716 122.564 181.237 123.67 181.375C124.533 181.484 125.347 182.302 125.788 183.062C126.265 183.88 126.379 184.679 126.299 185.69C126.145 187.667 124.831 189.733 123.348 191.212C121.25 193.298 118.537 194.629 115.754 195.591C114.251 196.108 112.723 196.552 111.171 196.902C110.129 197.139 109.088 197.361 108.056 197.627C108.378 196.774 108.428 195.788 108.393 194.836V194.831ZM107.684 200.536C107.882 200.477 108.081 200.413 108.279 200.359C108.393 200.339 108.507 200.319 108.621 200.309C109.222 200.235 109.832 200.211 110.437 200.245C111.474 200.309 112.446 200.679 113.334 201.192C115.114 202.217 116.493 203.736 117.609 205.437C118.933 207.454 120.035 209.633 121.116 211.788C121.27 212.098 121.409 212.399 121.632 212.67C121.771 212.838 121.924 213.006 122.009 213.213C122.058 213.341 122.068 213.459 122.058 213.578C121.652 213.671 121.24 213.75 120.838 213.701C120.124 213.617 119.38 213.41 118.725 213.109C117.366 212.488 116.022 211.803 114.772 210.979C112.461 209.451 110.769 207.429 109.489 204.993C108.879 203.83 108.339 202.617 107.868 201.389C107.768 201.138 107.694 200.886 107.629 200.63C107.649 200.6 107.664 200.571 107.684 200.541V200.536ZM102.079 186.794C101.638 185.3 101.266 183.584 101.677 182.061C101.762 181.74 101.861 181.474 102.039 181.193C102.099 181.099 102.168 181.025 102.248 180.937C102.248 180.941 102.248 180.937 102.253 180.937C102.287 180.951 102.322 180.971 102.357 180.991C102.392 181.015 102.58 181.144 102.605 181.153C102.739 181.262 102.863 181.385 102.987 181.508C103.81 182.357 104.435 183.451 104.763 184.664C105.184 186.207 105.303 187.81 105.387 189.403C105.457 190.744 105.507 192.08 105.611 193.421C105.635 193.766 105.66 194.111 105.675 194.456C105.606 194.644 105.536 194.836 105.467 195.028C105.001 194.101 104.559 193.165 104.142 192.213C103.374 190.453 102.63 188.643 102.084 186.799L102.079 186.794ZM134.895 104.412C136.74 103.48 138.511 102.425 140.287 101.37C143.233 99.6099 146.457 98.1553 149.924 97.8299C150.306 97.7954 150.688 97.7757 151.07 97.7757C151.417 97.7757 151.794 97.8102 151.993 97.8546C152.315 97.9236 152.682 98.037 152.87 98.1455C152.915 98.1701 153.069 98.2835 153.084 98.2835C153.114 98.3131 153.148 98.3427 153.178 98.3772C153.188 98.392 153.193 98.4019 153.203 98.4216C153.223 98.4561 153.233 98.4709 153.242 98.4758C153.242 98.4956 153.242 98.5251 153.257 98.5794C153.257 98.5991 153.262 98.6139 153.262 98.6188C153.262 98.6484 153.262 98.6731 153.262 98.6977C153.262 98.7421 153.252 98.9936 153.262 99.0034C153.238 99.1809 153.193 99.3584 153.148 99.531C152.98 100.157 152.702 100.7 152.305 101.232C150.46 103.692 147.072 104.95 144.106 105.344C141.8 105.655 139.439 105.458 137.167 105.004C136.358 104.841 135.55 104.654 134.741 104.491C134.796 104.462 134.85 104.442 134.905 104.412H134.895ZM135.833 108.52C137.306 109.018 138.744 109.733 139.86 110.827C140.307 111.266 140.688 111.739 140.991 112.287C141.125 112.528 141.244 112.775 141.363 113.026C141.388 113.081 141.398 113.1 141.403 113.11C141.408 113.125 141.418 113.145 141.432 113.189C141.502 113.362 141.566 113.534 141.626 113.707C141.894 114.486 142.023 114.954 142.008 115.63C142.008 115.694 142.003 115.753 141.998 115.817C141.998 115.837 141.998 115.842 141.998 115.852C141.998 115.861 141.998 115.866 141.993 115.881C141.978 115.935 141.919 116.123 141.909 116.172C141.904 116.182 141.899 116.192 141.894 116.202C141.894 116.202 141.874 116.236 141.869 116.241C141.795 116.315 141.849 116.241 141.879 116.202C140.778 116.133 139.82 115.763 138.873 115.146C137.812 114.456 136.78 113.884 135.872 112.977C134.285 111.394 132.772 109.55 131.676 107.563C131.8 107.583 131.924 107.603 132.038 107.617C133.333 107.815 134.583 108.101 135.828 108.52H135.833ZM131.269 99.6888C131.621 97.0213 132.281 94.3538 133.576 91.9723C134.27 90.6952 135.049 89.5316 136.1 88.5208C136.547 88.0918 137.018 87.5248 137.574 87.2487C137.866 87.1008 138.139 87.0712 138.432 87.1057C138.933 88.1904 138.838 89.2604 138.288 90.4092C137.539 91.9772 136.859 93.6093 135.892 95.0589C134.602 96.9917 132.926 98.6385 131.195 100.202C131.215 100.029 131.24 99.8614 131.259 99.6888H131.269ZM141.447 62.8763C142.876 62.3438 144.384 61.8557 145.882 61.8951C146.383 61.9099 146.973 62.0332 147.241 62.2797C147.266 62.3044 147.28 62.3142 147.29 62.3191C147.32 62.3635 147.35 62.4128 147.375 62.4572C147.375 62.4769 147.439 62.6446 147.449 62.6889C147.449 62.6988 147.454 62.7284 147.459 62.753C147.459 62.8171 147.464 62.8862 147.459 62.9503C147.439 63.2116 147.474 63.0341 147.424 63.2313C147.275 63.8181 147.008 64.2125 146.512 64.6514C146.125 64.9965 145.435 65.3712 144.914 65.5734C143.496 66.1207 142.097 66.3475 140.629 66.3722C139.012 66.4018 137.524 65.9383 136.095 65.2529C136.701 65.1148 137.276 64.8535 137.822 64.5774C139.096 63.9315 140.188 63.3447 141.447 62.8763ZM135.093 60.8745C135.535 59.0402 136.105 57.2307 136.884 55.5099C137.574 53.9912 138.377 52.4676 139.508 51.2251C140.073 50.6088 140.698 50.0516 141.423 49.6276C141.988 49.2972 142.658 49.0359 143.183 49.1345C143.684 49.2282 144.175 49.6621 144.399 50.1206C144.384 50.1058 144.473 50.3672 144.488 50.4214C144.503 50.4756 144.513 50.5299 144.523 50.5841C144.523 50.6088 144.523 50.6433 144.523 50.6926C144.523 50.8405 144.523 50.9835 144.513 51.1314C144.503 51.2941 144.503 51.2695 144.448 51.521C144.151 52.8572 143.436 54.0257 142.608 55.1549C142.573 55.1992 142.544 55.2436 142.509 55.288C142.509 55.288 142.509 55.288 142.509 55.2929C142.405 55.4211 142.301 55.5493 142.191 55.6726C141.884 56.0227 141.552 56.358 141.209 56.6735C140.54 57.2898 139.811 57.8421 139.076 58.3795C138.318 58.9318 137.554 59.4741 136.81 60.0461C136.21 60.5047 135.659 61.0815 134.965 61.4119C135.014 61.2344 135.059 61.052 135.098 60.8794L135.093 60.8745ZM131.577 58.1478C131.304 57.5512 131.155 57.1912 130.892 56.4861C130.352 55.0513 129.895 53.5721 129.652 52.0584C129.449 50.7961 129.404 49.3071 129.89 48.1779C129.975 47.9857 130.079 47.8131 130.193 47.6454C130.57 48.0695 130.838 48.5823 131.031 49.1444C131.433 50.2981 131.76 51.5012 131.993 52.6994C132.44 54.9774 132.46 57.3046 132.316 59.6171C132.053 59.1389 131.805 58.6507 131.577 58.1527V58.1478ZM118.517 18.1748C119.077 18.0416 119.643 17.9233 120.213 17.8148C120.64 17.7359 121.21 17.6274 121.513 17.6077C121.691 17.5929 121.875 17.5831 122.058 17.5979C122.058 17.5979 122.267 17.6324 122.321 17.6422C122.287 17.6373 122.46 17.7704 122.351 17.6274C122.396 17.6866 122.44 17.7606 122.475 17.8345C122.475 17.8444 122.505 17.9233 122.52 17.9726C122.52 17.9825 122.525 17.9874 122.535 18.0071C122.535 18.012 122.535 18.0318 122.535 18.0515C122.535 18.0416 122.535 18.0318 122.53 18.012C122.53 18.0071 122.525 17.9923 122.52 17.9775C122.49 17.9184 122.53 18.0761 122.539 18.0712C122.539 18.0712 122.539 18.0761 122.539 18.0811C122.525 18.1057 122.48 18.2684 122.505 18.2389C122.455 18.3325 122.401 18.4262 122.341 18.51C122.361 18.4657 122.103 18.7566 122.058 18.796C122.029 18.8256 121.85 18.9637 121.825 18.9932C121.691 19.0919 121.552 19.1806 121.409 19.2694C121.096 19.4617 120.764 19.6342 120.431 19.792C120.392 19.8117 120.109 19.935 120.099 19.9449C119.985 19.9942 119.866 20.0385 119.752 20.0829C119.405 20.2161 119.053 20.3344 118.695 20.4429C117.679 20.7486 116.632 20.9507 115.58 21.0592C114.459 21.1726 113.334 21.2121 112.208 21.2022C111.692 21.2022 111.136 21.2022 110.596 21.1775C111.017 20.9458 111.444 20.719 111.875 20.4971C113.963 19.437 116.245 18.7171 118.522 18.1846L118.517 18.1748ZM112.634 11.0844C113.77 9.20091 114.951 7.31246 116.285 5.55714C116.825 4.84712 117.49 4.0878 118.219 3.50598C118.462 3.30875 118.874 3.04249 119.246 2.87978H119.256C119.896 5.38456 117.569 7.95345 115.962 9.80739C114.742 11.2176 113.552 12.6573 112.257 14.0034C111.538 14.7529 110.789 15.4727 109.985 16.1334C109.906 16.1975 109.832 16.2616 109.752 16.3257C110.64 14.5408 111.598 12.7904 112.629 11.0795L112.634 11.0844ZM104.772 7.22864C104.882 6.60244 105.015 5.89736 105.278 5.35498C105.363 5.18734 105.422 5.08872 105.502 4.99011C105.576 5.13803 105.64 5.28595 105.695 5.44373C105.908 6.06007 106.057 6.69613 106.161 7.33711C106.345 8.46624 106.365 9.62495 106.355 10.7689C106.335 12.9827 106.047 15.1079 105.606 17.2527C105.591 17.1985 105.576 17.1442 105.566 17.09C105.12 15.3495 104.728 13.6435 104.619 11.8438C104.519 10.3054 104.51 8.75715 104.777 7.22864H104.772ZM85.1503 6.1932C85.0957 6.43973 84.8279 6.89335 84.684 7.17933C84.2426 8.06686 83.7267 8.91986 83.1365 9.71863C81.9907 11.2767 80.6366 12.7559 79.2626 14.1168C78.102 15.2706 76.8272 16.2321 75.5525 17.2231C77.6556 12.6376 80.2943 7.65761 85.1503 6.1932ZM63.2614 24.274C61.4906 24.6734 59.3181 25.0974 57.592 24.3085C57.0365 24.0571 56.1883 23.5048 56.4412 22.923C56.5355 22.711 56.7488 22.5384 56.9224 22.4398C57.0017 22.3905 57.215 22.2771 57.2845 22.2426C57.3241 22.2278 57.4531 22.1834 57.468 22.1785C57.5821 22.1439 57.6912 22.1094 57.8053 22.0799C59.0999 21.7396 60.9053 21.9566 62.2148 22.1637C63.931 22.4349 65.7761 22.6419 67.4576 23.1991C66.0688 23.5985 64.6651 23.9584 63.2663 24.2789L63.2614 24.274ZM71.9614 17.662C71.7927 18.4854 71.5547 19.294 71.3364 20.1026C70.394 19.082 69.5061 18.017 68.7522 16.8533C67.5915 15.0635 66.6739 12.9729 66.1928 10.8971C65.7464 8.96917 66.2077 7.15961 67.5866 5.72971C68.1223 5.17748 68.3852 4.96053 69.0002 5.34512C69.521 5.67054 70.0468 6.29181 70.4287 6.90321C71.3265 8.3479 71.8175 10.0145 72.1152 11.7205C72.1945 12.1741 72.2044 12.2431 72.2491 12.6869C72.2987 13.1948 72.3136 13.6977 72.3136 14.2056C72.3086 15.3692 72.1995 16.523 71.9614 17.662ZM54.3233 37.9616C54.4969 37.789 54.6755 37.6263 54.859 37.4636C54.859 37.4636 54.9334 37.3995 54.9879 37.3551C55.0475 37.3107 55.1566 37.2269 55.1467 37.2368C55.4889 37.0001 55.846 36.7831 56.223 36.6155C56.2329 36.6155 56.5305 36.5021 56.6 36.4873C56.6793 36.4627 57.0216 36.4133 56.972 36.4084C57.0414 36.4084 57.1158 36.4084 57.1853 36.4084C57.1902 36.4084 57.1902 36.4084 57.1952 36.4084C57.2051 36.4084 57.2101 36.4084 57.22 36.4183C57.2349 36.4183 57.2646 36.4331 57.2894 36.438C57.3043 36.4479 57.3142 36.4528 57.3291 36.4626C57.3688 36.4972 57.4382 36.581 57.468 36.6402C57.5474 36.8078 57.6118 37.1086 57.6267 37.217C57.6763 37.6263 57.6069 38.0158 57.4779 38.4546C57.1853 39.4506 56.5752 40.3727 55.9353 41.1862C54.5366 42.9662 52.8105 44.475 50.9901 45.8162C50.4792 46.1958 49.9683 46.5705 49.4574 46.9502C50.4594 43.6467 51.878 40.3973 54.3282 37.9764L54.3233 37.9616ZM42.7861 52.2556C41.5758 52.8424 40.3457 53.3848 39.0908 53.868C38.0343 54.2772 36.958 54.6618 35.8717 54.9823C35.0434 55.2288 34.2647 55.4113 33.5802 55.4359C33.3818 55.4408 33.1834 55.4359 32.985 55.4211C32.9602 55.4211 32.9502 55.4211 32.9403 55.4211C32.9205 55.4211 32.9106 55.4162 32.8858 55.4113C32.8064 55.3915 32.7221 55.3767 32.6427 55.3521C32.5881 55.3373 32.5336 55.3176 32.4741 55.2979C32.4443 55.2831 32.3997 55.2633 32.3848 55.2584C32.3947 55.2584 32.2905 55.1943 32.2261 55.1549C32.1814 55.1105 32.0872 55.0217 32.0723 55.0168C31.9483 54.859 31.8193 54.504 31.7945 54.3314C31.8045 54.3413 31.8243 54.0603 31.8094 54.0405C31.8491 53.9222 31.9037 53.7693 31.8937 53.7693C31.9582 53.6707 32.0624 53.5129 32.0574 53.5031C32.1417 53.4045 32.231 53.3108 32.3253 53.222C32.3947 53.153 32.4691 53.0938 32.5485 53.0297C32.5584 53.0248 32.5584 53.0199 32.5633 53.0149C32.5782 53.0051 32.5981 52.9952 32.6229 52.9755C32.7965 52.8621 32.975 52.7487 33.1536 52.6451C33.8778 52.2408 34.3539 52.0732 35.2319 51.8119C37.2209 51.2251 39.3091 50.9441 41.3774 51.2251C42.2207 51.3385 43.0688 51.5357 43.922 51.6738C43.54 51.8661 43.1581 52.0584 42.7762 52.2408L42.7861 52.2556ZM45.9655 46.684C45.911 47.3841 45.8514 47.9117 45.7324 48.5428C45.3356 48.0695 44.7999 47.6947 44.2543 47.2608C43.2772 46.4818 42.4786 45.5006 41.7147 44.5194C40.2664 42.6605 38.6395 40.8657 37.5383 38.7702C36.5959 36.9804 36.2388 34.801 37.0274 32.878C37.0473 32.8386 37.0969 32.7301 37.1068 32.7055C37.1614 32.6069 37.211 32.5082 37.2705 32.4146C37.3002 32.3653 37.335 32.3159 37.3697 32.2666C37.3895 32.242 37.4292 32.2025 37.4441 32.1877C37.5135 32.1187 37.578 32.0497 37.6524 31.9905C37.6722 31.9807 37.6871 31.9708 37.7169 31.956C37.7566 31.9363 37.7913 31.9166 37.831 31.8968C37.8657 31.887 38.0095 31.8327 38.0393 31.8278C38.079 31.8229 38.1038 31.8179 38.1236 31.813C38.198 31.813 38.2774 31.8081 38.3518 31.8032C38.3815 31.8032 38.4857 31.8081 38.5303 31.813C38.6047 31.8278 38.6742 31.8377 38.7436 31.8574C39.2297 31.9708 39.6166 32.1631 40.0531 32.4096C41.561 33.2626 42.7712 34.4904 43.669 35.9449C44.666 37.5573 45.2463 39.1992 45.6332 41.0975C45.9903 42.8528 46.0945 44.7758 45.9506 46.684H45.9655ZM42.6175 77.2049C41.6602 76.5195 40.7574 75.7996 39.8745 75.0255C39.2694 74.4979 38.6593 73.9704 38.0889 73.3984C37.7566 73.068 37.4292 72.7229 37.1415 72.3531C37.1415 72.3432 36.9679 72.1066 36.9332 72.0523C36.8638 71.9488 36.7993 71.8403 36.7348 71.7318C36.7199 71.7022 36.6604 71.579 36.6356 71.5346C36.6108 71.4458 36.5761 71.3176 36.5612 71.2683C36.5661 71.2585 36.5711 71.2535 36.5711 71.2486C36.5761 71.2437 36.581 71.2388 36.5909 71.2289C36.6058 71.2289 36.6207 71.224 36.6356 71.219C36.6802 71.219 36.829 71.219 36.9282 71.219C36.9084 71.2289 37.2655 71.3028 37.3399 71.3226C37.573 71.3965 37.6375 71.4261 37.7417 71.4705C37.9401 71.5642 38.1335 71.6628 38.327 71.7663C38.7039 71.9784 39.071 72.2101 39.4281 72.4566C39.562 72.5503 39.691 72.644 39.82 72.7377C39.8348 72.7475 39.9539 72.8412 39.9936 72.8659C40.0481 72.9053 40.0977 72.9497 40.1523 72.9891C40.8269 73.5315 41.4816 74.1331 41.9875 74.8382C42.6274 75.7257 43.049 76.6921 43.3218 77.6979C43.0887 77.5303 42.8555 77.3627 42.6224 77.195L42.6175 77.2049ZM76.3263 103.342C76.5892 101.799 76.8272 100.246 77.0604 98.6977C77.2836 99.2352 77.4969 99.7775 77.7052 100.32C79.5404 105.137 80.83 110.112 82.323 115.038C83.067 117.493 83.9351 119.9 84.3716 122.434C84.7733 124.756 84.8725 127.128 84.6344 129.475C84.2426 133.296 82.9778 137.004 81.455 140.544C80.1356 142.645 78.8559 144.785 77.8193 147.033C76.9016 149.02 76.1824 151.086 75.4434 153.142C75.0367 154.015 74.6398 154.888 74.2579 155.775C72.507 159.858 70.9247 164.034 69.5657 168.27C69.5458 167.91 69.526 167.545 69.5111 167.185C69.278 161.865 69.2581 156.461 69.6401 151.145C70.0269 145.746 70.6668 140.357 71.1826 134.968C71.6985 129.569 72.3483 124.175 73.2411 118.82C74.1091 113.628 75.4483 108.534 76.3263 103.347V103.342ZM47.0964 70.7654C47.4436 69.2714 48.0289 67.9253 49.016 66.8554C49.5616 66.2637 50.0675 65.8051 50.8066 65.4846C51.3125 65.2628 51.9127 65.174 52.4434 65.3466C52.4484 65.3564 52.6716 65.46 52.7609 65.5142C52.7658 65.529 52.9791 65.7164 52.9692 65.7016C53.242 66.0221 53.2717 66.1848 53.3561 66.5743C53.3957 66.7568 53.3809 66.6286 53.3908 66.88C53.3957 67.0871 53.4007 67.2942 53.3908 67.5062C53.366 67.9253 53.3015 68.2508 53.1874 68.7093C52.2748 72.4024 49.8642 75.3411 47.404 78.2058C47.3593 78.2551 47.3196 78.3044 47.275 78.3537C47.0617 77.4021 46.9079 76.4603 46.8385 75.5284C46.7095 73.8816 46.7542 72.2791 47.1063 70.7703L47.0964 70.7654ZM56.7736 84.7488C56.7736 84.7488 56.7389 84.7833 56.7537 84.8031C56.7537 84.8031 56.7488 84.808 56.7438 84.8129C56.7438 84.8129 56.7389 84.8129 56.7339 84.8129C56.6793 84.8277 56.4512 84.877 56.3867 84.8967C56.3569 84.8967 56.3272 84.8967 56.3172 84.9017C56.2329 84.9017 56.1486 84.9066 56.0593 84.9066C55.8857 84.9066 55.7121 84.8967 55.5385 84.8819C55.4542 84.877 55.3649 84.8672 55.2806 84.8573C55.2607 84.8573 55.2508 84.8573 55.2359 84.8573C55.231 84.8573 55.2211 84.8573 55.2012 84.8524C53.6388 84.6108 52.0615 84.236 50.6925 83.5014C49.7451 82.9935 48.9813 82.3673 48.4307 81.5735C48.515 81.4453 48.5795 81.3023 48.6241 81.1445C48.7878 81.105 48.9565 81.0705 49.1251 81.0459C50.132 80.893 51.2232 80.9078 52.2202 81.1396C52.5327 81.2135 52.8353 81.3072 53.1378 81.4157C53.5644 81.5685 53.5991 81.5833 53.9761 81.7658C54.3134 81.9285 54.6407 82.106 54.9582 82.3032C55.3302 82.53 55.5782 82.7124 55.8212 82.9294C55.9452 83.0428 56.0692 83.1562 56.1833 83.2795C56.3172 83.4225 56.4115 83.5359 56.4115 83.5408C56.6893 83.9303 56.6992 83.955 56.7934 84.3346C56.7934 84.3396 56.7984 84.3642 56.8033 84.3889C56.8033 84.4382 56.8083 84.5269 56.8033 84.5467C56.8033 84.5664 56.8033 84.7044 56.8033 84.734C56.8033 84.7291 56.8033 84.7192 56.8033 84.7044C56.8033 84.6255 56.719 84.7685 56.7785 84.7537L56.7736 84.7488ZM46.9873 112.114C45.7423 103.949 45.0529 95.4188 46.0796 87.1944C46.2235 86.0308 46.4219 84.8672 46.655 83.7134C48.267 85.5673 50.6479 86.6521 53.0337 87.1846C55.1318 87.653 58.4104 88.2299 59.333 85.6314C60.3548 82.747 57.3688 80.3654 55.0723 79.3251C53.7082 78.7087 52.3492 78.3439 50.8413 78.2847C50.9207 78.1861 51 78.0924 51.0843 77.9938C52.126 76.7513 53.1428 75.4791 53.9166 74.0542C55.0524 71.9488 56.228 69.3848 56.099 66.9244C58.3162 69.3602 60.7218 71.6381 62.7703 74.2317C65.9002 78.191 68.286 82.6089 70.9297 86.8838C72.4425 89.3294 73.8413 91.8243 75.1011 94.3834C74.8184 96.4937 74.5258 98.604 74.2182 100.709C73.4544 105.961 72.2044 111.108 71.2471 116.325C69.2929 127.005 68.3852 137.887 67.3088 148.68C66.7781 154.03 66.7731 159.439 66.8971 164.813C66.9616 167.51 67.2493 170.193 67.3535 172.885C67.4031 174.236 67.3832 175.582 67.2741 176.933C67.1898 178.003 66.9914 179.073 66.9864 180.143C66.9864 180.231 66.9864 180.325 66.9914 180.414C66.4904 177.944 65.925 175.488 65.2355 173.062C64.0798 168.985 62.5174 165.04 61.1037 161.046C58.2418 152.955 55.4988 144.814 52.9097 136.634C50.3701 128.612 48.2521 120.437 46.9823 112.114H46.9873ZM20.8327 85.9913C21.0906 85.6018 21.2097 85.4391 21.5371 85.1038C21.6363 85.0003 21.7404 84.9017 21.8446 84.808C21.8545 84.7981 21.914 84.7488 21.9388 84.7291C22.0132 84.6749 22.0876 84.6255 22.167 84.5812C22.2166 84.5516 22.4596 84.453 22.4348 84.453C22.4695 84.4431 22.4993 84.4333 22.534 84.4234C22.5737 84.4135 22.6184 84.4086 22.6531 84.4086C22.6828 84.4086 22.6977 84.4086 22.7027 84.4086C22.7076 84.4086 22.7126 84.4086 22.7176 84.4135C22.782 84.4333 22.8168 84.4431 22.8366 84.4431C23.2185 84.6206 23.531 84.9608 23.7195 85.2961C23.9229 85.6561 24.0667 86.0308 24.1312 86.5239C24.1758 86.8542 24.1609 87.584 24.1064 88.0524C23.9873 89.0089 23.6352 90.1233 23.278 91.0897C22.3852 93.5106 21.1254 95.9809 19.8903 98.4413C19.6125 98.9936 19.3397 99.5458 19.062 100.098C19.0223 99.96 18.9876 99.8268 18.9578 99.6888C18.7941 98.959 18.6354 98.2293 18.4618 97.5045C18.4072 93.4811 18.6255 89.3097 20.8278 85.9913H20.8327ZM13.7943 104.57C12.5742 105.295 11.3341 105.985 10.0693 106.621C8.3184 107.499 6.48316 108.362 4.54873 108.761C4.54873 108.761 4.44456 108.781 4.37016 108.791C4.30072 108.801 4.20648 108.811 4.20648 108.811C4.03784 108.82 3.87415 108.83 3.70551 108.825C3.64103 108.825 3.57159 108.815 3.50711 108.811C3.50215 108.811 3.50215 108.811 3.49222 108.806C3.44758 108.791 3.35334 108.761 3.29878 108.756C3.00118 108.717 3.52695 108.781 3.26902 108.742C3.2591 108.742 3.24422 108.732 3.22934 108.727C3.22934 108.727 3.22934 108.727 3.23926 108.732C3.23926 108.732 3.2343 108.727 3.22934 108.722C3.21446 108.712 3.20454 108.707 3.18966 108.697C3.18966 108.697 3.18966 108.692 3.18966 108.687C3.17974 108.677 3.16486 108.668 3.15494 108.653C3.16486 108.663 3.17478 108.672 3.18966 108.682C3.18966 108.658 3.17974 108.628 3.14502 108.618C3.14006 108.608 3.1351 108.599 3.13014 108.589C3.10534 108.495 3.07558 108.406 3.05574 108.313C3.05574 108.298 3.05574 108.283 3.05574 108.263C3.04582 108.14 3.04582 108.012 3.05574 107.889C3.05574 107.815 3.0607 107.736 3.06566 107.662C3.09542 107.494 3.14006 107.336 3.19462 107.174C3.19462 107.164 3.20454 107.154 3.2095 107.144C3.26406 107.035 3.32854 106.937 3.38806 106.833C3.41286 106.789 3.44758 106.75 3.47734 106.705C3.49718 106.68 3.53191 106.641 3.54679 106.626C3.70551 106.454 3.87911 106.291 4.05768 106.138C4.10232 106.109 4.29576 105.961 4.34536 105.931C4.53384 105.808 4.72729 105.694 4.92569 105.586C5.41178 105.32 5.58043 105.251 6.00699 105.088C7.64383 104.472 9.40466 104.097 11.1357 103.865C12.5394 103.678 13.9679 103.594 15.3865 103.623C14.8558 103.944 14.3003 104.264 13.8043 104.56L13.7943 104.57ZM2.82757 86.0357C3.01606 85.1877 3.24422 84.6749 3.81959 84.1719C3.82951 84.1621 3.82951 84.1621 3.83447 84.1571C3.84935 84.1473 3.85927 84.1423 3.88407 84.1275C3.95351 84.0832 4.02295 84.0437 4.0924 84.0043C4.13704 83.9796 4.18168 83.9599 4.22632 83.9353C4.25112 83.9353 4.44456 83.8613 4.4644 83.8564C4.85129 83.7479 5.02489 83.738 5.56555 83.7923C6.38892 83.8712 7.38094 84.2903 8.18944 84.7932C9.90563 85.8632 11.2498 87.5593 12.3162 89.29C13.5662 91.3116 14.4044 93.2789 15.0988 95.4829C15.3419 96.262 15.5651 97.0459 15.7635 97.8348C15.7685 98.5251 15.7784 99.2154 15.7933 99.9057C15.6494 99.886 15.5105 99.8663 15.3667 99.8466C14.2656 99.6937 13.0156 99.314 11.9492 98.8259C9.71219 97.8003 7.63391 96.3261 5.92267 94.5609C4.39496 92.9831 3.2095 91.0995 2.80277 88.9251C2.61925 87.9587 2.63909 86.8493 2.82261 86.0308L2.82757 86.0357Z" fill="#844935" fill-opacity="0.2"/>
</svg>
