<svg width="204" height="342" viewBox="0 0 204 342" fill="none" xmlns="http://www.w3.org/2000/svg">
<path d="M196.195 114.715C194.972 113.277 193.094 112.663 191.262 112.519C188.86 112.323 186.4 112.676 184.058 113.192C181.473 113.768 178.954 114.604 176.52 115.637C171.351 117.833 166.359 120.552 161.674 123.65C157.14 126.651 153.063 130.285 149.203 134.096C147.318 135.958 145.473 137.854 143.805 139.906C143.144 140.723 142.509 141.56 141.894 142.41C145.113 133.37 147.547 124.049 150.354 114.872C151.866 109.937 153.469 105.042 154.967 100.126C154.993 100.094 155.026 100.061 155.052 100.028C155.412 99.5053 155.68 98.9563 155.962 98.3941C156.21 97.8908 156.551 97.4529 156.904 97.015C157.709 96.0215 158.586 95.0672 159.489 94.1586C161.072 92.5703 162.996 91.3414 164.854 90.1061C166.686 88.8903 168.407 87.5438 170.193 86.2693C171.901 85.0535 173.68 83.9423 175.493 82.8834C182.703 78.6675 190.503 75.3013 196.908 69.8435C199.584 67.5623 202.581 64.7909 203.7 61.3397C204.341 59.3723 204.04 57.2349 201.966 56.2741C201.102 55.8754 200.128 55.7642 199.192 55.725C198.066 55.6793 196.954 55.6989 195.835 55.8427C191.052 56.4506 186.57 58.5291 182.409 60.8495C178.339 63.1176 174.642 65.8759 171.286 69.1049C167.923 72.3469 164.998 75.9746 162.361 79.8244C161.216 81.4977 160.09 83.1841 159.011 84.9032C159.613 82.0729 160.123 79.2166 160.49 76.3144C160.745 74.2816 160.869 72.2554 160.902 70.2291C161 70.1245 161.072 70.0069 161.111 69.85C161.164 69.6082 161.229 69.3663 161.294 69.1245C161.308 69.0722 161.327 69.0134 161.34 68.9611C161.353 68.9153 161.36 68.9023 161.353 68.9088L161.373 68.8434C161.373 68.8434 161.373 68.8304 161.373 68.8238C161.386 68.7911 161.393 68.7585 161.406 68.7258C161.425 68.6735 161.438 68.6147 161.458 68.5624C161.615 68.0917 161.792 67.6277 161.995 67.1767C162.027 67.1113 162.04 67.0394 162.053 66.9675C162.06 66.9479 162.073 66.9348 162.08 66.9152C162.165 66.7714 162.256 66.6211 162.341 66.4773C162.348 66.4642 162.439 66.3269 162.413 66.3662C162.453 66.3008 162.498 66.2354 162.538 66.1701C162.668 65.974 162.74 65.791 162.721 65.5491C162.708 65.3661 162.616 65.1962 162.492 65.072C163.872 63.013 164.716 60.4377 165.377 58.15C165.933 56.2152 166.326 54.3328 167.137 52.4699C167.988 50.5156 168.884 48.5743 169.813 46.6591C173.523 39.0378 175.611 30.8216 179 23.0761C180.668 19.2654 182.376 15.494 183.521 11.4741C184.457 8.19288 185.726 2.84617 182.396 0.434263C181.225 -0.415459 180.341 0.140128 179.19 0.754543C177.619 1.59773 176.128 2.57818 174.727 3.68282C172.117 5.74176 169.8 8.16673 167.726 10.7617C163.382 16.1999 159.489 22.4355 157.761 29.2202C155.785 36.9788 156.315 45.1819 157.087 53.0713C157.493 57.163 157.997 61.2548 158.167 65.3661C158.343 69.5951 158.016 73.7653 157.401 77.9485C156.943 81.0467 156.354 84.1188 155.661 87.1713C155.321 84.5437 154.666 81.9291 153.861 79.4127C152.003 73.5888 148.889 67.9087 144.066 64.0196C141.6 62.0326 138.714 60.758 135.508 60.843C133.009 60.9083 129.718 61.7384 129.102 64.5621C128.775 66.072 129.456 67.5492 130.136 68.8565C130.915 70.3599 131.72 71.8501 132.616 73.2881C134.402 76.1641 136.483 78.8636 138.688 81.4324C141.168 84.3149 143.89 86.9294 146.599 89.5962C147.861 90.8381 149.092 92.1323 150.073 93.603C150.884 94.8188 151.578 96.2633 151.336 97.7601C151.29 98.0412 151.323 98.2896 151.414 98.5053C151.375 99.8321 151.284 101.159 151.133 102.479C151.055 102.996 150.983 103.506 150.904 104.022C148.444 111.709 146.075 119.402 143.805 127.147C141.456 135.154 138.937 143.135 135.521 150.757C135.744 148.953 135.901 147.142 135.966 145.331C136.149 140.684 135.672 136.174 134.429 131.684C133.277 127.527 131.556 123.572 129.632 119.729C127.879 116.225 125.962 112.754 123.207 109.924C120.773 107.421 117.181 105.29 113.556 105.728C111.626 105.957 109.918 107.166 109.244 109.022C108.557 110.911 108.891 112.931 109.499 114.794C110.088 116.604 110.959 118.336 111.776 120.056C112.81 122.232 113.89 124.383 114.983 126.533C117.161 130.834 119.393 135.102 121.408 139.481C122.402 141.638 123.358 143.815 124.208 146.037C124.64 147.155 125.085 148.279 125.386 149.436C125.661 150.502 125.805 151.6 125.955 152.685C126.276 155.005 126.878 157.28 127.126 159.607C127.375 161.947 127.107 164.352 126.773 166.673C126.701 167.176 126.675 167.751 126.57 168.294C125.779 169.692 124.974 171.078 124.156 172.464C115.794 186.595 105.907 199.629 95.0981 211.963C94.6336 212.492 94.1625 213.022 93.6979 213.551C95.7132 209.466 97.1461 205.08 98.0621 200.629C99.0894 195.635 99.4754 190.511 99.2006 185.419C99.0632 182.85 98.7622 180.294 98.3108 177.758C97.9116 175.529 97.6499 173.385 96.446 171.411C95.916 170.536 95.1963 169.803 94.5878 168.993C93.9465 168.137 93.1352 167.45 92.1995 166.947C90.2563 165.908 87.7437 165.777 85.6238 166.248C84.4787 166.503 83.4122 166.875 82.4962 167.633C81.7241 168.274 81.0829 169.052 80.6445 169.954C80.1537 170.96 80.0687 172.006 79.8593 173.085C79.6041 174.418 79.4144 175.758 79.2901 177.111C79.048 179.726 79.0087 182.366 79.3359 184.968C79.6565 187.471 80.2519 189.935 80.88 192.38C81.4885 194.753 82.1625 197.106 82.5485 199.531C82.9411 202.028 83.0785 204.557 82.856 207.08C82.627 209.701 82.1428 212.296 81.6652 214.885C81.2137 217.323 80.3697 219.649 79.3228 221.891C78.2366 224.231 76.9738 226.486 75.6717 228.709C75.0305 229.807 74.3762 230.898 73.7219 231.997C73.1396 232.977 72.6488 234.056 71.9553 234.964C71.6608 235.35 71.301 235.5 70.9149 235.781C70.7121 235.931 70.5485 236.101 70.4046 236.304C70.3522 236.382 70.2671 236.467 70.2148 236.559C70.2933 236.533 70.4242 236.513 70.6401 236.533C70.4831 236.52 70.3391 236.533 70.2148 236.572C70.1952 236.605 70.1821 236.644 70.1755 236.677C70.1625 236.788 70.0316 236.65 70.1886 236.579C69.5801 236.749 69.3053 237.383 69.4558 237.925C69.0763 238.252 68.6968 238.585 68.3173 238.905C65.2421 241.513 62.4613 244.546 59.687 247.475C54.1581 253.325 48.9236 259.482 43.7481 265.639C38.5332 271.842 33.5147 278.221 28.9345 284.915C27.0174 287.719 25.1723 290.569 23.386 293.458C24.3806 290.791 25.3162 288.098 26.1799 285.379C28.3718 278.476 29.7001 271.352 30.3609 264.142C31.0152 256.978 31.133 249.756 30.904 242.566C30.7928 239.16 30.5441 235.781 30.0076 232.415C29.53 229.415 28.9607 226.343 27.6979 223.552C26.5987 221.127 24.9367 219.087 22.6008 217.767C20.0883 216.349 17.0916 216.185 14.4351 217.316C11.9029 218.395 9.63902 220.486 8.52669 223.022C7.83313 224.597 7.29659 226.258 6.92364 227.938C6.5376 229.657 6.38711 231.408 6.21044 233.16C5.49725 240.259 5.50379 247.344 6.21699 254.442C6.57031 257.978 7.0545 261.502 7.51906 265.025C7.98362 268.528 8.38929 272.038 8.82113 275.548C9.6979 282.594 10.8953 289.562 12.3217 296.517C12.6423 298.092 12.9367 299.733 12.8451 301.347C12.7404 303.112 12.4525 304.864 12.073 306.596C11.7001 308.282 11.229 309.955 10.7252 311.609C10.2083 313.295 9.62593 315.014 9.45581 316.779C9.39038 317.492 9.33803 318.132 9.05668 318.792C8.72953 319.564 8.36312 320.276 8.16682 321.1C8.13411 321.23 8.14065 321.361 8.16682 321.485C7.13956 323.61 6.13193 325.741 5.14392 327.871C3.41655 331.604 1.74807 335.355 0.118841 339.133C-0.561639 340.715 1.87239 341.833 2.55287 340.251C9.59321 323.982 17.4776 308.047 26.9651 293.105C28.2344 292.32 29.6085 291.719 30.8778 290.928C32.2388 290.078 33.5736 289.17 34.9803 288.399C37.7677 286.869 40.928 285.974 43.9509 285.045C45.4558 284.581 46.9476 284.17 48.4983 283.895C50.1276 283.607 51.7633 283.398 53.3991 283.15C56.7819 282.633 60.1254 281.862 63.4951 281.254C70.2933 280.026 77.1832 279.215 84.0272 278.326C89.8244 277.574 95.6412 276.829 101.275 275.228C104.056 274.437 106.784 273.417 109.349 272.077C111.685 270.855 114.125 269.437 115.774 267.325C116.618 266.247 117.22 264.979 117.194 263.587C117.168 262.109 116.337 260.874 115.297 259.887C113.327 258.011 110.599 257.103 107.995 256.527C101.805 255.174 95.386 255.567 89.1505 256.331C82.5027 257.148 76.012 258.619 69.6259 260.626C63.4231 262.58 57.4754 265.103 51.7241 268.123C47.3926 270.398 43.1199 272.777 39.1875 275.659C39.9989 274.613 40.8102 273.568 41.6477 272.541C49.6368 262.652 57.9793 252.9 67.0087 243.938C71.7066 239.278 76.9149 235.134 81.6717 230.513C86.1472 226.173 90.3479 221.532 94.4896 216.878C94.9149 216.813 95.301 216.538 95.4056 216.002C95.3598 216.218 95.5954 215.669 95.4776 215.839C95.615 215.643 95.6674 215.597 95.7459 215.538C96.0927 215.244 96.374 215.094 96.7208 214.937C96.8844 214.865 97.048 214.8 97.2115 214.734C97.4209 214.878 97.6957 214.898 97.9444 214.669C98.0621 214.564 98.1799 214.466 98.2977 214.362C98.7034 214.244 99.1156 214.133 99.5212 214.022C101.785 213.433 103.977 212.649 106.248 212.094C112.457 210.577 118.902 210.427 125.249 210.021C137.975 209.218 150.714 207.838 163.126 204.812C165.646 204.198 168.178 203.505 170.52 202.374C171.698 201.805 172.849 201.145 173.87 200.315C174.459 199.838 174.983 199.276 175.526 198.746C176.121 198.165 176.795 197.602 177.312 196.949C177.789 196.347 178.123 195.674 178.293 194.929C178.47 194.145 178.28 193.452 178.195 192.687C178.058 191.478 177.646 190.432 176.684 189.628C176.239 189.262 175.735 189.027 175.231 188.772C174.485 188.386 173.779 187.955 173.007 187.628C171.593 187.027 170.108 186.661 168.616 186.301C165.508 185.549 162.296 185.393 159.109 185.491C155.916 185.589 152.73 185.916 149.576 186.445C143.347 187.491 137.17 189.144 131.144 191.02C125.288 192.844 119.543 195.093 114.132 197.988C111.403 199.452 108.806 201.106 106.306 202.903C117.331 189.079 127.113 174.333 134.991 158.456C135.475 157.672 135.914 156.855 136.378 156.058C136.987 155.018 137.615 153.999 138.387 153.064C139.218 152.057 140.213 151.299 141.299 150.58C143.582 149.077 145.787 147.436 148.13 146.018C150.426 144.632 152.972 143.704 155.451 142.697C160.758 140.534 166.123 138.475 171.299 136.017C173.883 134.788 176.501 133.703 179.203 132.762C181.643 131.906 184.09 131.122 186.485 130.154C191.052 128.298 195.541 125.664 196.961 120.624C197.51 118.676 197.569 116.343 196.189 114.709L196.195 114.715ZM162.132 84.7855C164.677 80.9356 167.353 77.1707 170.481 73.7718C173.471 70.5167 176.815 67.5819 180.525 65.1635C184.215 62.7581 188.272 60.6665 192.505 59.3984C194.461 58.8102 196.653 58.4311 198.61 58.4899C199.388 58.5095 200.285 58.5553 200.887 58.869C200.945 58.9017 201.031 58.954 201.135 59.052C201.135 59.052 201.155 59.0847 201.181 59.1174C201.188 59.137 201.194 59.1631 201.207 59.1958C201.22 59.2416 201.233 59.2546 201.24 59.2612C201.24 59.2808 201.24 59.32 201.24 59.3919C201.24 59.4115 201.24 59.4769 201.24 59.5292C201.233 59.6011 201.22 59.7579 201.22 59.7579C201.155 60.2286 201.135 60.2416 200.991 60.6142C200.841 61.0064 200.658 61.3855 200.455 61.758C200.128 62.3594 199.82 62.8235 199.342 63.4379C198.282 64.8105 197 66.0459 195.698 67.1897C189.639 72.5038 182.226 75.8504 175.27 79.7852C173.497 80.7853 171.75 81.8311 170.056 82.9553C168.335 84.0992 166.738 85.3999 165.05 86.5765C164.186 87.1778 163.31 87.753 162.433 88.3347C163.846 86.8183 165.292 85.328 166.804 83.9031C170.114 80.7787 173.746 78.1512 177.678 75.87C179.87 74.5954 182.108 73.3927 184.306 72.1312C184.869 71.8109 184.346 70.8174 183.757 71.1246C179.733 73.2358 175.637 75.2686 171.901 77.8766C168.152 80.4912 164.847 83.6939 161.726 87.0144C160.732 88.0733 159.75 89.1518 158.775 90.2303C159.822 88.374 160.941 86.5569 162.119 84.779L162.132 84.7855ZM159.345 37.8024C159.737 31.423 161.458 25.6383 164.723 20.1478C167.556 15.3828 170.9 10.7355 175.094 7.06863C176.913 5.4803 178.889 4.0946 181.035 2.9965C182.501 4.51293 181.441 8.29746 181.041 9.89232C180.256 13.0559 179.007 16.1149 177.698 19.0955C175.879 23.2264 174.243 27.3901 172.764 31.6648C170.756 37.4756 168.367 42.9727 165.803 48.5481C165.148 49.9731 164.468 51.4045 163.912 52.8752C163.355 54.3524 163.107 55.9015 162.675 57.4114C162.328 58.6337 161.903 59.9802 161.353 61.2548C161.635 57.1369 161.949 53.0255 162.61 48.9469C163.401 44.0381 164.703 39.1881 166.11 34.4297C166.921 31.6975 167.844 28.998 168.852 26.3377C169.107 25.6579 168.112 25.1873 167.818 25.8671C165.796 30.4556 164.317 35.2663 163.087 40.1163C161.824 45.0904 160.895 50.0646 160.411 55.176C160.346 55.8754 160.287 56.5747 160.228 57.2741C159.632 50.8097 158.919 44.3387 159.325 37.8155L159.345 37.8024ZM151.015 90.1911C148.895 87.7203 146.415 85.596 144.145 83.2691C139.755 78.7525 135.783 73.7065 132.884 68.0983C132.446 67.2486 131.504 65.8694 131.909 64.9347C132.191 64.2876 133.257 63.9543 134.075 63.8105C134.605 63.7189 135.142 63.6667 135.678 63.647C135.75 63.647 136.208 63.647 136.202 63.647C136.555 63.6667 136.915 63.6993 137.262 63.7582C138.623 63.9869 139.925 64.5491 141.07 65.3138C145.781 68.4709 148.823 73.6476 150.708 78.8701C151.807 81.9095 152.638 85.1123 152.972 88.3347C152.972 88.3936 152.978 88.4524 152.985 88.5112C152.003 86.3869 150.891 84.3214 149.523 82.4259C147.161 79.1512 144.269 76.3079 141.377 73.5038C140.723 72.8698 139.827 73.9614 140.474 74.5954C143.308 77.3406 146.128 80.1251 148.437 83.341C150.426 86.1124 151.663 89.2367 153.122 92.2761C153.122 92.5637 153.109 92.8513 153.096 93.1455C152.52 92.0801 151.781 91.08 151.015 90.1845V90.1911ZM14.5005 308.295C14.5856 308.36 14.6837 308.406 14.8015 308.419C14.566 308.857 14.3239 309.302 14.0883 309.74C14.2323 309.262 14.3697 308.779 14.5005 308.295ZM24.9694 280.209C23.9356 284.268 22.627 288.268 21.181 292.216C21.4166 290.686 21.6194 289.157 21.7568 287.614C22.5223 279.241 21.9204 270.816 20.9389 262.489C20.3827 257.763 19.7023 253.05 19.0807 248.337C18.9629 247.435 17.5561 247.586 17.6739 248.488C18.747 256.593 19.9836 264.685 20.4809 272.849C20.7295 276.94 20.795 281.045 20.5398 285.13C20.2846 289.176 19.7023 293.222 18.9236 297.196C18.7535 298.072 18.5245 298.909 18.2628 299.739C18.2628 299.752 18.2497 299.765 18.2432 299.778C17.5954 301.386 16.9215 302.981 16.2344 304.569C16.169 304.726 16.1428 304.877 16.1363 305.014C15.7764 305.779 15.3577 306.511 14.8015 307.086C15.181 305.504 15.4558 303.903 15.5801 302.275C15.8353 298.889 14.9455 295.726 14.2977 292.438C13.6237 289.039 13.048 285.621 12.5245 282.196C11.4842 275.352 10.7383 268.456 9.80914 261.593C8.88656 254.782 8.12757 247.945 8.30423 241.062C8.38929 237.67 8.65101 234.278 9.02397 230.905C9.20063 229.304 9.5147 227.702 10.0185 226.173C10.47 224.8 10.9673 223.46 11.8898 222.329C13.3882 220.493 15.6128 219.159 18.0338 219.14C20.35 219.12 22.5485 220.558 23.8833 222.349C25.3031 224.251 26.0949 226.669 26.5856 228.99C27.2791 232.258 27.7437 235.579 27.9727 238.912C28.4438 245.742 28.3915 252.671 27.9989 259.501C27.5932 266.469 26.6837 273.424 24.9564 280.195L24.9694 280.209ZM32.35 284.987C32.5201 284.738 32.6903 284.49 32.8604 284.241C32.9913 284.215 33.1156 284.163 33.2399 284.085C32.9389 284.379 32.6445 284.679 32.35 284.987ZM40.5289 277.64C43.1199 275.718 45.9073 274.117 48.7143 272.541C54.2235 269.463 59.9225 266.691 65.8702 264.574C71.8833 262.436 78.0992 260.724 84.4002 259.698C90.5769 258.691 97.0349 257.92 103.29 258.514C105.803 258.756 108.407 259.135 110.756 260.109C111.848 260.567 112.941 261.155 113.759 262.031C114.106 262.397 114.426 262.835 114.538 263.338C114.61 263.678 114.538 264.123 114.433 264.423C113.641 266.548 111.207 267.953 109.329 269.038C106.954 270.404 104.383 271.43 101.772 272.254C96.446 273.927 90.8778 274.672 85.3555 275.378C78.8517 276.208 72.3413 277.025 65.8637 278.038C62.5529 278.555 59.2748 279.241 55.9902 279.875C52.8495 280.477 49.6434 280.751 46.5158 281.45C43.3555 282.163 40.2017 283.209 37.1723 284.353C35.6935 284.915 34.3195 285.614 32.9847 286.379C34.1036 285.183 35.2748 284.039 36.5572 283.013C38.8473 281.182 41.4384 279.921 44.1341 278.797C46.9803 277.614 49.8855 276.574 52.7186 275.365C55.3686 274.234 58.0839 273.273 60.9367 272.796C64.5223 272.202 68.1865 272.411 71.7721 271.764C72.5311 271.626 72.4264 270.463 71.6412 270.554C68.3239 270.947 64.9607 270.816 61.6434 271.26C58.7448 271.652 55.9378 272.509 53.2355 273.613C50.2519 274.829 47.2486 275.993 44.2715 277.208C41.5365 278.326 38.8211 279.548 36.4395 281.32C35.6412 281.914 34.8822 282.555 34.1559 283.228C36.1385 281.202 38.2715 279.333 40.5485 277.64H40.5289ZM84.8451 223.133C84.5899 223.46 84.3348 223.78 84.0796 224.107C84.0534 224.14 84.0207 224.166 83.988 224.199C85.8528 220.179 87.6783 216.133 89.0654 211.917C90.7601 206.773 91.6826 201.459 91.5256 196.034C91.4798 194.57 91.3555 193.112 91.1069 191.674C90.8517 190.229 90.5507 188.759 90.8517 187.295C90.9825 186.641 89.9356 186.295 89.7066 186.948C88.8626 189.334 89.8179 191.87 90.0142 194.302C90.2366 197.001 90.1581 199.733 89.8309 202.42C89.1636 207.897 87.325 213.126 85.1527 218.172C83.9356 221.009 82.6139 223.8 81.3184 226.598C81.253 226.741 81.2399 226.879 81.2595 227.003C80.193 228.075 79.1134 229.14 78.0207 230.186C77.9422 230.258 77.8637 230.33 77.7851 230.408C78.0992 229.892 78.4198 229.376 78.7339 228.853C81.3446 224.545 83.5627 219.983 84.4395 214.989C84.8844 212.433 85.362 209.878 85.5452 207.289C85.7219 204.76 85.6172 202.224 85.2246 199.72C84.4656 194.903 82.6532 190.328 81.8484 185.517C81.4296 183.02 81.3446 180.517 81.5212 177.987C81.6063 176.719 81.7503 175.451 81.94 174.189C82.097 173.176 82.1232 172.072 82.5223 171.117C82.856 170.3 83.4056 169.634 84.1188 169.111C84.9498 168.509 86.0752 168.274 87.0829 168.169C89 167.98 91.1854 168.379 92.5332 169.862C92.8539 170.222 93.0763 170.66 93.4035 171.006C93.7437 171.366 94.0643 171.738 94.3522 172.15C94.8953 172.928 95.2879 173.791 95.5496 174.699C95.8506 175.725 95.9291 176.83 96.1188 177.882C96.3413 179.131 96.5245 180.386 96.6685 181.641C97.2377 186.589 97.1919 191.563 96.4853 196.491C95.7917 201.322 94.5289 206.08 92.6118 210.571C90.6554 215.152 87.9007 219.205 84.8582 223.127L84.8451 223.133ZM111.26 202.237C116.291 199.08 121.787 196.668 127.382 194.681C133.081 192.654 138.976 191.014 144.884 189.726C150.891 188.412 157.185 187.484 163.342 187.961C166.313 188.19 169.441 188.765 172.169 189.988C172.83 190.288 173.445 190.654 174.08 191.001C174.485 191.223 174.95 191.426 175.225 191.733C175.48 192.02 175.584 192.295 175.624 192.674C175.683 193.243 175.885 193.877 175.748 194.445C175.598 195.06 175.133 195.498 174.695 195.916C174.112 196.478 173.536 197.034 172.954 197.596C172.104 198.419 171.122 199.099 170.062 199.635C167.798 200.792 165.331 201.505 162.871 202.119C150.884 205.106 138.485 206.407 126.178 207.198C119.883 207.603 113.53 207.721 107.34 209.048C106.522 209.224 105.711 209.42 104.906 209.636C112.306 205.413 120.95 203.341 129.246 201.74C132.367 201.139 135.502 200.596 138.61 199.929C139.349 199.773 139.264 198.616 138.479 198.733C132.74 199.583 127.009 200.629 121.375 202.008C115.735 203.387 110.16 205.191 105.044 207.956C103.225 208.943 101.478 210.048 99.8222 211.283C99.6325 211.335 99.4427 211.394 99.2464 211.446C103.048 208.126 106.967 204.936 111.253 202.25L111.26 202.237ZM131.877 155.777C131.589 156.888 131.294 157.999 131.118 159.143C131.078 159.385 131.111 159.6 131.177 159.79C130.771 160.581 130.359 161.372 129.94 162.163C129.992 160.96 129.966 159.764 129.822 158.568C130.143 154.6 129.947 150.6 129.613 146.632C129.371 143.782 129.135 140.919 128.559 138.115C127.997 135.377 127.113 132.71 126.093 130.102C124.935 127.16 123.593 124.291 122.285 121.415C121.931 120.637 120.675 121.108 121.035 121.899C123.305 126.912 125.733 131.958 126.989 137.344C127.624 140.057 127.899 142.841 128.128 145.613C128.272 147.351 128.429 149.09 128.52 150.829C128.147 148.58 127.401 146.475 126.564 144.364C123.135 135.723 118.49 127.651 114.466 119.291C113.648 117.585 112.778 115.872 112.156 114.081C111.659 112.65 111.246 110.937 111.973 109.643C112.686 108.369 114.073 108.329 115.369 108.552C116.756 108.787 118.149 109.414 119.379 110.316C122.278 112.428 124.287 115.578 125.955 118.696C127.84 122.212 129.547 125.86 130.863 129.631C132.269 133.677 133.153 137.867 133.264 142.155C133.323 144.449 133.198 146.743 132.969 149.025C132.74 151.312 132.446 153.567 131.87 155.796L131.877 155.777ZM186.485 127.154C181.709 129.206 176.579 130.383 171.894 132.631C166.961 134.998 161.89 137.05 156.819 139.109C154.378 140.102 151.899 141.031 149.51 142.142C147.554 143.05 145.735 144.188 143.955 145.384C145.539 143.9 147.233 142.534 148.987 141.253C152.932 138.357 157.133 135.841 161.373 133.416C163.794 132.037 166.221 130.671 168.629 129.259C169.198 128.925 168.668 127.919 168.073 128.232C163.565 130.579 159.102 133.017 154.784 135.69C151.081 137.985 147.449 140.449 144.171 143.318C145.421 141.658 146.743 140.057 148.176 138.547C151.709 134.821 155.504 131.278 159.593 128.174C163.774 124.997 168.374 122.33 173.085 120.023C177.659 117.781 182.429 115.827 187.526 115.264C188.121 115.199 188.716 115.153 189.318 115.121C189.75 115.101 190.234 115.094 190.522 115.121C190.921 115.147 191.321 115.186 191.713 115.258C191.903 115.291 192.093 115.336 192.282 115.376C192.295 115.376 192.4 115.408 192.453 115.421C192.518 115.441 192.662 115.493 192.675 115.5C192.865 115.572 193.054 115.65 193.238 115.742C193.427 115.84 193.526 115.898 193.513 115.892C193.656 115.99 193.787 116.101 193.918 116.212C193.931 116.225 193.984 116.278 194.016 116.31C194.056 116.356 194.141 116.467 194.154 116.48C194.363 116.761 194.435 116.925 194.514 117.225C194.579 117.461 194.625 117.997 194.605 118.278C194.343 122.873 190.306 125.5 186.479 127.141L186.485 127.154Z" fill="#844935" fill-opacity="0.2"/>
</svg>
