<svg width="65" height="94" viewBox="0 0 65 94" fill="none" xmlns="http://www.w3.org/2000/svg">
<path d="M46.7456 48.0562C47.3482 48.5326 48.0447 48.9209 48.8093 49.0448C49.475 49.1542 50.4275 49.1933 50.7482 48.4559C50.941 48.0154 50.8178 47.6238 50.5733 47.2371C50.3335 46.857 50.0646 46.4964 49.7876 46.1424C49.454 45.7149 49.1138 45.2924 48.7736 44.8698C49.4588 45.524 50.1894 46.1293 50.9426 46.7004C51.3443 47.0038 51.7525 47.2975 52.1672 47.583C52.5575 47.8506 52.9722 48.1067 53.4371 48.2144C54.3782 48.433 55.329 47.9012 55.5736 46.9435C55.7162 46.3871 55.6352 45.7965 55.4473 45.2499C55.7583 45.4131 56.0823 45.5469 56.4273 45.6317C57.0865 45.7932 57.7766 45.7916 58.4472 45.7035C59.0287 45.6268 59.7236 45.5501 60.2095 45.1896C60.757 44.7817 61.0405 44.0132 60.7344 43.3737C60.4574 42.7961 59.8791 42.3148 59.3818 41.9314C59.1275 41.7356 58.8554 41.5562 58.5751 41.3865C59.0886 41.4648 59.607 41.5154 60.1286 41.5138C61.3774 41.5105 62.7672 41.1728 63.7893 40.4157C64.2801 40.0519 64.6819 39.5951 64.8762 39.0045C65.0836 38.3796 65.0188 37.6732 64.7693 37.0711C64.5183 36.4675 64.0874 35.9356 63.4881 35.6599C62.9082 35.3923 62.2716 35.3026 61.6382 35.2765C61.2835 35.2618 60.9255 35.2667 60.5708 35.2977C60.8899 35.1133 61.2009 34.9143 61.4973 34.6956C61.9427 34.3677 62.4028 34.0088 62.7624 33.5846C63.1106 33.1734 63.3925 32.6677 63.3358 32.1097C63.2807 31.568 62.9778 31.1014 62.5567 30.7718C61.6334 30.0474 60.4622 30.0801 59.3753 30.3183C59.0692 30.3852 58.7695 30.47 58.478 30.576C58.5055 30.5434 58.5347 30.5124 58.5606 30.4782C59.0903 29.7978 59.4256 28.9869 59.4774 28.119C59.5227 27.3587 59.2895 26.4989 58.6464 26.0421C57.9612 25.5559 57.0088 25.7467 56.2799 26.0127C55.8053 26.1856 55.3339 26.3863 54.8836 26.6164C55.1298 26.2509 55.3517 25.8691 55.5088 25.4629C55.7712 24.7825 55.6741 23.988 55.4781 23.2995C55.3922 22.9944 55.2513 22.6942 55.0116 22.4804C54.7556 22.2537 54.4236 22.1378 54.0899 22.0905C53.3512 21.9845 52.6158 22.1688 51.9226 22.4136C51.4998 22.562 51.0867 22.7366 50.6753 22.9128C50.4906 22.9911 50.3141 23.0923 50.1294 23.169C49.901 22.8508 49.5641 22.624 49.1527 22.6305C48.1225 22.6452 47.2672 23.5409 46.7392 24.3404C46.0783 25.3405 45.7624 26.4826 45.4498 27.6295C45.372 27.9118 45.2943 28.194 45.2133 28.4763C45.2894 27.8139 45.3251 27.1499 45.291 26.4809C45.2684 26.0192 45.2441 25.5428 45.1112 25.0974C44.9962 24.7107 44.7921 24.3192 44.3758 24.2082C43.6696 24.0173 43.0039 24.714 42.6621 25.2475C42.1777 26.0045 41.9267 26.9655 41.7517 27.8384C41.5493 28.8385 41.4618 29.8647 41.4456 30.886C41.4051 33.1865 41.742 35.513 42.3754 37.7237C41.8651 37.9489 41.4181 38.2246 41.0633 38.6733C40.8965 38.8854 40.7507 39.1122 40.6405 39.3504C40.6292 39.3716 40.6195 39.3944 40.6098 39.4173C40.6049 39.427 40.6 39.4368 40.5968 39.4466C40.5709 39.5086 40.5482 39.5706 40.5288 39.6359C40.5255 39.6457 40.5223 39.6555 40.5191 39.6652C40.5142 39.6832 40.5093 39.7011 40.5061 39.7191C40.4543 39.91 40.4251 40.109 40.4316 40.3179C40.4429 40.667 40.5353 40.9949 40.7102 41.2756C39.9019 41.796 39.2524 42.5155 38.5299 43.1453C37.7168 43.855 36.8907 44.55 36.0889 45.2728C34.7557 46.4736 33.455 47.7168 32.1883 48.9894C32.59 48.172 32.9335 47.3236 33.1991 46.4605C33.7239 44.7654 33.9604 42.9935 34.0932 41.2282C34.2261 39.4385 34.3022 37.6291 34.1386 35.8393C34.043 34.7935 33.8292 33.782 33.6154 32.7574C33.515 32.2728 33.4032 31.7866 33.3497 31.2939C33.2963 30.8012 33.1521 30.3395 32.9059 29.9104C32.7342 29.6102 32.3649 29.6689 32.1819 29.9104C31.8644 30.3281 31.8887 30.9888 31.8692 31.4881C31.8417 32.1798 31.7234 32.8716 31.6522 33.5601C31.5679 34.3693 31.4983 35.1786 31.3768 35.9829C31.2553 36.7889 31.082 37.5802 30.8601 38.3633C29.9676 41.5252 28.696 44.5712 27.9072 47.7641C27.4633 49.5571 27.2787 51.4057 27.2495 53.2509C27.2463 53.4206 27.3337 53.5315 27.4488 53.587C27.3969 53.742 27.3451 53.8954 27.2997 54.052C27.2544 54.2086 27.2155 54.3669 27.1944 54.5284C27.1912 54.5529 27.188 54.5757 27.1847 54.6002C26.1448 55.938 25.1778 57.3313 24.3128 58.7948C22.6784 61.557 21.2416 64.4268 19.8713 67.3293C20.3588 65.7174 20.8043 64.0907 21.2125 62.4576C22.0013 59.3087 22.7513 56.1338 23.3134 52.936C23.5952 51.3355 23.8236 49.7219 23.9629 48.1018C24.1038 46.4556 24.1654 44.7996 24.201 43.1485C24.2302 41.8319 24.2399 40.5136 24.2253 39.1937C24.2334 39.1497 24.2415 39.1056 24.2512 39.0616C24.2998 38.8495 24.3922 38.6504 24.4699 38.4481C24.6141 38.068 24.5995 37.665 24.7194 37.2816C24.8506 36.8688 25.0368 36.4658 25.2199 36.0743C25.5843 35.2928 26.0411 34.5602 26.4963 33.8309C26.9871 33.0478 27.4326 32.2353 27.9444 31.4652C28.4174 30.7539 28.9179 30.0605 29.3196 29.3035C29.7343 28.5187 30.0194 27.667 30.277 26.8187C30.5394 25.954 30.7597 25.0762 30.967 24.1968C31.1986 23.2179 31.4189 22.239 31.6878 21.2699C31.8271 20.769 31.9729 20.2681 32.0928 19.7607C32.211 19.2615 32.3017 18.7541 32.4621 18.2646C32.522 18.0851 32.4086 17.8796 32.2418 17.811C32.0555 17.736 31.879 17.8078 31.7656 17.9677C31.4173 18.462 30.9638 18.8699 30.5847 19.3381C30.1668 19.8537 29.7716 20.3905 29.3731 20.9207C28.5988 21.9518 27.8327 23.0025 27.1993 24.1283C26.5822 25.2263 26.0881 26.3912 25.6443 27.5692C25.1988 28.7553 24.7728 29.9561 24.4408 31.1797C24.2626 31.8356 24.1103 32.498 23.971 33.1636C23.8479 31.5827 23.647 30.0099 23.2988 28.4632C22.9392 26.8676 22.5261 25.285 22.1293 23.6992C22.0872 23.5279 22.0434 23.3582 21.9997 23.1885C22.0742 23.1037 22.139 23.0091 22.1957 22.9095C22.8339 22.7562 23.4591 22.4935 24.0439 22.239C24.8959 21.867 25.6994 21.3857 26.4364 20.8179C26.7992 20.5389 27.1588 20.2485 27.4892 19.932C27.81 19.6237 28.1437 19.2451 28.2668 18.8063C28.3267 18.5958 28.3186 18.3674 28.27 18.1553C28.1939 17.8241 27.8764 17.736 27.5783 17.6903C27.0827 17.612 26.5919 17.7572 26.1221 17.9073C25.2782 18.1781 24.5039 18.6235 23.809 19.1783C24.5541 17.0328 24.8522 14.7291 24.8344 12.4629C24.8263 11.3111 24.7469 10.1527 24.5331 9.02041C24.3144 7.8604 23.9176 6.77381 23.4284 5.70354C22.8874 4.52232 22.2637 3.40636 21.4506 2.39318C21.0586 1.90536 20.639 1.43874 20.1742 1.01944C19.9652 0.831818 19.7481 0.652351 19.5376 0.464726C19.3189 0.270575 19.0808 0.0764243 18.7892 0.0127951C18.6532 -0.0182038 18.475 0.00300597 18.3794 0.122107C17.4334 1.29843 16.894 2.72601 16.4745 4.16501C16.0226 5.71496 15.6727 7.28285 15.6047 8.90131C15.5334 10.6063 15.7375 12.3373 16.0987 14.0014C16.4502 15.6232 16.9928 17.2172 17.7687 18.6823C18.1947 19.4882 18.6888 20.2746 19.246 20.9941C19.429 21.2307 19.6234 21.4526 19.834 21.6598C18.8799 21.1524 17.8999 20.6287 16.8228 20.4655C16.2461 20.3774 15.6014 20.3481 15.0345 20.5161C14.751 20.6009 14.5161 20.7543 14.2813 20.9191C14.027 21.0969 13.9233 21.3596 13.9719 21.6549C13.9589 21.8898 14.0189 22.1068 14.1987 22.2847C14.3866 22.469 14.589 22.655 14.8126 22.8035C15.2596 23.0972 15.8007 23.2685 16.3174 23.3859C17.4739 23.6502 18.671 23.6307 19.8502 23.6209C20.1288 23.6193 20.4074 23.6127 20.6844 23.5948C20.8869 23.5817 21.1056 23.5752 21.3145 23.5409C21.5607 24.8429 21.8944 26.1334 22.1957 27.4223C22.5618 28.9837 22.876 30.5434 23.0396 32.1407C23.2745 34.4493 23.3684 36.7791 23.3927 39.1056V39.1105C23.3279 39.5804 23.281 40.0519 23.2421 40.5234C23.1546 40.3064 23.0655 40.0894 22.9797 39.8741C22.4694 38.5999 21.943 37.3354 21.2594 36.1444C20.5775 34.955 19.753 33.8309 18.7212 32.9254C17.6294 31.9677 16.4227 31.1389 15.1236 30.4928C14.3817 30.1241 13.609 29.8092 12.8218 29.5547C11.9682 29.279 11.074 29.0995 10.175 29.1746C9.91586 29.1958 9.75226 29.403 9.80571 29.664C9.87374 29.9952 10.107 30.2693 10.3338 30.5043C10.5784 30.7571 10.8262 31.0019 11.0659 31.2597C11.6361 31.8698 12.1933 32.4931 12.7408 33.1245C13.8018 34.3465 14.7899 35.6289 15.7618 36.9227C16.745 38.2328 17.7282 39.5364 18.7827 40.791C19.3076 41.4159 19.8405 42.0309 20.3799 42.6428C20.8966 43.2301 21.3971 43.8517 21.9624 44.3934C22.207 44.6283 22.45 44.8535 22.5747 45.1782C22.7043 45.5191 22.7885 45.8813 22.855 46.2403C22.9278 46.6335 22.9197 47.043 22.91 47.4411C22.8987 47.8718 22.9181 48.2992 22.9165 48.7283C22.9165 48.8605 22.9732 48.9535 23.0558 49.0122C22.9667 49.9047 22.8566 50.7971 22.7189 51.6863C22.2216 54.8726 21.5137 58.0264 20.801 61.1687C20.5824 62.1313 20.3523 63.0922 20.1094 64.0499C20.1142 63.9814 20.1207 63.9129 20.1256 63.8444C20.2746 61.6271 20.0883 59.3919 19.6736 57.2122C19.2995 55.2463 18.7293 53.3047 17.9501 51.4628C17.2277 49.7562 16.2817 48.1459 15.0588 46.7526C14.3266 45.9189 13.4973 45.1863 12.5853 44.5582C11.6215 43.8925 10.5929 43.328 9.62591 42.6672C9.47527 42.5645 9.24526 42.6085 9.12215 42.7325C8.98446 42.8712 8.97637 43.0702 9.05736 43.2399C9.48175 44.1389 9.98227 44.9987 10.4536 45.8732C10.9153 46.7281 11.4126 47.5716 11.8013 48.464C12.5853 50.2701 12.7019 52.3128 12.7538 54.2576C12.8056 56.248 12.817 58.2238 13.2381 60.1783C13.6382 62.0285 14.2472 63.8819 15.1009 65.5721C15.5609 66.4842 16.089 67.3848 16.664 68.2283C16.8066 68.4371 16.9653 68.6312 17.1321 68.8205C17.2925 69.0032 17.4156 69.2121 17.5403 69.4209C17.7347 69.7472 17.9161 70.0833 18.0684 70.4324C17.9599 70.5891 17.9453 70.8126 18.0668 70.9578C18.0036 71.1389 17.9421 71.3216 17.8789 71.5027C17.8594 71.5566 17.8578 71.6071 17.8659 71.6512C16.3498 74.9583 14.8352 78.267 13.0259 81.424C12.7473 81.9085 12.4638 82.3915 12.1771 82.8711C12.1933 82.8108 12.2111 82.7504 12.2273 82.69C12.736 80.636 12.6388 78.4546 12.1917 76.3973C11.7284 74.2632 10.8165 72.2907 9.7798 70.3835C9.22906 69.3703 8.63782 68.3784 8.01743 67.406C7.41648 66.4613 6.80581 65.5232 6.11091 64.6438C5.33178 63.6567 4.42306 62.8116 3.42364 62.0562C2.95389 61.7005 2.46794 61.3661 1.9739 61.043C1.48957 60.7265 0.966373 60.4443 0.37676 60.428C0.146746 60.4214 -0.0622104 60.6743 0.0171606 60.9027C0.331405 61.805 0.64565 62.7072 0.917779 63.6225C1.18019 64.51 1.41668 65.4041 1.72121 66.2786C2.33512 68.0423 3.24707 69.6819 3.91444 71.4244C4.58666 73.1783 5.12606 74.9779 5.78857 76.735C6.44621 78.4807 7.23344 80.1857 7.78094 81.9722C7.93158 82.4649 8.06927 82.9641 8.19238 83.465C8.31386 83.9561 8.39485 84.457 8.51148 84.9497C8.62325 85.4261 8.77551 85.8699 9.04764 86.2778C9.15293 86.4376 9.26955 86.5894 9.36026 86.7574C9.3797 86.7933 9.4121 86.8602 9.43153 86.8994C9.39752 86.9581 9.37484 87.0266 9.37484 87.1049C9.37484 87.1637 9.39104 87.2257 9.41858 87.2828C8.38999 88.8784 7.34683 90.4642 6.32473 92.0631C6.04612 92.4971 5.77075 92.9327 5.49538 93.3683C5.20381 93.8317 5.93273 94.2575 6.2243 93.7974C7.88137 91.1674 9.61133 88.5847 11.27 85.9564C11.5924 85.7834 11.9374 85.6382 12.2322 85.4685C13.2089 84.9057 14.1484 84.2743 15.1511 83.7554C16.123 83.2529 17.103 82.7798 18.0392 82.2087C18.9804 81.6361 19.8842 81.0014 20.7346 80.2999C24.1816 77.4545 26.8721 73.8162 30.115 70.7539C31.9567 69.0146 34.0511 67.5903 35.9512 65.9213C36.1731 65.7271 36.037 65.3731 35.7859 65.2932C35.4409 65.1838 35.0538 65.3666 34.7201 65.453C34.2633 65.5705 33.8162 65.7222 33.3708 65.8756C32.5139 66.1709 31.6619 66.476 30.8212 66.8137C29.1285 67.4957 27.4795 68.287 25.8889 69.1843C24.3436 70.0572 22.8517 71.0279 21.4506 72.1194C20.0575 73.2044 18.773 74.4215 17.5582 75.7022C17.0916 76.1933 16.6381 76.6958 16.1926 77.2065C17.0155 75.4983 17.8108 73.7771 18.6029 72.0558C19.2087 70.7392 19.8146 69.4225 20.4317 68.1108C20.6585 67.8334 20.916 67.574 21.1752 67.3342C21.4894 67.0405 21.8588 66.8088 22.2524 66.6375C23.1481 66.2476 24.1621 66.1122 25.113 65.9262C26.2161 65.7108 27.2997 65.4612 28.3704 65.1153C29.3909 64.7858 30.4163 64.4056 31.3477 63.8688C32.258 63.3451 33.0922 62.6893 33.8843 61.9975C34.7055 61.2796 35.4685 60.4998 36.2265 59.7166C36.9733 58.9449 37.7346 58.1879 38.4975 57.4325C39.3512 56.5857 40.1692 55.7129 40.903 54.7584C41.6481 53.7893 42.3268 52.7712 43.0087 51.7564C43.2209 51.4416 42.871 51.0467 42.5357 51.1365C42.1162 51.249 41.7404 51.4693 41.3695 51.6912C41.0001 51.9131 40.6324 52.1382 40.268 52.3699C39.5391 52.8332 38.802 53.2509 38.0019 53.5772C37.1677 53.9166 36.3091 54.1776 35.4636 54.4843C34.6067 54.7943 33.7806 55.1875 32.9577 55.5791C31.393 56.3247 29.7311 56.8321 28.2506 57.7555C26.7862 58.6676 25.4434 59.8161 24.2043 61.0169C24.065 61.1524 23.9289 61.2894 23.7928 61.4281C23.9111 61.2127 24.0261 60.9957 24.1476 60.7804C25.1308 59.02 26.1902 57.3134 27.3985 55.6998C28.5923 54.1058 29.9012 52.5999 31.2667 51.1544C32.6241 49.7154 34.043 48.3368 35.4879 46.9859C37.0057 45.5665 38.6222 44.2563 40.1287 42.8255C40.4786 42.4927 40.8333 42.1631 41.2285 41.8841C41.2496 41.8694 41.269 41.8515 41.2868 41.8352C41.64 42.0538 42.0595 42.1582 42.4742 42.1386C42.9698 42.1158 43.4396 41.9428 43.8235 41.6247C43.8769 41.5806 43.9288 41.535 43.979 41.486C43.9757 41.6116 43.9741 41.7389 43.9774 41.8645C43.9887 42.6656 44.0972 43.4781 44.3062 44.2514C44.7079 45.7329 45.5405 47.105 46.7472 48.0578L46.7456 48.0562ZM18.5009 6.40672C18.5592 5.55833 18.6094 4.7132 18.6208 3.86318C18.6272 3.33783 18.6418 2.81248 18.6758 2.28713L18.6807 2.29692C18.9739 2.90548 19.2023 3.54667 19.429 4.18133C19.9296 5.58117 20.3442 7.00712 20.6925 8.45265C21.0521 9.94549 21.3469 11.4497 21.47 12.9834C21.5899 14.4795 21.6676 15.9837 21.7454 17.4831C21.8037 18.6105 21.8636 19.7395 21.9819 20.8604C21.7243 20.3513 21.4473 19.8521 21.2027 19.3365C20.5726 18.0019 19.9344 16.6625 19.4404 15.2675C18.9431 13.8644 18.6418 12.414 18.5236 10.9277C18.4053 9.42829 18.4005 7.90282 18.5025 6.40346L18.5009 6.40672ZM24.316 19.8504C24.7971 19.4736 25.3349 19.126 25.897 18.8846C26.1885 18.759 26.4898 18.6725 26.796 18.5942C27.0406 18.5322 27.243 18.4963 27.4617 18.5305C27.4488 18.6121 27.4131 18.6872 27.3483 18.7932C27.2155 19.0118 27.0357 19.1946 26.851 19.3691C26.4898 19.7085 26.0994 20.0266 25.6961 20.3171C24.8279 20.9403 23.8884 21.4183 22.889 21.7854C22.8209 21.8099 22.7513 21.836 22.6816 21.8621C22.7966 21.6141 22.9181 21.358 23.025 21.1198C23.4122 20.6564 23.8382 20.2257 24.3176 19.8521L24.316 19.8504ZM18.807 0.942761C18.8621 0.983549 18.9156 1.03086 18.969 1.07818C19.1213 1.21522 19.2784 1.34575 19.4339 1.47953C19.7984 1.79278 20.1353 2.1354 20.4528 2.4976C21.0748 3.20568 21.6061 3.97249 22.0548 4.8013C22.9748 6.49972 23.6649 8.29439 23.8771 10.2277C24.0893 12.1546 24.0504 14.1385 23.7313 16.0506C23.5709 17.0165 23.3377 17.9726 23.0202 18.8993C22.829 19.4556 22.6055 19.9989 22.3674 20.5357C22.2848 19.6677 22.2329 18.7965 22.1876 17.9252C22.1098 16.4275 22.0256 14.9281 21.9236 13.4304C21.8215 11.9327 21.5834 10.4594 21.2513 8.99594C20.9209 7.54226 20.5305 6.10163 20.0511 4.69036C19.7935 3.93007 19.5214 3.16815 19.2039 2.43071C19.0711 2.12398 18.8799 1.80257 18.7487 1.46974C18.7536 1.42406 18.7568 1.37838 18.7633 1.33269C18.7763 1.23643 18.7293 1.17607 18.6629 1.14996C18.7098 1.08144 18.7568 1.01292 18.8054 0.946024L18.807 0.942761ZM17.5484 22.717C17.0706 22.6746 16.5976 22.593 16.1376 22.4543C15.7715 22.345 15.3925 22.2064 15.096 21.9567C15.0118 21.8849 14.9389 21.7658 14.845 21.712C14.8369 21.7071 14.8288 21.7022 14.8223 21.6973C14.819 21.668 14.8142 21.6304 14.8093 21.5945C14.8563 21.5603 14.913 21.4983 14.9357 21.482C15.2483 21.2617 15.6354 21.2405 16.0047 21.2389C16.9669 21.2323 17.8578 21.5864 18.7066 22.0138C19.1715 22.2471 19.6445 22.5506 20.1401 22.766C19.2784 22.7953 18.4037 22.7921 17.5484 22.717ZM20.1061 20.7037C19.6056 20.1196 19.1942 19.4507 18.8054 18.7883C18.0101 17.4342 17.4561 15.9511 17.0722 14.4289C16.677 12.8577 16.4453 11.2262 16.4405 9.6045C16.434 8.02029 16.711 6.49645 17.1273 4.97425C17.4253 3.88602 17.759 2.75864 18.3 1.75526C18.1672 3.10452 18.219 4.46521 18.1235 5.81611C18.0166 7.31874 17.9842 8.823 18.0635 10.3273C18.1413 11.7907 18.3567 13.2428 18.7892 14.6443C19.2152 16.0262 19.8113 17.3461 20.4204 18.6529C20.7686 19.4034 21.1347 20.1392 21.5154 20.8734C21.6012 21.0398 21.6838 21.2095 21.7664 21.3775C21.6482 21.5456 21.5316 21.7169 21.4182 21.8882C20.9743 21.4999 20.4949 21.1557 20.1077 20.7021L20.1061 20.7037ZM24.9251 31.8747C25.2442 30.6332 25.6653 29.4242 26.1092 28.2234C26.5336 27.0732 27.0017 25.9376 27.5816 24.8559C28.189 23.7237 28.939 22.6746 29.7116 21.6516C30.149 21.0724 30.5912 20.4965 31.0447 19.932C31.1241 19.8325 31.21 19.7362 31.2942 19.6416C31.2035 19.994 31.1095 20.3448 31.0107 20.6956C30.7629 21.5733 30.5394 22.456 30.3272 23.3435C30.1182 24.2229 29.9076 25.1023 29.6614 25.9719C29.4233 26.8154 29.1755 27.6801 28.8045 28.4747C28.4385 29.2594 27.946 29.9756 27.4617 30.6886C26.945 31.4473 26.4866 32.2402 26.0087 33.0233C25.701 33.5275 25.3819 34.0251 25.0854 34.5357C25.4078 33.7869 25.7058 33.0282 25.9893 32.2647C26.2549 31.5517 26.4979 30.8289 26.7684 30.1176C27.0438 29.3981 27.3694 28.6998 27.7063 28.008C28.0789 27.2412 28.466 26.4842 28.79 25.6945C28.8693 25.5004 28.547 25.365 28.453 25.551C27.776 26.8986 27.073 28.243 26.5044 29.6428C25.931 31.0525 25.4758 32.5094 24.8927 33.9174C24.661 34.477 24.4132 35.0301 24.1476 35.575C24.3743 34.3351 24.6108 33.0951 24.9235 31.8747H24.9251ZM20.0268 40.9607C18.9642 39.7305 17.9469 38.4661 16.9669 37.169C15.9724 35.8524 14.9778 34.5357 13.9168 33.2746C13.311 32.5551 12.6841 31.8519 12.0475 31.1601C11.7479 30.8338 11.4482 30.5043 11.1323 30.1943C11.0497 30.1127 10.9525 30.0279 10.8618 29.9365C11.3672 29.9691 11.8645 30.0768 12.3537 30.2253C13.0259 30.4292 13.6852 30.6854 14.3218 30.9823C15.5512 31.5582 16.7142 32.2875 17.7623 33.1555C18.7746 33.9941 19.604 34.9763 20.294 36.0971C20.9695 37.1935 21.5202 38.3682 21.9997 39.5641C22.2783 40.2591 22.578 40.9492 22.8209 41.6573C22.9602 42.0619 23.0914 42.4927 23.153 42.9267C23.1514 43.2562 23.1514 43.5858 23.153 43.9154C23.153 44.0589 23.234 44.1895 23.3522 44.2596C23.3474 44.4407 23.3409 44.6234 23.3344 44.8045C23.281 44.6756 23.221 44.5517 23.1433 44.4391C23.1076 44.3869 23.0672 44.3379 23.0283 44.2873C22.9991 44.2253 22.9716 44.1617 22.944 44.0997C22.8096 43.7963 22.6363 43.5222 22.4743 43.2334C22.1212 42.6036 21.8215 41.9461 21.517 41.2919C21.2157 40.6458 20.9079 39.9997 20.5224 39.3993C20.1207 38.7728 19.6704 38.1789 19.2087 37.5965C18.6839 36.9357 18.1413 36.2896 17.6197 35.6256C17.4512 35.4119 17.1548 35.7137 17.3217 35.9258C18.2352 37.0907 19.2233 38.2001 20.043 39.4368C20.8124 40.5968 21.2967 41.9118 21.9446 43.1388C21.8442 43.0245 21.7438 42.9087 21.6433 42.7961C21.1007 42.1876 20.5597 41.5758 20.0268 40.959V40.9607ZM10.9963 83.9577C10.9979 83.6771 10.9623 83.3965 10.925 83.1191C10.844 82.5269 10.8149 81.9314 10.7582 81.3359C10.7031 80.7567 10.5978 80.1857 10.465 79.6195C10.1993 78.4905 9.9029 77.3566 9.50443 76.2684C9.13025 75.2503 8.67508 74.2632 8.18104 73.2974C7.60762 72.1765 6.98075 71.0867 6.3636 69.9903C6.2486 69.7864 5.93921 69.9691 6.0526 70.173C7.08766 72.0264 8.15998 73.8766 8.93749 75.8589C9.33111 76.8623 9.61133 77.895 9.88184 78.9376C10.0276 79.4955 10.1653 80.0584 10.2593 80.6278C10.3548 81.2054 10.3807 81.7878 10.4277 82.3686C10.4779 82.9739 10.661 83.6298 10.5605 84.2384C10.5168 84.5027 10.4407 84.7523 10.4569 85.0231C10.3921 85.1341 10.3241 85.2417 10.256 85.3494C10.2139 85.4147 10.1702 85.4816 10.1281 85.5468C10.1216 85.555 10.1135 85.5615 10.107 85.5697C10.0924 85.5876 10.0827 85.6072 10.0762 85.6268C10.0033 85.7394 9.93206 85.8536 9.86241 85.9678C9.69232 85.7149 9.53196 85.4653 9.44125 85.1634C9.31167 84.736 9.23068 84.2955 9.13997 83.8582C9.04602 83.403 8.93263 82.9544 8.80952 82.5073C8.30576 80.6833 7.53635 78.9588 6.84793 77.2016C6.16113 75.4494 5.59581 73.6547 4.94302 71.891C4.6142 71.0035 4.25946 70.1257 3.86422 69.2659C3.48033 68.4306 3.06404 67.6067 2.71739 66.7534C2.32216 65.7842 2.03221 64.776 1.73417 63.7742C1.48957 62.9536 1.20449 62.146 0.942076 61.3318C1.18991 61.446 1.42316 61.6043 1.6386 61.7495C2.07271 62.0432 2.50196 62.345 2.91987 62.6599C3.78971 63.3141 4.5899 64.0516 5.2848 64.8934C5.96837 65.7206 6.55312 66.6245 7.12978 67.5267C7.74693 68.4942 8.34302 69.4764 8.89861 70.4814C9.93206 72.3495 10.8618 74.2616 11.3591 76.3516C11.8289 78.329 11.9455 80.419 11.4984 82.4127C11.3802 82.938 11.2117 83.4569 10.9979 83.9577H10.9963ZM21.3339 73.1603C24.0099 70.9611 27.0843 69.217 30.2543 67.8546C31.1646 67.4631 32.0911 67.1058 33.0258 66.7795C33.4243 66.6408 33.8211 66.4988 34.2228 66.37C32.8476 67.4566 31.4303 68.4877 30.1247 69.6591C28.4595 71.1536 26.9499 72.8112 25.445 74.4656C23.9289 76.1297 22.4014 77.7906 20.7022 79.2688C19.0484 80.7061 17.1937 81.8139 15.2386 82.7814C14.1663 83.3133 13.1652 83.9528 12.1382 84.5647C12.4039 84.1323 12.6679 83.7 12.9271 83.2643C12.9757 83.1811 13.0243 83.0996 13.0745 83.0163C13.3693 82.6933 13.6803 82.3817 13.9994 82.0815C14.8887 81.2429 15.8088 80.4369 16.7401 79.6473C17.7104 78.8233 18.6953 78.0141 19.7141 77.2506C20.6876 76.5213 21.4668 75.5897 22.2815 74.694C23.2405 73.6416 24.1832 72.5697 25.053 71.4407C25.1875 71.2662 24.9542 71.0149 24.8052 71.1911C23.9904 72.1619 23.153 73.1098 22.301 74.0479C21.4668 74.9664 20.6698 75.9339 19.7125 76.7268C19.2379 77.12 18.7325 77.4773 18.2514 77.864C17.7493 78.2686 17.2504 78.6798 16.7563 79.0958C15.8023 79.9001 14.8628 80.7241 13.9476 81.5741C13.92 81.6002 13.8925 81.6263 13.865 81.6508C14.1241 81.1939 14.3801 80.7355 14.6295 80.2754C16.6268 77.7009 18.8135 75.2291 21.3307 73.1603H21.3339ZM19.4193 63.4006C19.3821 64.6569 19.2185 65.8952 19.0403 67.1384C18.9755 67.5985 18.9026 68.057 18.8378 68.5187C18.7293 68.0635 18.5932 67.6148 18.4863 67.158C18.232 66.0714 17.9599 64.9897 17.7137 63.8998C17.218 61.7022 16.8195 59.4833 16.4453 57.2612C16.2331 56.0049 16.0274 54.747 15.8169 53.4891C15.7715 53.2199 15.3649 53.3341 15.4103 53.6017C15.7926 55.8711 16.1538 58.1455 16.5733 60.41C16.7855 61.5537 17.0139 62.6958 17.2666 63.8313C17.5128 64.9342 17.793 66.0273 18.0457 67.1286C18.1688 67.6605 18.3259 68.1826 18.4507 68.7128C18.4944 68.9021 18.5381 69.1191 18.6143 69.3148C18.5965 69.372 18.5786 69.4307 18.5592 69.4878C18.3065 68.9967 18.0036 68.5301 17.6472 68.1222C17.3508 67.7829 17.1354 67.3831 16.8956 67.003C16.6559 66.6228 16.4227 66.2378 16.2024 65.8446C15.2872 64.2066 14.6554 62.4168 14.1987 60.5976C13.9686 59.6758 13.7969 58.7393 13.7192 57.7931C13.635 56.7766 13.6236 55.7569 13.6009 54.7389C13.5572 52.7419 13.4778 50.6698 12.8105 48.7675C12.4428 47.7217 11.8839 46.764 11.3591 45.7932C11.0724 45.263 10.7776 44.736 10.4909 44.2058C10.9412 44.4815 11.3915 44.7572 11.8337 45.046C12.6453 45.5795 13.3904 46.1832 14.0658 46.8815C15.3341 48.1948 16.3109 49.7578 17.0625 51.4187C17.8449 53.1465 18.3988 54.9885 18.8006 56.8403C19.2687 58.9971 19.4809 61.1915 19.4145 63.399L19.4193 63.4006ZM24.329 62.0301C24.9299 61.4134 25.573 60.8391 26.2274 60.2811C26.8689 59.7329 27.5314 59.2092 28.2344 58.7426C28.9422 58.2727 29.6857 57.8681 30.4649 57.5288C31.2505 57.1878 32.0571 56.8941 32.8427 56.5482C33.6284 56.2007 34.3913 55.8026 35.1882 55.4828C36.0095 55.1533 36.8615 54.9069 37.6892 54.5953C38.6158 54.2461 39.5034 53.8383 40.3457 53.3145C40.6924 53.0992 41.0342 52.8789 41.3824 52.6668C41.0811 53.1057 40.7734 53.5397 40.4559 53.9671C39.8306 54.8041 39.1422 55.5824 38.41 56.3263C37.639 57.1095 36.8453 57.8681 36.0808 58.6561C35.334 59.4262 34.5954 60.2061 33.8082 60.9354C33.0533 61.6353 32.258 62.2977 31.393 62.854C30.5086 63.4234 29.5464 63.8264 28.5551 64.1658C27.52 64.5198 26.4688 64.7988 25.3964 65.0125C24.3662 65.2197 23.2972 65.3617 22.3042 65.7173C22.1455 65.7745 21.9932 65.8413 21.8458 65.9131C22.2281 65.4041 22.6395 64.9195 23.0947 64.4741C23.8447 63.7416 24.7145 63.164 25.6135 62.6354C26.5935 62.0595 27.6172 61.588 28.6669 61.1605C29.6857 60.7445 30.6884 60.3154 31.6214 59.7248C32.6856 59.051 33.6737 58.2629 34.7136 57.55C34.8934 57.426 34.7314 57.1339 34.5403 57.2514C33.5684 57.8518 32.6613 58.5485 31.7056 59.1733C30.7499 59.7982 29.7392 60.273 28.6863 60.7037C27.6464 61.1295 26.6259 61.5782 25.6491 62.1378C24.7258 62.6648 23.8187 63.2472 23.0331 63.9716C22.8307 64.1576 22.6363 64.3534 22.45 64.5541C22.5634 64.3518 22.6784 64.1495 22.7999 63.952C23.2324 63.2472 23.7556 62.624 24.3306 62.0334L24.329 62.0301ZM30.5215 50.2522C30.0437 51.0092 29.4913 51.6928 28.9066 52.3666C28.8321 52.4515 28.7624 52.5412 28.6912 52.6293C29.7003 49.8525 30.7046 47.0609 31.3525 44.1748C31.5453 43.3166 31.7121 42.4535 31.879 41.5921C31.9227 41.3685 31.5906 41.2707 31.5372 41.4974C31.1824 43.005 30.8747 44.5239 30.4616 46.0168C30.0437 47.5292 29.5205 49.0171 29.0038 50.4969C28.7138 51.3273 28.4158 52.1545 28.1161 52.9801C28.0951 52.9621 28.0708 52.9474 28.0432 52.936C28.0902 51.4334 28.2425 49.9373 28.5745 48.4706C28.9309 46.8945 29.4444 45.3544 29.9611 43.8256C30.4794 42.292 31.014 40.7616 31.4837 39.2117C31.7202 38.4302 31.934 37.6454 32.083 36.8411C32.2321 36.0319 32.3309 35.2145 32.4135 34.3954C32.488 33.6661 32.582 32.9385 32.6581 32.2108C32.6937 32.3821 32.7294 32.5535 32.765 32.7231C32.9448 33.6041 33.1586 34.4738 33.2623 35.3678C33.468 37.1494 33.4129 38.949 33.2979 40.7339C33.1894 42.4405 32.9901 44.1454 32.5285 45.7949C32.0895 47.366 31.3946 48.8752 30.5248 50.2522H30.5215ZM54.6358 47.0218C54.4738 47.2844 54.1304 47.4525 53.8015 47.4199C53.4193 47.3807 53.0678 47.1637 52.7551 46.9565C52.3615 46.6938 51.976 46.4165 51.5954 46.1342C50.8421 45.5746 50.1165 44.9775 49.4345 44.3314C48.6214 43.563 47.8503 42.7423 47.0777 41.9331C46.6792 41.5154 46.2807 41.0977 45.8952 40.667C45.764 40.5218 45.6377 40.3717 45.513 40.22C45.9616 40.3489 46.4103 40.4745 46.8558 40.6132C47.7823 40.9003 48.6651 41.2772 49.5333 41.7079C50.1424 42.0097 50.7482 42.3197 51.3572 42.6248C51.9436 42.9413 52.5203 43.2742 53.0807 43.6364C53.3367 43.8028 53.5894 43.9839 53.8388 44.1682C53.8809 44.2123 53.9247 44.2547 53.9652 44.302C54.4074 44.8062 54.741 45.5028 54.7977 46.1473C54.8269 46.4801 54.8026 46.7558 54.6374 47.0218H54.6358ZM56.863 32.5844C56.85 32.5812 56.8549 32.591 56.8614 32.5942C56.8565 32.6203 56.85 32.6481 56.8419 32.6742C56.782 32.8553 56.6362 33.0054 56.5034 33.1375C56.1859 33.4508 55.8328 33.7232 55.4667 33.9761C54.673 34.5211 53.8291 34.9681 52.9382 35.327C52.0181 35.6974 51.0754 36.0041 50.1391 36.3288C48.9939 36.7236 47.8422 37.1005 46.697 37.497C46.4281 37.59 46.1593 37.6862 45.8904 37.7825C46.19 37.5475 46.4865 37.3093 46.7813 37.0662C47.541 36.4365 48.2974 35.8018 49.1025 35.234C49.9221 34.6548 50.7968 34.1703 51.6942 33.7233C52.5818 33.2827 53.5019 32.9042 54.4657 32.6677C54.9046 32.56 55.3533 32.4735 55.8069 32.4474C55.9008 32.498 56.0288 32.4947 56.1244 32.436C56.1875 32.436 56.2507 32.4392 56.3155 32.4425C56.3754 32.4458 56.4354 32.4507 56.4937 32.4572H56.5018C56.5731 32.4702 56.6427 32.4833 56.7124 32.5045C56.7383 32.5127 56.7642 32.5208 56.7901 32.5306C56.7869 32.5306 56.829 32.5551 56.8581 32.5714C56.8581 32.5714 56.8598 32.5747 56.8614 32.5747C56.85 32.5714 56.8436 32.5714 56.8679 32.5844H56.863ZM46.5853 35.9389C46.1674 36.3141 45.7592 36.7024 45.3607 37.0989C45.6506 36.611 45.939 36.1232 46.2208 35.6305C46.7683 34.6744 47.264 33.6922 47.7467 32.7019C48.15 32.0558 48.5582 31.4146 48.9842 30.7833C49.5236 29.9822 50.0938 29.2235 50.8762 28.6443C51.2406 28.3735 51.631 28.1435 52.0424 27.9526C52.402 27.7861 52.8442 27.6083 53.2379 27.6768C54.0785 27.822 53.5424 29.1061 53.2719 29.5629C52.8054 30.3493 52.1591 31.0345 51.5079 31.6675C50.7936 32.3626 50.0274 33.0021 49.2661 33.6449C48.3671 34.4036 47.4616 35.1541 46.5869 35.9405L46.5853 35.9389ZM46.8704 38.5574C47.9573 38.2948 49.0425 38.0239 50.1391 37.8135C52.3372 37.3925 54.5953 37.2245 56.8306 37.3175C57.4202 37.342 58.0115 37.3811 58.5913 37.4986C58.8797 37.5557 59.1534 37.6422 59.4304 37.7384C59.5632 37.7841 59.7058 37.8216 59.8273 37.8885C59.9407 37.9505 60.0476 38.0305 60.1545 38.1055C60.2063 38.205 60.1788 38.2556 60.0767 38.3845C59.9228 38.577 59.7187 38.7222 59.5049 38.8413C59.0611 39.0893 58.5541 39.2345 58.0617 39.3504C56.9391 39.6147 55.7664 39.6799 54.6179 39.7354C53.4339 39.7925 52.2481 39.7941 51.0624 39.7533C49.9091 39.7126 48.7429 39.6832 47.6058 39.4662C46.9465 39.3406 46.2953 39.1937 45.6263 39.1203C45.3915 39.0942 45.1534 39.0779 44.9201 39.0436C45.0254 39.0143 45.1323 38.9849 45.2392 38.9572C45.7802 38.8152 46.3261 38.6912 46.8687 38.5591L46.8704 38.5574ZM59.6151 43.2317C59.7706 43.3933 60.0071 43.6282 60.0476 43.8599C60.0816 44.0638 59.9731 44.302 59.837 44.4472C59.7009 44.5924 59.5195 44.6642 59.3219 44.7213C59.0352 44.8045 58.7404 44.8633 58.4472 44.9106C57.8657 45.0052 57.242 45.0411 56.6621 44.9204C55.9851 44.7784 55.3938 44.4244 54.8237 44.0312C53.8615 42.7309 52.2384 42.137 50.834 41.4175C50.2056 41.0945 49.5722 40.7747 48.9275 40.4875C49.6143 40.5463 50.3044 40.5724 50.9928 40.5985C52.2028 40.6425 53.4128 40.6409 54.6212 40.5838C54.767 40.5773 54.9127 40.5691 55.0585 40.5609C55.2076 40.7143 55.4084 40.7812 55.6222 40.8448C55.9089 40.9297 56.173 41.0569 56.4402 41.1907C57.0347 41.486 57.613 41.8009 58.188 42.1337C58.7161 42.4405 59.1907 42.7912 59.6167 43.2317H59.6151ZM60.8332 36.1232C61.8067 36.0726 63.1333 36.0677 63.7618 36.9439C64.0696 37.373 64.2316 37.9326 64.157 38.4628C64.089 38.9408 63.8347 39.3047 63.4719 39.6179C62.6846 40.295 61.4876 40.6262 60.4525 40.6898C59.3851 40.7551 58.337 40.5675 57.2939 40.357C57.5935 40.313 57.8916 40.2607 58.1864 40.1939C58.7371 40.0715 59.2895 39.9002 59.7965 39.6473C60.2711 39.4107 60.7813 39.0257 60.9709 38.5069C61.0616 38.2605 61.0421 37.9978 60.932 37.7613C60.7975 37.4741 60.4703 37.2588 60.195 37.1135C59.9407 36.9798 59.6264 36.9031 59.3543 36.8133C59.155 36.7481 58.9477 36.7008 58.7404 36.6632C58.7922 36.6437 58.8424 36.6241 58.8926 36.6045C59.5308 36.3582 60.148 36.1591 60.8348 36.1232H60.8332ZM58.7954 31.32C59.6588 31.0378 60.736 30.7833 61.6107 31.1618C61.9492 31.3086 62.3007 31.5647 62.4546 31.909C62.6215 32.2794 62.4724 32.6432 62.2343 32.9548C61.946 33.3301 61.5524 33.6482 61.1814 33.9353C60.7716 34.2519 60.3294 34.5325 59.8742 34.7821C58.8359 35.3482 57.7118 35.7235 56.6168 36.1542C56.4823 36.2081 56.3771 36.3141 56.3495 36.4495C55.8863 36.4397 55.423 36.4397 54.9613 36.4512C53.8226 36.4805 52.6887 36.5849 51.5597 36.7334C53.1034 36.1934 54.6212 35.5946 55.9753 34.6467C56.3835 34.3612 56.7885 34.0528 57.1384 33.6939C57.4688 33.3562 57.7879 32.8846 57.6794 32.3854C57.6421 32.2076 57.5595 32.0689 57.4494 31.9579C57.8932 31.7263 58.3176 31.4766 58.7971 31.32H58.7954ZM54.8998 27.3326C55.2481 27.1384 55.6076 26.9737 55.977 26.8219C56.5974 26.5674 57.4413 26.215 58.107 26.5136C58.6221 26.7436 58.7792 27.3995 58.7776 27.9134C58.7776 28.6264 58.5379 29.3133 58.1346 29.8973C57.6616 30.5842 56.9667 31.0035 56.2621 31.413C56.1843 31.4587 56.1373 31.5207 56.113 31.5876C55.7988 31.5909 55.4991 31.6251 55.2772 31.6561C54.1887 31.8078 53.1471 32.1521 52.1412 32.591C51.8821 32.7036 51.6245 32.8227 51.367 32.945C52.3129 32.1032 53.2038 31.2009 53.8728 30.1355C54.1304 29.7244 54.3507 29.2676 54.4333 28.7846C54.4948 28.4192 54.49 28.008 54.3458 27.6605C54.3539 27.6556 54.362 27.6491 54.3701 27.6442C54.545 27.5382 54.7216 27.4337 54.8998 27.3342V27.3326ZM50.5101 25.0974C50.5376 24.6634 50.5328 24.1919 50.4145 23.7645C50.421 23.7612 50.4275 23.7596 50.434 23.7563C50.5895 23.6878 50.7385 23.6062 50.894 23.5393C51.2066 23.4039 51.5241 23.2766 51.8448 23.1608C52.4231 22.9503 53.0338 22.7496 53.6558 22.7627C53.9117 22.7676 54.1822 22.8051 54.409 22.9356C54.5985 23.045 54.7006 23.2391 54.767 23.443C54.9435 23.9831 55.0488 24.6341 54.8674 25.1822C54.7572 25.5134 54.5645 25.8218 54.3831 26.1187C54.1903 26.432 53.9797 26.7355 53.7627 27.0324C53.071 26.6914 52.1186 27.0683 51.4885 27.3897C50.7109 27.7845 50.0015 28.3392 49.4216 28.9984C49.4556 28.9103 49.4928 28.8254 49.5269 28.7373C49.9788 27.5741 50.4291 26.3569 50.5085 25.099L50.5101 25.0974ZM43.7295 32.201C43.5238 33.2958 43.4153 34.3971 43.3521 35.5081C43.3197 36.058 43.2857 36.6078 43.2663 37.1592C43.2582 37.3958 43.2501 37.6324 43.2549 37.8689C43.2209 37.864 43.1869 37.8592 43.1513 37.8559C43.148 37.8559 43.1432 37.8543 43.1399 37.8526C43.208 37.7629 43.2403 37.6438 43.1982 37.5002C42.6686 35.6566 42.3543 33.7412 42.3008 31.8209C42.249 29.992 42.4013 28.1239 43.0363 26.3961C43.1577 26.0633 43.3116 25.7158 43.5416 25.4433C43.634 25.3323 43.7376 25.2263 43.851 25.1366C43.9093 25.0925 44.0341 25.0207 44.1021 24.9995C44.1021 24.9995 44.1361 24.9946 44.1572 24.9897H44.1604C44.1604 24.9897 44.1734 24.9914 44.1896 24.993L44.1944 24.9963C44.2754 25.0941 44.3289 25.2132 44.3694 25.3682C44.4763 25.7696 44.4844 26.1889 44.5006 26.6017C44.5751 28.4942 44.0746 30.3574 43.7279 32.2027L43.7295 32.201ZM44.2155 37.6128C44.1523 37.7205 44.0891 37.8282 44.0276 37.9358C44.0341 37.8689 44.0405 37.8037 44.0454 37.7368C44.0908 37.2 44.1167 36.6649 44.196 36.1297C44.3742 34.9175 44.7176 33.7298 44.9509 32.5257C45.1857 31.3119 45.4935 30.1257 45.8288 28.9364C45.994 28.3507 46.1528 27.7617 46.3164 27.176C46.4654 26.6425 46.6241 26.1073 46.8574 25.6048C47.2445 24.7711 47.8131 23.8542 48.6813 23.4626C48.8498 23.3859 49.0717 23.306 49.2612 23.3403C49.4151 23.368 49.5431 23.5197 49.6176 23.6535C49.8362 24.0386 49.8103 24.5639 49.7844 24.9914C49.7131 26.1677 49.279 27.313 48.853 28.3996C48.4173 29.5123 47.9184 30.5973 47.4033 31.6741C47.2186 32.0607 47.0323 32.4474 46.8444 32.8324C46.3472 33.6417 45.8661 34.4607 45.4044 35.2911C45.1064 35.8279 44.8148 36.3696 44.5475 36.9227C44.4374 37.1511 44.3289 37.3827 44.2155 37.6128ZM44.8407 42.3556C44.8261 42.1337 44.8197 41.9102 44.8197 41.6883C44.9671 41.8515 45.1177 42.0097 45.2765 42.1631C45.8288 42.695 46.3666 43.2122 46.8542 43.806C47.3628 44.4277 47.8471 45.0688 48.3509 45.6937C48.8255 46.2827 49.3163 46.8586 49.7358 47.4916C49.82 47.6189 49.9269 47.7543 49.9853 47.8963C50.0306 48.0072 49.9982 48.0741 49.9594 48.1557C49.9723 48.1296 49.9399 48.1671 49.9367 48.1753C49.9237 48.1834 49.9091 48.1932 49.9059 48.1948C49.9059 48.1948 49.8978 48.1965 49.8913 48.1997C49.8638 48.2079 49.8346 48.2144 49.8071 48.2209C49.7083 48.2438 49.5463 48.2503 49.4005 48.2503C48.7493 48.2454 48.1387 47.9925 47.6009 47.6368C46.5253 46.9222 45.717 45.79 45.291 44.5745C45.04 43.8615 44.8926 43.111 44.8407 42.3573V42.3556Z" fill="#CC997E" fill-opacity="0.6"/>
</svg>
