<svg width="454" height="454" viewBox="0 0 454 454" fill="none" xmlns="http://www.w3.org/2000/svg">
<mask id="mask0_22_367" style="mask-type:luminance" maskUnits="userSpaceOnUse" x="0" y="0" width="454" height="454">
<path d="M453.6 226.8C453.6 352.1 352 453.6 226.8 453.6C101.5 453.6 0 352 0 226.8C0 101.5 101.6 7.37556e-05 226.8 7.37556e-05C352 -0.0999262 453.6 101.5 453.6 226.8Z" fill="white"/>
</mask>
<g mask="url(#mask0_22_367)">
<path d="M226 457.6C351.534 457.6 453.3 354.178 453.3 226.6C453.3 99.0223 351.534 -4.3999 226 -4.3999C100.466 -4.3999 -1.29999 99.0223 -1.29999 226.6C-1.29999 354.178 100.466 457.6 226 457.6Z" fill="#EBC5A9"/>
</g>
<mask id="mask1_22_367" style="mask-type:luminance" maskUnits="userSpaceOnUse" x="0" y="0" width="454" height="454">
<path d="M453.6 226.8C453.6 352.1 352 453.6 226.8 453.6C101.5 453.6 0 352 0 226.8C0 101.5 101.6 7.37556e-05 226.8 7.37556e-05C352 -0.0999262 453.6 101.5 453.6 226.8Z" fill="white"/>
</mask>
<g mask="url(#mask1_22_367)">
<path d="M329.2 490.7L143.6 496.1C139 473.8 145 409.4 151.5 355.2C153 342.6 154.5 330.6 156 319.8C159.8 291.1 162.9 270.8 162.9 270.8C162.9 270.8 148.1 240 149.7 223.4C151.2 206.8 184.2 157.2 184.2 157.2H206.7C211.9 158.1 217.8 159 223.2 159.7C231.3 160.7 238.2 161.2 239.4 160.1C239.5 160 239.6 159.9 239.6 159.8L259.4 161.3L275 162.5L282.7 163.1L304.4 168.1C304.4 168.1 282.5 247.7 282.1 253.3C282 255.1 286.8 280.4 293.5 313.9C296.2 327.7 299.3 342.8 302.4 358.3C315.1 421.8 329.2 490.7 329.2 490.7Z" fill="#EFE5DC"/>
<path d="M279.9 173.2C280.6 170.3 281.3 167.9 281.7 166.2C281.7 166.1 281.8 165.9 281.8 165.7L281.9 165.3L282.1 164.5L282.3 163.9L282.6 163L277.2 162.5L274.9 162.3L266.9 161.6L259.1 161.2L239 160C237.9 161.1 231 160.6 222.9 159.6C217.5 158.9 211.6 158 206.4 157.1C206.2 163.7 204 173.6 212.2 188.3L227.2 180.2L243.4 197.4C243.5 197.4 267 194.4 279.9 173.2Z" fill="#A8E0D7"/>
<path d="M275 162.3C274.9 162.4 274.9 162.4 275 162.3C269.2 167.2 256 176.9 242.8 176.3C229.8 175.7 224.8 165.2 223.1 159.6C231.2 160.6 238.1 161.1 239.2 160L259.3 161.2L267.1 161.6L275 162.3Z" fill="#F3A080"/>
<path d="M276.9 369.6C276.9 371.6 278.5 373.2 280.5 373.2C282.5 373.2 284.1 371.6 284.1 369.6C284.1 367.6 282.5 366 280.5 366C278.5 366.1 276.9 367.7 276.9 369.6Z" fill="#A897A5"/>
<path d="M184.8 155.2C184.8 155.2 155.9 169.2 152 175.6C148.1 182 108 271.2 106.7 280.2C105.4 289.2 108 307.2 117 312.3C126 317.4 143.4 307.8 156.9 292.4C170.4 276.9 184.8 155.2 184.8 155.2Z" fill="#581F14"/>
<path d="M335.6 513.7L239.8 518.9L238.6 501.3L224.4 294.5L295.7 251V251.1L335.6 513.7Z" fill="#581F14"/>
<path d="M335.6 513.7L239.8 518.9L238.6 501.3L316.3 493.8L283.5 259.8L295.7 251.1L335.6 513.7Z" fill="#3A160D"/>
<path d="M170.8 172.4C170.8 172.4 140.6 225 142.1 242.7C143.6 260.4 159.4 278.1 159.4 278.1L157.5 344.6L166.9 274.6C166.9 274.6 148.8 245.4 148.5 239.3C148.2 233.1 170.8 172.4 170.8 172.4Z" fill="#3A160D"/>
<path d="M203.8 225.7V254.6L194.2 484.5L192.8 517.5L118.9 513L144 357.6L157.4 274.5C157.4 274.5 141.3 244.9 147.1 228.9C152.9 212.8 179.1 158 179.1 158L203.8 225.7Z" fill="#581F14"/>
<path d="M194.2 484.5L192.8 517.5L118.9 513L144 357.6L151.7 428.8C151.7 428.9 179.5 464.5 194.2 484.5Z" fill="#3A160D"/>
<path d="M304.1 167.9C304.1 167.9 314.4 171.9 319.3 175.6C324.2 179.3 381.9 250.7 382.5 264.9C383.1 279.1 327.2 359.5 327.2 359.5L297 336.9L330.8 279.4L288.2 235L288.9 193.7L304.1 167.9Z" fill="#581F14"/>
<path d="M253.2 379C256.7 382.1 275.5 355.8 275.5 355.8L284.2 358.1L277.4 369.9L276.8 389.7C276.8 389.7 280.2 391.4 284.6 393.2C285 393.4 285.4 393.6 285.8 393.7H285.9C286 393.7 286.2 393.8 286.3 393.8C286.8 394 287.3 394.2 287.8 394.4C289.9 395.3 292.2 396.1 294.2 396.6C294.4 396.7 294.7 396.7 294.9 396.8C296.2 397.1 297.3 397.3 298.3 397.4C299.4 397.5 300.3 397.5 300.9 397.2L304.6 382.2C304.6 382.2 324 373.3 325.8 370.6C326.5 369.6 326.9 363.9 327.2 357.6C327.3 355.4 327.3 353 327.3 350.8C327.3 350.8 327.3 350.7 327.3 350.6C327.3 349.8 327.3 349 327.3 348.2L321.2 346L319.7 345.5L319 345.2L318.3 344.9L298 337.5C297.5 337.6 297 337.7 296.5 337.8C294.7 338.2 292.6 338.8 290.3 339.5C288.9 339.9 287.3 340.4 285.8 340.9C280.1 342.7 274.2 345.1 270.1 348C268.4 349.2 266.9 350.5 266 351.8C259.6 361.5 249.7 375.9 253.2 379Z" fill="#F3A080"/>
<path d="M284.6 393.2C285.1 393.4 285.7 393.7 286.3 393.9C286.3 393.8 286.3 393.6 286.4 393.5C286.7 391.2 287.1 388.1 287.6 384.8C288.1 381.5 288.8 378.5 289.6 376.3C289.8 375.8 290 375.3 290.1 374.8C290.3 374.4 290.5 374 290.6 373.7C290.9 373.1 291 372.7 291 372.7C291 372.7 290.7 372.9 290.2 373.4C289.9 373.6 289.6 373.9 289.2 374.3C288.9 374.7 288.5 375.1 288.1 375.6C286.5 377.6 284.9 380.8 284.4 384.5C283.8 388 284.1 391 284.6 393.2Z" fill="#B54B57"/>
<path d="M294.2 396.7C294.4 396.8 294.7 396.8 294.9 396.9C295 396.3 295.1 395.4 295.2 394.4C295.5 392.1 295.9 389 296.4 385.7C296.9 382.4 297.6 379.4 298.4 377.3C298.6 376.8 298.8 376.3 298.9 375.8C299.1 375.4 299.3 375 299.4 374.7C299.7 374.1 299.8 373.7 299.8 373.7C299.8 373.7 299.5 373.9 299 374.4C298.7 374.6 298.4 374.9 298 375.3C297.7 375.7 297.3 376.1 296.9 376.6C295.3 378.6 293.7 381.8 293.2 385.4C292.6 389 293 392.3 293.6 394.5C293.8 395.5 294 396.2 294.2 396.7Z" fill="#B54B57"/>
<path d="M309.2 312.4L345.6 340.1L328.1 361.4L294.9 336.3L309.2 312.4Z" fill="#3A160D"/>
<path d="M267 161.6L259.2 161.2L239.1 160C239.2 159.9 239.3 159.8 239.4 159.7C240.1 158.7 240.4 156.6 240.5 154.1C240.6 151.4 240.5 148.3 240.2 145.4C240.1 144.7 240.1 144 240 143.3C239.7 139.5 239.2 136.6 239.2 136.6L259.2 132.3L263.4 131.4C263.4 131.5 263.4 132.4 263.5 133.7V134.2C263.5 134.8 263.6 135.5 263.6 136.2C263.7 138.7 263.9 141.9 264.1 145.1C264.6 151.5 265.3 158.3 266.4 160.8C266.6 161.2 266.8 161.5 267 161.6Z" fill="#F3A080"/>
<path d="M264.2 145.1C257.9 148.9 249.2 154.1 246.3 154.7C244.7 155 242.6 154.7 240.5 154.1C240.8 147.1 239.3 136.6 239.3 136.6L263.5 131.3C263.5 131.3 263.7 138 264.2 145.1Z" fill="#EA7C6F"/>
<path d="M262.037 46.0146C261.07 45.81 224.862 47.6519 217.019 58.0898C209.176 68.5277 193.597 108.949 199.184 130.439C204.878 151.928 219.597 151.417 224.97 150.803C230.342 150.189 255.913 144.356 262.682 137.807C269.45 131.257 287.93 94.7247 286.963 84.2868C286.104 73.849 262.037 46.0146 262.037 46.0146Z" fill="#F3A080"/>
<path d="M263.7 43.3C262.8 43.1 229.1 44.9 221.8 55.1C214.5 65.3 200 104.8 205.2 125.8C210.5 146.8 224.2 146.3 229.2 145.7C234.2 145.1 258 139.4 264.3 133C270.6 126.6 287.8 90.9 286.9 80.7C286.1 70.5 263.7 43.3 263.7 43.3Z" fill="#F3A080"/>
<path d="M229.5 110.6C230.5 110.6 231.7 110.4 232.6 110.9C230.8 112.8 228.3 113.9 225.7 113.9C225.5 113.9 225.3 113.9 225.1 113.8C224.9 113.7 224.7 113.5 224.5 113.3C223.5 112.1 222.8 110.7 222.3 109.2C222.2 108.9 222.1 108.6 222.2 108.3C222.3 107.3 222.9 107.7 223.4 108.1C224 108.6 224.6 109 225.2 109.4C226.5 110.3 228 110.6 229.5 110.6Z" fill="#EA7C6F"/>
<path d="M225.6 113.4C225.2 112.7 224.7 112 224.3 111.3C223.8 110.4 223.4 109.5 223 108.5C226.9 107.5 228 104.3 229.2 100.6C229.7 98.9 229.9 97.1 229.6 95.4C229.5 94.5 229.2 93.6 228.8 92.7C228.6 92.3 228.4 91.8 228.2 91.4C228 91 227.7 90.7 227.4 90.4C227.5 90.7 227.5 91 227.6 91.3C227.8 92 228.1 92.8 228.3 93.5C228.5 94.3 228.5 95.1 228.6 95.8C228.6 97.4 228.4 99 227.9 100.5C227.4 102 226.7 103.4 225.6 104.5C224.4 105.8 222.8 107 221 107.3C221 107.3 222.2 110.5 222.3 110.8C222.6 111.5 223.1 112.2 223.5 112.8C224 113.4 224.5 114.1 225.3 114.4C225.5 114.5 225.8 114.5 226 114.4C225.9 114.3 225.8 114.1 225.7 114C225.7 113.9 225.6 113.9 225.6 113.8C225.8 113.8 225.7 113.6 225.6 113.4Z" fill="#DD5B67"/>
<path d="M267.8 115.7C269.1 115.3 276.4 108.5 279.8 113.9C283.2 119.4 283 127.5 278.3 131.2C274 134.6 268.2 138.2 262.3 135.6L267.8 115.7Z" fill="#F3A080"/>
<path d="M278.6 120C278.7 121.1 278.3 122.2 277.8 123.1C275.6 127.3 270.9 129.9 266.4 132.3C268 130.4 268.8 128 269 125.6C269.1 124.8 269 123.9 269.2 123.1C269.8 119.9 278.2 113.5 278.6 120Z" fill="#EA7C6F"/>
<path d="M264.2 133.2C264.2 133.2 264.3 133.2 264.4 133.1C264.6 133 264.8 133 265.1 132.8C265.7 132.5 266.5 132 267.4 131.3C268.2 130.5 269.1 129.4 269.6 128.1C270.1 126.7 270.4 125.1 269.9 123.4C269.9 123.2 269.8 123 269.7 122.8L269.6 122.6L269.7 122.5L269.9 122.3C270 122.2 270.1 122 270.3 121.9C270.8 121.3 271.3 120.8 271.8 120.3C272.3 119.8 272.8 119.4 273.3 119C273.8 118.6 274.3 118.2 274.8 118C275.3 117.7 275.8 117.6 276.2 117.6C276.6 117.6 277 117.8 277.3 118C277.5 118.2 277.7 118.4 277.7 118.6C277.7 118.8 277.7 118.8 277.7 118.8C277.7 118.8 277.7 118.7 277.7 118.6C277.7 118.4 277.6 118.2 277.4 117.9C277.2 117.6 276.8 117.4 276.2 117.3C275.6 117.2 275 117.3 274.4 117.5C273.8 117.7 273.2 118 272.6 118.4C272 118.8 271.4 119.2 270.8 119.7C270.2 120.2 269.6 120.7 269.1 121.3C269 121.4 268.8 121.6 268.7 121.8L268.5 122L268.2 122.3L268 122.5C268 122.6 268.1 122.7 268.1 122.8L268.2 123.2C268.3 123.4 268.3 123.6 268.4 123.7C268.8 125.2 268.7 126.6 268.3 127.9C267.9 129.2 267.3 130.2 266.7 131.1C266 131.9 265.4 132.5 264.8 132.9C264.5 133.1 264.3 133.2 264.2 133.3C264.3 133.2 264.2 133.2 264.2 133.2Z" fill="#B54B57"/>
<path d="M244.6 115.3C244.5 117.1 248.3 118.7 253 118.8C257.7 119 261.6 117.6 261.6 115.9C261.7 114.1 257.9 112.5 253.2 112.4C248.5 112.2 244.7 113.5 244.6 115.3Z" fill="#EA7C6F"/>
<path d="M201.2 98.9001C200.4 100 202.5 102.8 205.9 105.1C209.2 107.4 212.6 108.4 213.4 107.3C214.2 106.2 212.1 103.4 208.7 101.1C205.3 98.8001 201.9 97.8001 201.2 98.9001Z" fill="#EA7C6F"/>
<path d="M213.9 120.8C213.9 120.8 231 115.1 245.1 124.9C245.1 124.9 236.5 136.5 228.4 135.2C218.6 133.8 213.9 120.8 213.9 120.8Z" fill="#7A2626"/>
<path d="M215 122.149C215 122.149 226.344 121.071 244 124.71C244 124.71 238.476 131.111 228.02 129.831C217.565 128.55 215 122.149 215 122.149Z" fill="white"/>
<path d="M219.9 59.0001C219.9 59.0001 265 68.1001 271.2 77.0001C277.4 85.9001 285.5 65.0001 266.9 53.5001C248.3 42.0001 253.1 42.7001 248.3 42.0001C243.5 41.3001 258.9 35.4001 240.4 41.5001C222 47.5001 218.6 49.5001 218.6 49.5001L220 58.5001L219.9 59.0001Z" fill="#491815"/>
<path d="M339.4 192.1C338.2 189.7 302.2 158.7 302.2 158.7C302.2 158.7 314.3 72.1001 302.6 59.2001C294.4 50.1001 283.8 41.3001 274.3 36.0001C270.3 33.8001 266.5 32.1001 263.2 31.4001C230.8 24.2001 206 51.3001 201.1 59.8001C196.3 68.3001 186.7 131.4 190.3 156.3C190.3 156.3 178.7 153.7 179.2 158.1C182.7 187.1 209.7 302.9 235.9 308.7C266.1 315.3 340.6 194.5 339.4 192.1ZM270 118.8C265.2 127.3 254.5 145.4 223.3 148.8C212.7 150 204.5 130 202.5 114.3C200.4 97.6001 211.3 75.1001 211.3 75.1001C211.3 75.1001 241.2 42.9001 254.2 56.2001C267.2 69.4001 274.8 110.3 270 118.8Z" fill="#AA3527"/>
<path d="M206.6 176.4C206.6 176.4 218.6 286.5 237.9 283.5C257.2 280.5 311.6 197.4 310.8 199.9C309.9 202.5 251.7 265 243.9 256.5C236.1 248 206.6 176.4 206.6 176.4Z" fill="#4F2F2C"/>
<path d="M233.6 171.7C233.6 171.7 274.7 178.6 286.7 157.6C286.7 157.6 275.6 193.6 233.6 171.7Z" fill="#4F2F2C"/>
<path opacity="0.47" d="M274.3 35.9001C232.6 30.0001 211 55.9001 204 62.8001C195 71.8001 190.3 156.2 190.3 156.2C186.7 131.2 196.2 68.1001 201.1 59.7001C206 51.2001 230.7 24.0001 263.2 31.3001C266.5 32.1001 270.3 33.7001 274.3 35.9001Z" fill="#603D39"/>
<path d="M45.9712 333.053L233.871 333.304L233.892 317.804L45.9919 317.553L45.9712 333.053Z" fill="#C4ADA1"/>
<path d="M46 333L206.1 333.3L179.5 223.5L19.4 223.3L46 333Z" fill="#F7E4D9"/>
<path d="M48.1 298.5C48.5 299.1 48.7 299.9 48.7 301C48.9 305.1 40.6 316 40.6 316L47.5 317.7C47.5 317.7 52.3 302.1 57 296.1C58.2 295.7 60.2 295.4 61.9 296.3C62 296.3 62 296.4 62.1 296.4C65 301.5 58.3 320.7 58 320.9C58.2 320.7 70.1 311.1 71.5 307.2C72.9 303.2 76.4 296.7 78 296.1C78.2 296 78.3 296 78.5 296C78.7 296 79 296.1 79.2 296.2C80 296.5 80.8 297.3 81.4 298.6C82.2 300.5 82.5 303.7 81.4 308.3C81.4 308.4 82.2 309.2 82.9 310.5C83 310.7 83.2 311 83.3 311.2C84 312.7 84.6 314.5 84.3 316.3C83.7 319.8 73.6 337.9 66 341.9C65 342.5 64 342.7 63.1 342.7C55.5 342.4 34.8 325.9 34.8 325.9C31.7 325.3 29.8 321.2 28.8 318.2C27.7 315.2 34 305 40.2 300.8C44.7 297.7 47.1 297.1 48.1 298.5Z" fill="#F3A080"/>
<path d="M81.5 308.3C81.4 308.5 75 321.1 68.7 327C71.2 324.7 78.8 317.5 83.1 310.5C82.3 309.2 81.5 308.3 81.5 308.3Z" fill="#B54B57"/>
<path d="M66.1 342C55.6 338.9 36.5 325 34.5 323.9C32.3 322.7 30 321 34.6 311.5C37.6 305.3 44 300.9 48 298.5C47 297 44.6 297.7 40.1 300.8C33.9 305 27.7 315.2 28.7 318.2C29.8 321.2 31.6 325.3 34.7 325.9C34.7 325.9 55.3 342.4 62.9 342.7C64.1 342.8 65 342.5 66.1 342Z" fill="#F8BF92"/>
<path d="M61.9 296.3C62 296.3 62 296.4 62.1 296.4C65 301.5 58.3 320.7 58 320.9C58 320.9 58.8 313.8 58.9 312.8C59.1 311.8 60.9 300.4 61.9 296.3Z" fill="#B54B57"/>
<path d="M119.1 270.9C114.6 270.9 110.9 267.2 110.9 262.7C110.9 260.8 111.6 259.1 112.6 257.7C112 257.6 111.5 257.5 110.9 257.5C103.7 257.5 97.9 263.3 97.9 270.5C97.9 277.7 103.7 283.5 110.9 283.5C118.1 283.5 123.9 277.7 123.9 270.5C123.9 270.1 123.8 269.8 123.8 269.4C122.4 270.4 120.8 270.9 119.1 270.9Z" fill="#C96A50"/>
</g>
</svg>
