<svg width="2800" height="584" viewBox="0 0 2800 584" fill="none" xmlns="http://www.w3.org/2000/svg">
<path d="M2800 252H3V564H2800V252Z" fill="#FBFBFB"/>
<path d="M2206 452.5C2278.2 423.2 2321.7 392.2 2450.9 394.2C2580.1 396.2 2748.5 469 2765.5 474C2782.5 479 2800 482 2800 482V0L0 0C0 0 1.5 261.9 2.8 389.8C43.2 449.1 36.1 583 683.1 560C728.7 558.4 802.4 541 833.6 531.5C900.6 510.5 1042.7 465.9 1075.1 455.5C1115.6 442.5 1150.6 429.5 1247.1 429.5C1324.3 429.5 1383.3 446.8 1403.1 455.5C1403.1 455.5 1502.1 503 1602.1 537C1702.1 571 1764.5 561 1773.1 560C1781.7 559 1802.5 557 1845.1 544.5C1887.7 532 1954.3 511.3 2001.7 497.8C2058 481.8 2133.8 481.7 2206 452.5Z" fill="#CC997E"/>
<path d="M1364.94 291.409C1357.13 294.794 1351.71 301.991 1347.08 308.872C1348.4 301.477 1349.46 294.028 1350.28 286.551C1350.32 286.524 1350.35 286.497 1350.38 286.47C1350.78 286.484 1351.19 286.398 1351.6 286.245C1353.68 285.447 1355.83 284.933 1357.89 284.05C1359.8 283.225 1361.66 282.256 1363.35 281.053C1364.97 279.908 1366.58 278.656 1367.96 277.231C1369.32 275.825 1370.32 274.221 1371.1 272.427C1371.88 270.598 1372.49 268.511 1371.55 266.614C1370.68 264.861 1368.78 264.424 1367 264.753C1365.21 265.082 1363.49 266.1 1362.01 267.114C1360.3 268.286 1358.72 269.669 1357.29 271.17C1354.65 273.928 1352.49 277.069 1350.9 280.539C1351.53 273.734 1351.99 266.907 1352.23 260.07C1352.68 260.151 1353.15 260.061 1353.66 259.705C1353.98 259.475 1354.23 259.196 1354.53 258.935C1354.83 258.669 1355.17 258.439 1355.49 258.2C1356.27 257.632 1357.05 257.073 1357.82 256.515C1359.39 255.388 1360.94 254.252 1362.44 253.035C1363.85 251.886 1365.26 250.674 1366.39 249.245C1367.51 247.839 1368.35 246.275 1368.48 244.45C1368.57 243.031 1368.07 241.435 1366.59 240.967C1365.08 240.489 1363.24 241.39 1362.01 242.215C1360.64 243.13 1359.47 244.302 1358.4 245.541C1356.06 248.24 1353.94 251.183 1352.38 254.405C1352.44 251.336 1352.45 248.263 1352.42 245.194C1352.4 243.508 1352.37 241.823 1352.33 240.137C1352.36 240.088 1352.39 240.034 1352.41 239.984C1352.62 239.516 1352.81 239.029 1352.98 238.542C1353.3 237.659 1353.6 236.771 1353.91 235.888C1354.53 234.085 1355.13 232.264 1355.57 230.408C1356.25 227.564 1356.69 224.454 1356.33 221.525C1356.18 220.353 1355.85 219.028 1354.72 218.438C1353.35 217.722 1352.07 218.645 1351.25 219.727C1349.52 222.03 1348.74 225.13 1348.45 227.947C1348.02 232.098 1348.84 236.257 1349.41 240.354C1349.45 240.62 1349.61 240.836 1349.83 240.994C1349.83 241.012 1349.83 241.03 1349.84 241.048C1349.9 241.282 1350.02 241.467 1350.16 241.598C1350.14 245.649 1350.07 249.705 1349.96 253.756C1348.66 251.99 1347.11 250.408 1345.4 249.034C1344.1 247.992 1342.71 247.1 1341.29 246.244C1339.97 245.451 1338.41 244.617 1336.83 244.68C1335.39 244.739 1334.02 245.55 1333.52 246.938C1333.08 248.128 1333.46 249.43 1333.95 250.53C1334.44 251.62 1335.16 252.621 1335.95 253.509C1336.83 254.487 1337.95 255.23 1339.05 255.938C1340.53 256.893 1342.12 257.686 1343.79 258.241C1344.65 258.524 1345.52 258.736 1346.41 258.867C1347.42 259.02 1348.45 259.034 1349.46 259.182C1349.57 259.196 1349.68 259.214 1349.78 259.232C1349.52 266.127 1349.11 273.018 1348.49 279.89C1348.44 280.409 1348.38 280.927 1348.33 281.441C1347.88 280.796 1347.44 280.134 1347 279.476C1345.87 277.786 1344.65 276.172 1343.3 274.654C1341.96 273.139 1340.51 271.724 1338.95 270.444C1337.53 269.282 1335.98 268.015 1334.32 267.218C1333.5 266.821 1332.61 266.537 1331.69 266.654C1330.68 266.781 1329.82 267.353 1329.25 268.205C1328.24 269.728 1328.64 271.756 1329.26 273.347C1330.59 276.754 1333.03 279.286 1336.13 281.152C1337.58 282.031 1339.13 282.752 1340.69 283.433C1342.51 284.226 1344.32 285.064 1346.16 285.817C1346.71 286.042 1347.26 286.245 1347.83 286.42C1347.01 293.937 1345.93 301.432 1344.59 308.872C1344.42 308.661 1344.24 308.449 1344.07 308.237C1344.05 308.214 1344 308.151 1343.98 308.12C1343.95 308.079 1343.92 308.039 1343.89 307.998C1343.79 307.867 1343.69 307.732 1343.59 307.602C1342.46 306.083 1341.16 304.695 1339.85 303.329C1338.13 301.536 1336.31 299.837 1334.28 298.399C1332.85 297.39 1331.2 296.353 1329.45 296.06C1328.48 295.898 1327.46 295.956 1326.62 296.538C1325.68 297.2 1325.23 298.277 1325.19 299.413C1325.12 301.328 1326.08 303.383 1327.05 304.983C1328.11 306.732 1329.72 308.079 1331.46 309.116C1333.22 310.161 1335.14 310.927 1337.07 311.572C1337.92 311.856 1338.8 312.086 1339.64 312.388C1340.63 312.739 1341.6 313.145 1342.62 313.393C1342.97 313.478 1343.33 313.546 1343.7 313.586C1343.31 315.556 1342.91 317.521 1342.48 319.477C1342.02 321.595 1341.52 323.704 1341 325.804C1340.84 325.425 1340.67 325.047 1340.51 324.673C1340.22 324.019 1339.81 323.438 1339.4 322.852C1338.02 320.874 1336.43 319.048 1334.73 317.34C1333.25 315.858 1331.7 314.321 1329.9 313.217C1328.14 312.131 1325.81 311.513 1323.93 312.694C1322.04 313.875 1321.89 316.164 1322.77 318.039C1323.61 319.819 1325.09 321.338 1326.61 322.537C1328.23 323.812 1330 324.848 1331.85 325.75C1333.85 326.723 1335.91 327.624 1337.97 328.458C1338.48 328.666 1338.98 328.859 1339.51 328.994C1339.61 329.022 1339.74 329.044 1339.86 329.076C1339.93 329.193 1340 329.314 1340.08 329.432C1338.32 336.169 1336.31 342.834 1334.18 349.468C1334.04 349.306 1333.9 349.139 1333.76 348.986C1332.44 347.499 1331.15 345.984 1329.77 344.551C1328.35 343.078 1326.85 341.694 1325.21 340.468C1323.5 339.184 1321.59 338.224 1319.64 337.345C1318.58 336.868 1317.42 336.62 1316.27 336.548C1315.13 336.475 1313.69 336.494 1312.78 337.26C1311.16 338.621 1311.42 340.685 1312.34 342.366C1314.14 345.637 1317.28 347.967 1320.58 349.545C1322.24 350.338 1323.96 350.987 1325.7 351.573C1326.61 351.879 1327.51 352.172 1328.4 352.528C1329.33 352.902 1330.25 353.303 1331.22 353.601C1331.71 353.754 1332.21 353.876 1332.72 353.957C1332.29 355.268 1331.85 356.575 1331.41 357.886C1329.27 364.308 1327.03 370.703 1324.59 377.022C1324.1 378.301 1323.59 379.577 1323.07 380.848C1322.04 378.162 1321.02 375.471 1320.03 372.772C1317.03 364.637 1313.57 356.71 1310.32 348.679C1309.07 345.592 1307.88 342.474 1306.76 339.337C1307.43 339.067 1308.06 338.503 1308.65 338.098C1310.08 337.111 1311.39 335.966 1312.6 334.727C1313.83 333.465 1314.95 332.1 1316 330.684C1316.99 329.351 1317.95 327.971 1318.7 326.484C1319.38 325.128 1320.07 323.51 1320.09 321.96C1320.11 320.337 1318.77 318.755 1317.07 319.021C1316.3 319.143 1315.53 319.418 1314.86 319.824C1314.18 320.234 1313.66 320.81 1313.06 321.293C1311.73 322.343 1310.61 323.65 1309.73 325.096C1308.82 326.588 1307.94 328.053 1307.25 329.661C1306.54 331.288 1305.95 332.956 1305.41 334.646C1305.36 334.795 1305.32 334.943 1305.27 335.092C1303.05 328.548 1301.11 321.906 1299.43 315.204C1299.92 315.001 1300.36 314.663 1300.77 314.285C1302.07 313.073 1303.32 311.806 1304.61 310.585C1307.44 307.908 1310.26 305.168 1312.48 301.937C1313.44 300.544 1314.38 299.039 1315.07 297.493C1315.74 295.974 1316.34 293.924 1315.3 292.414C1313.37 289.656 1309.33 292.338 1307.47 293.775C1302.44 297.664 1299.79 303.595 1298.08 309.598C1297.39 306.552 1296.74 303.496 1296.16 300.436C1295.07 294.758 1294.2 289.025 1293.51 283.275C1293.6 282.919 1293.7 282.567 1293.8 282.211C1293.81 282.207 1293.82 282.202 1293.82 282.198C1294.75 281.657 1295.65 281.071 1296.53 280.458C1300.03 278.043 1303.35 275.321 1306.71 272.716C1308.42 271.395 1310.14 270.052 1311.68 268.534C1312.41 267.813 1313.07 267.028 1313.68 266.199C1314.26 265.411 1314.88 264.717 1315.22 263.779C1315.37 263.36 1315.53 262.806 1315.47 262.36C1315.4 261.819 1314.94 261.296 1314.51 260.99C1313.71 260.426 1312.97 260.683 1312.1 260.737C1309.95 260.868 1308.18 261.877 1306.32 262.86C1302.82 264.712 1299.32 267.11 1296.88 270.282C1295.13 272.549 1293.88 275.14 1292.9 277.831C1291.95 268.286 1291.48 258.687 1291.4 249.124C1291.95 248.984 1292.5 248.763 1292.99 248.578C1295.13 247.79 1297.14 246.546 1299.08 245.343C1301.06 244.108 1302.99 242.783 1304.88 241.417C1306.57 240.205 1308.28 239.024 1309.88 237.695C1310.66 237.05 1311.41 236.361 1312.08 235.604C1312.42 235.221 1312.71 234.793 1313.05 234.405C1313.36 234.044 1313.71 233.72 1313.94 233.287C1314.38 232.463 1314.52 231.322 1314.12 230.453C1313.74 229.623 1312.53 229.074 1311.68 228.929C1310.62 228.754 1309.53 228.984 1308.5 229.236C1307.5 229.484 1306.52 229.84 1305.58 230.263C1303.57 231.174 1301.68 232.422 1299.92 233.734C1298.19 235.018 1296.47 236.397 1295.02 237.988C1293.57 239.565 1292.49 241.35 1291.42 243.184C1291.53 236.253 1291.95 229.34 1292.83 222.453C1293.03 220.867 1293.26 219.29 1293.5 217.708C1293.68 217.658 1293.86 217.604 1294.04 217.564C1295.05 217.32 1295.85 216.825 1296.73 216.306C1297.64 215.77 1298.56 215.27 1299.5 214.774C1301.31 213.805 1303.1 212.809 1304.87 211.768C1308.35 209.718 1311.73 207.487 1314.82 204.878C1315.58 204.233 1316.33 203.53 1317.04 202.827C1317.44 202.435 1317.71 201.93 1318.01 201.462C1318.14 201.25 1318.3 201.043 1318.42 200.817C1318.59 200.479 1318.54 200.173 1318.49 199.817C1318.41 199.285 1318.43 198.618 1317.97 198.262C1317.58 197.969 1317.03 197.793 1316.58 197.595C1316.03 197.347 1315.6 197.383 1315 197.415C1314.43 197.446 1313.83 197.446 1313.26 197.505C1312.75 197.554 1312.24 197.753 1311.75 197.892C1311.2 198.05 1310.65 198.203 1310.1 198.361C1309.11 198.64 1308.16 199.073 1307.23 199.515C1305.45 200.371 1303.75 201.412 1302.14 202.566C1300.55 203.71 1299.03 204.981 1297.68 206.405C1296.64 207.496 1295.71 208.681 1294.81 209.898C1295.61 205.545 1296.5 201.205 1297.43 196.878C1297.74 195.481 1298.05 194.084 1298.36 192.683C1298.69 192.534 1298.95 192.273 1299 191.912C1299.03 191.727 1299.25 191.484 1299.49 191.191C1299.88 190.695 1300.23 190.159 1300.59 189.641C1301.29 188.663 1302.01 187.698 1302.67 186.693C1303.96 184.711 1304.92 182.588 1305.94 180.452C1307.58 176.986 1309.58 173.665 1310.68 169.965C1311.05 168.717 1311.39 167.292 1311.09 165.995C1310.71 164.359 1309.09 163.674 1307.56 164.147C1306.58 164.449 1305.75 165.066 1304.93 165.666C1303.98 166.36 1303.08 167.108 1302.28 167.977C1300.72 169.676 1299.67 171.695 1298.86 173.841C1297.98 176.134 1297.3 178.577 1296.86 180.993C1296.34 183.836 1296.31 186.72 1296.34 189.605C1296.34 189.835 1296.4 190.028 1296.48 190.191C1294.79 197.775 1293.19 205.378 1291.91 213.026C1291.33 211.795 1290.66 210.61 1289.96 209.438C1289.15 208.095 1288.31 206.775 1287.42 205.486C1286.55 204.224 1285.67 202.931 1284.63 201.8C1283.69 200.772 1282.55 199.911 1281.36 199.217C1280.69 198.825 1280.04 198.78 1279.3 198.654C1278.56 198.528 1277.89 198.442 1277.17 198.713C1275.92 199.177 1274.75 199.826 1273.81 200.79C1273.36 201.245 1272.9 201.777 1272.55 202.309C1272.15 202.922 1272.02 203.692 1271.9 204.395C1271.76 205.189 1272.03 205.802 1272.32 206.518C1272.57 207.149 1272.89 207.726 1273.29 208.271C1274.05 209.299 1274.97 210.173 1275.96 210.971C1278.37 212.908 1280.94 214.792 1283.68 216.234C1284.4 216.613 1285.14 216.942 1285.89 217.271C1286.74 217.645 1287.55 218.001 1288.48 218.109C1288.87 218.154 1289.26 218.15 1289.64 218.19C1290.12 218.24 1290.59 218.357 1291.07 218.37C1289.96 225.987 1289.21 233.652 1289.05 241.399C1289.02 242.769 1289.01 244.144 1289 245.518C1288.8 245.28 1288.59 245.045 1288.38 244.824C1287.79 244.225 1287.18 243.653 1286.55 243.103C1285.26 241.994 1283.89 240.985 1282.44 240.097C1280.99 239.209 1279.48 238.438 1277.87 237.902C1277.07 237.636 1276.26 237.429 1275.44 237.285C1274.6 237.132 1273.76 236.942 1272.91 236.803C1271.13 236.514 1269.31 236.428 1267.51 236.492C1265.88 236.55 1264.06 236.92 1262.65 237.799C1260.14 239.371 1259.34 242.598 1260.57 245.243C1261.73 247.754 1264.37 248.997 1266.96 249.381C1270.06 249.836 1273.23 249.687 1276.34 249.579C1278.17 249.516 1280 249.475 1281.82 249.457C1283.69 249.439 1285.49 249.236 1287.33 248.961C1287.81 248.889 1288.28 248.795 1288.76 248.705C1288.83 248.763 1288.91 248.817 1288.99 248.867C1289.03 259.223 1289.59 269.629 1290.71 279.94C1290.58 279.89 1290.46 279.845 1290.33 279.796C1288.91 279.246 1287.56 278.529 1286.13 278.025C1283.16 276.975 1280.05 276.443 1276.92 276.159C1275.34 276.015 1273.76 275.947 1272.18 275.983C1270.56 276.024 1268.88 276.078 1267.28 276.339C1266.56 276.456 1265.82 276.628 1265.13 276.898C1264.48 277.15 1263.84 277.799 1263.51 278.403C1262.85 279.588 1263.2 280.927 1263.95 281.972C1265.62 284.298 1268.69 284.893 1271.36 285.109C1274.74 285.384 1278.12 284.852 1281.47 284.51C1283.22 284.334 1284.96 284.208 1286.71 284.027C1288.21 283.874 1289.68 283.744 1291.09 283.261C1291.51 286.758 1292 290.238 1292.54 293.703C1293.5 299.71 1294.68 305.677 1296.07 311.594C1295.63 311.297 1295.18 311.022 1294.69 310.788C1290.96 308.99 1286.88 309.021 1282.84 309.183C1280.74 309.269 1278.63 309.431 1276.59 309.895C1275.02 310.251 1272.32 311.058 1272.89 313.244C1273.16 314.24 1274.08 314.965 1274.89 315.515C1275.65 316.033 1276.53 316.412 1277.41 316.678C1279.34 317.264 1281.46 317.309 1283.46 317.291C1285.63 317.268 1287.78 317.043 1289.92 316.691C1292.01 316.344 1294.06 315.772 1296.16 315.47C1296.43 315.43 1296.7 315.384 1296.98 315.33C1298.74 322.356 1300.79 329.31 1303.11 336.169C1302.98 336.137 1302.85 336.101 1302.72 336.07C1301.4 335.736 1300.05 335.47 1298.7 335.286C1295.89 334.898 1293.08 334.853 1290.27 335.29C1288.03 335.642 1285.87 336.399 1283.77 337.26C1281.95 338.003 1279.62 339.355 1280.29 341.726C1281.02 344.285 1284.62 344.448 1286.73 344.412C1289.98 344.358 1293.27 343.826 1296.4 342.938C1297.96 342.496 1299.49 341.965 1301.02 341.401C1301.79 341.117 1302.56 340.838 1303.35 340.599C1303.74 340.477 1304.15 340.396 1304.54 340.275C1304.82 341.063 1305.11 341.856 1305.39 342.645C1308.36 350.761 1311.98 358.617 1315.12 366.665C1317.37 372.447 1319.54 378.27 1321.73 384.088C1320.09 387.995 1318.37 391.871 1316.63 395.742C1313.87 401.862 1311.26 408.126 1308.02 414.003C1305.19 419.149 1301.76 423.922 1298.05 428.469C1297.1 429.645 1296.13 430.804 1295.15 431.962C1294.12 433.17 1295.86 434.927 1296.88 433.71C1300.75 429.15 1304.5 424.467 1307.69 419.402C1311.17 413.895 1313.78 407.937 1316.47 402.02C1318.68 397.175 1320.89 392.331 1322.98 387.432C1323.45 388.667 1323.91 389.906 1324.38 391.141C1330.65 407.626 1336.06 424.431 1341.63 441.164C1342.31 443.228 1343.01 445.288 1343.71 447.347C1344.1 448.488 1345.89 448.014 1345.52 446.847C1340.38 430.159 1335.19 413.471 1329.2 397.067C1327.62 392.759 1325.98 388.477 1324.35 384.196C1324.51 383.795 1324.68 383.389 1324.85 382.988C1327.4 376.72 1329.73 370.361 1331.94 363.957C1333.04 360.771 1334.12 357.58 1335.18 354.38C1335.58 354.466 1336 354.457 1336.43 354.344C1336.85 354.236 1337.24 354.065 1337.67 354.002C1338.21 353.916 1338.76 353.88 1339.31 353.835C1341.63 353.632 1343.92 353.168 1346.22 352.803C1348.37 352.46 1350.55 352.334 1352.7 351.96C1356.14 351.365 1360.3 349.829 1361.71 346.295C1362.34 344.723 1362.1 342.942 1360.79 341.798C1359.66 340.815 1358.18 340.378 1356.72 340.216C1353.02 339.806 1349.15 341 1345.91 342.713C1342.53 344.502 1339.55 347.021 1336.82 349.693C1336.77 349.743 1336.72 349.797 1336.67 349.847C1338.72 343.461 1340.66 337.034 1342.35 330.54C1342.76 330.45 1343.17 330.279 1343.58 330.157C1343.6 330.153 1343.62 330.148 1343.63 330.144C1343.67 330.13 1343.71 330.121 1343.75 330.112C1345.06 329.77 1346.39 329.513 1347.69 329.157C1348.84 328.841 1349.97 328.481 1351.12 328.161C1355.64 326.899 1360.28 325.88 1364.46 323.654C1367.15 322.217 1369.74 320.098 1371.41 317.498C1372.21 316.241 1372.77 314.704 1372.41 313.199C1372.23 312.469 1371.81 311.784 1371.27 311.27C1370.96 310.968 1370.59 310.698 1370.22 310.472C1369.6 310.103 1368.86 310.071 1368.16 310.035C1365.66 309.909 1363.3 310.797 1361.05 311.788C1358.93 312.73 1357.1 314.087 1355.25 315.479C1351.35 318.404 1347.87 321.82 1344.61 325.452C1344.15 325.971 1343.7 326.498 1343.24 327.021C1343.4 326.372 1343.56 325.727 1343.71 325.078C1344.65 321.148 1345.48 317.201 1346.25 313.239C1346.36 313.172 1346.46 313.091 1346.55 312.996C1346.56 312.996 1346.58 312.996 1346.59 312.987C1347.07 312.879 1347.5 312.613 1347.91 312.356C1348.39 312.059 1348.87 311.847 1349.39 311.617C1350.66 311.045 1351.9 310.387 1353.17 309.787C1355.56 308.647 1358.06 307.768 1360.51 306.772C1362.88 305.808 1365.14 304.704 1367.23 303.208C1369.14 301.838 1371.05 300.31 1372.69 298.62C1374.31 296.961 1375.3 294.915 1374.92 292.554C1374.14 287.709 1367.72 290.192 1364.94 291.396L1364.94 291.409ZM1357.35 274.78C1358.64 273.239 1360.05 271.787 1361.59 270.499C1362.32 269.895 1363.08 269.336 1363.87 268.831C1364.29 268.565 1364.72 268.313 1365.16 268.078C1365.38 267.961 1365.6 267.853 1365.82 267.745C1365.9 267.704 1365.99 267.668 1366.07 267.628C1366.1 267.614 1366.27 267.542 1366.31 267.524C1366.97 267.258 1367.59 267.087 1368.19 267.096C1368.71 267.101 1369.07 267.209 1369.34 267.709C1370.06 269.047 1369.11 270.904 1368.52 272.143C1367.7 273.838 1366.58 275.208 1365.18 276.456C1363.77 277.718 1362.25 278.894 1360.63 279.872C1358.88 280.931 1357 281.864 1355.06 282.518C1354.16 282.82 1353.24 283.054 1352.34 283.342C1353.58 280.255 1355.21 277.34 1357.35 274.78H1357.35ZM1358.93 248.682C1359.9 247.465 1360.92 246.271 1362.07 245.23C1363.04 244.351 1364.43 243.315 1365.71 243.265C1365.76 243.265 1365.81 243.265 1365.85 243.265L1365.88 243.274C1365.9 243.324 1365.9 243.306 1365.9 243.288L1365.93 243.301C1365.93 243.301 1365.94 243.342 1365.96 243.378C1365.96 243.396 1365.97 243.4 1365.97 243.409C1365.99 243.477 1366.01 243.54 1366.02 243.608C1366.05 243.702 1366.06 243.729 1366.06 243.734C1366.06 243.729 1366.05 243.72 1366.06 243.815C1366.06 243.959 1366.06 244.103 1366.06 244.252C1366.06 244.383 1366.05 244.513 1366.03 244.649C1366.03 244.662 1366.02 244.68 1366.02 244.703C1365.99 244.847 1365.96 244.991 1365.93 245.135C1365.52 246.677 1364.4 247.929 1363.29 249.015C1360.62 251.625 1357.49 253.698 1354.49 255.893C1354.41 255.947 1354.34 256.001 1354.27 256.055C1355.49 253.409 1357.11 250.944 1358.93 248.677V248.682ZM1351.47 225.027C1351.59 224.63 1351.72 224.234 1351.86 223.846C1351.89 223.769 1352.15 223.143 1352.09 223.251C1352.26 222.882 1352.42 222.512 1352.62 222.156C1352.82 221.768 1353.18 221.201 1353.33 221.029C1353.41 220.939 1353.49 220.858 1353.57 220.772L1353.59 220.75L1353.62 220.727C1353.62 220.727 1353.63 220.75 1353.64 220.759C1353.75 221.079 1353.57 220.507 1353.67 220.845C1353.75 221.061 1353.8 221.277 1353.84 221.498C1353.84 221.512 1353.86 221.669 1353.87 221.719C1353.89 221.85 1353.9 221.985 1353.91 222.115C1354.09 224.779 1353.75 227.465 1353.11 230.047C1352.64 231.935 1352.03 233.783 1351.38 235.617C1351.34 235.753 1351.29 235.883 1351.24 236.018C1350.96 233.959 1350.74 231.895 1350.78 229.817C1350.81 228.19 1351.02 226.591 1351.47 225.027H1351.47ZM1348.93 256.65C1347.99 256.56 1347.05 256.51 1346.12 256.312C1344.47 255.96 1342.91 255.334 1341.45 254.505C1340.68 254.072 1339.94 253.59 1339.22 253.08C1338.69 252.702 1338.46 252.558 1338.02 252.125C1337.85 251.954 1337.69 251.778 1337.54 251.598C1337.31 251.341 1337.23 251.228 1337.12 251.075C1336.78 250.588 1336.46 250.088 1336.19 249.556C1336.16 249.493 1336.07 249.295 1336.06 249.263C1336.05 249.232 1335.98 249.034 1335.96 248.97C1335.92 248.844 1335.88 248.718 1335.85 248.587C1335.84 248.533 1335.83 248.479 1335.81 248.425C1335.81 248.403 1335.8 248.394 1335.8 248.38C1335.79 248.258 1335.79 248.141 1335.78 248.024C1335.78 247.979 1335.79 247.929 1335.79 247.898C1335.8 247.857 1335.81 247.803 1335.83 247.758C1335.86 247.718 1335.95 247.56 1335.92 247.569C1336.15 247.321 1336.45 247.159 1336.82 247.141C1337.4 247.114 1338.03 247.316 1338.62 247.596C1339.99 248.236 1341.31 249.092 1342.55 249.948C1344.01 250.958 1345.33 252.166 1346.54 253.468C1346.84 253.788 1347.13 254.117 1347.42 254.45C1347.54 254.595 1347.66 254.739 1347.78 254.883C1347.86 254.978 1347.94 255.077 1348.02 255.172C1348.05 255.212 1348.1 255.275 1348.12 255.302C1348.27 255.523 1348.41 255.753 1348.54 255.983C1348.68 256.208 1348.82 256.433 1348.97 256.654H1348.94L1348.93 256.65ZM1343.89 282.13C1342.27 281.427 1340.64 280.756 1339.07 279.949C1336.06 278.412 1333.35 276.402 1331.88 273.266C1331.56 272.576 1331.27 271.805 1331.14 271.003C1331.04 270.408 1331.06 269.782 1331.43 269.39C1331.63 269.178 1331.83 269.097 1332.01 269.079C1332.06 269.079 1332.28 269.092 1332.3 269.097C1332.51 269.133 1332.74 269.205 1332.94 269.286C1333.64 269.57 1334.33 270.07 1334.96 270.512C1338.23 272.801 1341.14 275.6 1343.54 278.8C1344.65 280.282 1345.6 281.873 1346.7 283.36C1345.76 282.968 1344.83 282.531 1343.89 282.121V282.13ZM1339.63 309.774C1337.83 309.228 1336.04 308.656 1334.36 307.854C1332.62 307.025 1330.99 306.02 1329.74 304.546C1329.24 303.947 1328.81 303.122 1328.45 302.351C1328.09 301.599 1327.71 300.598 1327.65 299.837C1327.64 299.674 1327.64 299.359 1327.64 299.296C1327.64 299.354 1327.76 298.85 1327.7 298.985C1327.84 298.66 1327.99 298.552 1328.15 298.498C1328.14 298.498 1328.27 298.471 1328.34 298.453C1328.41 298.453 1328.56 298.44 1328.55 298.44C1328.63 298.44 1328.72 298.44 1328.8 298.449C1328.83 298.449 1328.85 298.449 1328.87 298.449C1328.88 298.449 1328.9 298.453 1328.93 298.462C1329.34 298.539 1329.84 298.701 1330.15 298.832C1331.81 299.526 1333.47 300.765 1334.88 301.977C1336.79 303.613 1338.52 305.443 1340.19 307.318C1340.51 307.674 1340.81 308.138 1341.17 308.435C1341.24 308.525 1341.3 308.611 1341.37 308.697C1341.82 309.305 1342.28 309.909 1342.75 310.495C1342.89 310.657 1343.03 310.837 1343.18 311.022C1341.97 310.738 1340.72 310.107 1339.63 309.774H1339.63ZM1336.28 325.042C1334.39 324.213 1332.52 323.397 1330.74 322.361C1329.04 321.374 1327.44 320.211 1326.16 318.71C1325.62 318.075 1325.04 317.277 1324.8 316.525C1324.6 315.871 1324.6 315.348 1324.98 314.979C1325.49 314.483 1326.35 314.434 1327.05 314.618C1327.95 314.853 1328.75 315.366 1329.49 315.912C1331.19 317.169 1332.72 318.751 1334.16 320.297C1334.97 321.166 1335.75 322.063 1336.47 323.005C1337.09 323.807 1337.75 324.664 1338.22 325.565C1338.29 325.705 1338.36 325.853 1338.43 325.998C1337.7 325.696 1336.99 325.358 1336.28 325.047V325.042ZM1328.61 349.968C1326.88 349.292 1325.1 348.792 1323.37 348.094C1320.19 346.805 1317.02 344.952 1315.04 342.046C1314.61 341.406 1314.11 340.689 1314.02 339.914C1314.01 339.833 1314.03 339.576 1314.14 339.405C1314.21 339.306 1314.3 339.17 1314.41 339.094C1314.4 339.125 1314.58 339.085 1314.61 339.08C1314.74 339.067 1314.86 339.044 1314.99 339.035C1316.02 338.945 1317.03 339.049 1318.02 339.36C1319.1 339.698 1320.15 340.306 1321.16 340.806C1324.7 342.564 1327.54 345.646 1330.12 348.567C1330.8 349.337 1331.49 350.099 1332.16 350.874C1332.31 351.045 1332.45 351.221 1332.59 351.401C1331.23 351.086 1329.93 350.473 1328.62 349.964L1328.61 349.968ZM1311.02 327.674C1311.9 326.2 1312.83 324.79 1314.1 323.627C1314.4 323.352 1314.73 323.113 1315.04 322.852C1315.31 322.618 1315.55 322.334 1315.84 322.122C1316.33 321.766 1316.87 321.563 1317.44 321.446C1317.48 321.468 1317.51 321.495 1317.55 321.532C1317.51 321.495 1317.59 321.595 1317.63 321.658C1317.64 321.685 1317.66 321.725 1317.66 321.743C1317.66 321.77 1317.67 321.784 1317.67 321.802C1317.67 321.824 1317.67 321.851 1317.67 321.897C1317.67 322.005 1317.67 322.108 1317.65 322.217C1317.65 322.248 1317.58 322.573 1317.53 322.775C1317.23 323.979 1316.73 325.092 1316.12 326.16C1314.82 328.413 1313.19 330.531 1311.42 332.433C1310.5 333.424 1309.52 334.357 1308.47 335.205C1308.2 335.421 1307.92 335.628 1307.63 335.831C1308.52 333.01 1309.5 330.22 1311.03 327.679L1311.02 327.674ZM1307.57 296.93C1308.65 295.898 1309.86 294.974 1311.2 294.285C1311.33 294.217 1311.46 294.154 1311.59 294.091C1311.68 294.055 1311.67 294.055 1311.66 294.055C1311.67 294.055 1311.7 294.046 1311.79 294.01C1312.09 293.901 1312.38 293.811 1312.7 293.744H1312.72C1312.77 293.735 1312.83 293.726 1312.88 293.726C1312.93 293.726 1313.12 293.735 1313.16 293.735H1313.18C1313.18 293.735 1313.19 293.739 1313.2 293.744C1313.21 293.744 1313.23 293.753 1313.25 293.766C1313.27 293.811 1313.3 293.874 1313.28 293.793C1313.3 293.888 1313.39 294.055 1313.4 294.275C1313.43 294.681 1313.38 294.933 1313.28 295.308C1313.08 296.065 1312.73 296.763 1312.36 297.444C1311.53 298.94 1310.63 300.418 1309.59 301.779C1307.27 304.803 1304.43 307.381 1301.67 309.986C1301.15 310.472 1300.64 310.963 1300.13 311.459C1301.53 306.128 1303.55 300.774 1307.58 296.93H1307.57ZM1297.96 272.54C1300.38 268.98 1304.19 266.411 1307.96 264.482C1309.02 263.937 1310.02 263.31 1311.2 263.049C1311.81 262.914 1312.43 262.945 1313.03 262.806C1313.08 262.792 1313.17 262.783 1313.22 262.774C1312.89 263.793 1312.16 264.595 1311.46 265.438C1310.5 266.605 1309.39 267.601 1308.23 268.574C1305.91 270.548 1303.42 272.31 1301.01 274.167C1299.03 275.699 1297.05 277.24 1294.96 278.628C1295.73 276.488 1296.68 274.424 1297.96 272.531V272.54ZM1294.28 242.138C1295.23 240.548 1296.5 239.132 1297.88 237.902C1299.3 236.636 1300.81 235.451 1302.39 234.392C1303.96 233.337 1305.62 232.287 1307.4 231.633C1308.35 231.286 1309.34 231.025 1310.34 230.872C1311.11 230.755 1311.76 230.89 1312.33 231.363C1312.4 231.778 1312.34 232.152 1312.06 232.512C1311.82 232.814 1311.53 233.067 1311.29 233.369C1311.03 233.675 1310.77 233.968 1310.5 234.256C1309.43 235.374 1308.22 236.338 1306.98 237.244C1304.24 239.232 1301.44 241.178 1298.56 242.968C1297.05 243.9 1295.51 244.788 1293.93 245.586C1293.2 245.951 1292.48 246.266 1291.7 246.505C1292.56 245.045 1293.4 243.59 1294.27 242.143L1294.28 242.138ZM1299.07 182.71C1299.35 180.65 1299.92 178.604 1300.52 176.621C1301.1 174.733 1301.81 172.876 1302.88 171.213C1303.94 169.582 1305.43 168.288 1307.02 167.211C1307.36 166.986 1307.71 166.747 1308.08 166.594C1308.17 166.553 1308.27 166.531 1308.37 166.499C1308.39 166.495 1308.45 166.486 1308.49 166.481C1308.54 166.481 1308.6 166.486 1308.64 166.477C1308.66 166.535 1308.71 166.639 1308.73 166.702C1308.73 166.711 1308.74 166.716 1308.74 166.72C1308.74 166.743 1308.74 166.77 1308.74 166.81C1308.74 166.936 1308.74 167.063 1308.74 167.189C1308.74 167.324 1308.72 167.455 1308.71 167.59V167.603C1308.7 167.653 1308.69 167.757 1308.69 167.779C1308.58 168.351 1308.44 168.91 1308.27 169.465C1307.24 172.84 1305.43 175.873 1303.91 179.032C1302.84 181.254 1301.86 183.476 1300.5 185.54C1299.96 186.364 1299.38 187.158 1298.8 187.96C1298.8 186.207 1298.85 184.449 1299.08 182.714L1299.07 182.71ZM1294.03 214.45C1296.11 211.588 1298.08 208.695 1300.74 206.32C1303.32 204.012 1306.37 202.007 1309.59 200.727C1310.56 200.339 1311.59 200.096 1312.61 199.808C1313.62 199.519 1314.65 199.506 1315.69 199.456C1315.93 199.569 1316.17 199.677 1316.42 199.79C1316.43 199.88 1316.44 199.97 1316.46 200.06C1316.1 200.619 1315.75 201.173 1315.26 201.624C1314.64 202.183 1314.03 202.76 1313.39 203.296C1312.23 204.274 1310.99 205.166 1309.74 206.031C1307.24 207.762 1304.63 209.317 1301.98 210.795C1300.59 211.57 1299.18 212.309 1297.77 213.053C1297.09 213.413 1296.41 213.778 1295.74 214.161C1295.14 214.504 1294.58 214.891 1293.92 215.103C1293.96 214.887 1293.99 214.671 1294.03 214.454V214.45ZM1289.07 215.775C1288.12 215.739 1287.3 215.36 1286.44 215C1284.67 214.265 1283.02 213.305 1281.43 212.237C1280.05 211.313 1278.68 210.353 1277.38 209.317C1276.2 208.366 1274.95 207.257 1274.37 205.802C1274.25 205.509 1274.02 205.148 1274.05 204.828C1274.07 204.589 1274.19 204.359 1274.22 204.116C1274.25 203.976 1274.25 203.841 1274.3 203.706C1274.45 203.368 1274.77 203.075 1275.01 202.796C1275.24 202.521 1275.5 202.246 1275.78 202.025C1276.41 201.552 1277.16 201.223 1277.89 200.952C1278.23 200.826 1278.48 200.93 1278.82 201.006C1279.23 201.101 1279.61 201.043 1280 201.227C1280.37 201.399 1280.71 201.678 1281.04 201.894C1281.4 202.124 1281.73 202.381 1282.05 202.665C1282.67 203.224 1283.23 203.859 1283.73 204.526C1284.97 206.158 1286.12 207.866 1287.2 209.601C1288.29 211.349 1289.32 213.125 1290.17 215.013C1290.29 215.292 1290.4 215.59 1290.5 215.892C1290.02 215.838 1289.55 215.784 1289.06 215.766L1289.07 215.775ZM1286.41 246.686C1285.32 246.875 1284.25 247.019 1283.14 247.069C1280.74 247.177 1278.34 247.213 1275.94 247.33C1273.8 247.434 1271.65 247.506 1269.51 247.443C1267.99 247.398 1266.39 247.289 1264.98 246.672C1263.56 246.055 1262.35 244.761 1262.14 243.184C1261.94 241.742 1262.73 240.232 1264.06 239.619C1265.98 238.731 1268.14 238.772 1270.2 238.889C1271.33 238.952 1272.44 239.11 1273.55 239.362C1274.6 239.601 1275.66 239.75 1276.7 240.065C1278.72 240.678 1280.56 241.719 1282.3 242.905C1283.91 243.995 1285.39 245.252 1286.75 246.641C1286.64 246.659 1286.52 246.681 1286.41 246.699V246.686ZM1287.99 281.472C1286.88 281.621 1285.75 281.738 1284.63 281.851C1282.54 282.063 1280.47 282.306 1278.38 282.554C1276.26 282.806 1274.12 283.018 1271.98 282.932C1270.24 282.86 1268.28 282.644 1266.77 281.698C1266.18 281.328 1265.63 280.769 1265.41 280.093C1265.32 279.823 1265.34 279.697 1265.45 279.525C1265.59 279.304 1265.86 279.084 1266.15 278.989C1267.15 278.669 1268.19 278.552 1269.23 278.525C1270.33 278.493 1271.42 278.385 1272.52 278.376C1276.78 278.34 1281.17 278.903 1285.22 280.282C1286.18 280.611 1287.12 281.049 1288.05 281.468C1288.03 281.468 1288.02 281.472 1288 281.477L1287.99 281.472ZM1292.37 313.695C1290.3 314.163 1288.21 314.524 1286.1 314.695C1283.98 314.866 1281.77 314.925 1279.66 314.641C1278.85 314.533 1278 314.325 1277.25 313.992C1276.87 313.825 1276.5 313.613 1276.16 313.384C1276.09 313.334 1275.75 313.028 1275.52 312.816C1275.79 312.676 1276.08 312.595 1276.4 312.505C1277.36 312.234 1278.34 312.045 1279.33 311.923C1281.39 311.671 1283.48 311.617 1285.56 311.576C1287.48 311.54 1289.41 311.64 1291.27 312.131C1292.19 312.374 1293.08 312.699 1293.92 313.145C1294.02 313.194 1294.11 313.253 1294.2 313.311C1293.59 313.429 1292.99 313.564 1292.38 313.699L1292.37 313.695ZM1302.02 338.44C1301.18 338.72 1300.35 339.04 1299.51 339.342C1297.76 339.982 1295.97 340.545 1294.15 340.982C1292.4 341.406 1290.63 341.658 1288.84 341.82C1287.16 341.969 1285.34 342.122 1283.71 341.654C1283.4 341.568 1283.37 341.563 1283.14 341.437C1283.05 341.388 1282.83 341.243 1282.83 341.243C1282.88 341.289 1282.62 340.973 1282.72 341.122C1282.65 341.014 1282.66 341.041 1282.66 340.973C1282.66 341.027 1282.66 340.996 1282.66 340.951C1282.66 340.942 1282.66 340.937 1282.66 340.924C1282.66 340.919 1282.66 340.905 1282.66 340.896V340.86V340.883C1282.66 340.883 1282.66 340.86 1282.67 340.847L1282.68 340.833C1282.71 340.779 1282.74 340.721 1282.78 340.671C1282.78 340.667 1282.79 340.662 1282.8 340.649C1282.88 340.567 1282.96 340.486 1283.05 340.41L1283.06 340.396C1283.12 340.356 1283.18 340.315 1283.23 340.279C1283.49 340.112 1283.75 339.973 1284.02 339.837C1284.42 339.639 1284.84 339.481 1285.38 339.288C1286.78 338.774 1288.15 338.238 1289.61 337.918C1291.25 337.557 1292.92 337.417 1294.6 337.426C1297.09 337.444 1299.64 337.755 1302.08 338.413C1302.06 338.418 1302.05 338.422 1302.03 338.431L1302.02 338.44ZM1355.12 342.604C1355.53 342.595 1355.94 342.595 1356.35 342.623C1356.48 342.632 1356.6 342.641 1356.71 342.654C1356.73 342.654 1356.74 342.654 1356.75 342.659C1356.87 342.677 1356.98 342.699 1357.1 342.722C1357.8 342.866 1358.22 343.001 1358.75 343.312C1358.81 343.344 1359 343.474 1359.02 343.483C1359.12 343.56 1359.2 343.646 1359.29 343.727C1359.31 343.736 1359.36 343.794 1359.39 343.826C1359.41 343.862 1359.45 343.907 1359.45 343.92C1359.49 343.984 1359.53 344.051 1359.57 344.114C1359.57 344.128 1359.58 344.128 1359.58 344.137C1359.58 344.155 1359.59 344.168 1359.59 344.191C1359.65 344.385 1359.68 344.551 1359.64 344.813C1359.6 345.074 1359.46 345.484 1359.31 345.764C1358.6 347.093 1357.2 347.949 1355.83 348.549C1354.16 349.274 1352.18 349.621 1350.32 349.838C1348.07 350.103 1345.83 350.369 1343.6 350.766C1342.53 350.955 1341.45 351.163 1340.37 351.275C1339.73 351.343 1339.08 351.392 1338.43 351.455C1343.02 346.953 1348.54 342.758 1355.14 342.609L1355.12 342.604ZM1353.92 319.702C1355.64 318.224 1357.46 316.777 1359.36 315.533C1360.29 314.92 1361.28 314.38 1362.3 313.933C1363.32 313.487 1364.4 313.059 1365.47 312.78C1366.49 312.514 1367.79 312.315 1368.83 312.568C1368.95 312.595 1369.09 312.676 1369.21 312.757C1369.27 312.793 1369.32 312.834 1369.38 312.87C1369.39 312.888 1369.45 312.933 1369.46 312.942C1369.58 313.055 1369.69 313.172 1369.8 313.298C1369.77 313.289 1369.94 313.546 1369.97 313.604C1370 313.663 1370.02 313.762 1369.99 313.672C1370 313.704 1370.01 313.731 1370.02 313.767C1370.03 313.821 1370.05 313.897 1370.07 313.951C1370.07 314.096 1370.07 314.24 1370.07 314.384C1370.07 314.393 1370.07 314.402 1370.07 314.411C1370.05 314.488 1370.04 314.564 1370.02 314.645C1369.99 314.781 1369.95 314.911 1369.91 315.042C1369.89 315.11 1369.86 315.177 1369.84 315.24L1369.83 315.272C1369.83 315.272 1369.82 315.285 1369.81 315.299C1369.66 315.628 1369.49 315.948 1369.29 316.254C1368.88 316.894 1368.59 317.237 1368.03 317.841C1367.52 318.386 1366.97 318.895 1366.41 319.377C1366.29 319.481 1366.17 319.58 1366.05 319.679C1365.98 319.738 1365.9 319.796 1365.83 319.86C1365.82 319.869 1365.77 319.909 1365.73 319.936C1365.68 319.972 1365.5 320.116 1365.44 320.157C1365.31 320.252 1365.17 320.346 1365.04 320.441C1364.33 320.932 1363.57 321.356 1362.81 321.743C1358.76 323.803 1354.26 324.7 1349.93 325.939C1348.84 326.25 1347.76 326.583 1346.68 326.881C1348.96 324.353 1351.34 321.924 1353.93 319.711L1353.92 319.702ZM1370.34 297.529C1368.65 299.084 1366.88 300.571 1364.95 301.829C1362.86 303.19 1360.61 304.136 1358.3 305.042C1355.7 306.056 1353.13 307.083 1350.63 308.318C1350.37 308.449 1350.1 308.57 1349.83 308.692C1353.67 303.163 1357.99 297.773 1363.9 294.514C1365.65 293.545 1367.52 292.82 1369.47 292.36C1370.33 292.157 1370.87 292.031 1371.68 292.054C1371.71 292.054 1371.73 292.054 1371.76 292.054H1371.76C1371.85 292.072 1371.94 292.094 1372.03 292.117C1372.06 292.126 1372.13 292.153 1372.14 292.153C1372.17 292.171 1372.2 292.189 1372.23 292.207C1372.26 292.225 1372.27 292.238 1372.29 292.248C1372.3 292.261 1372.31 292.27 1372.32 292.288C1372.35 292.315 1372.45 292.459 1372.35 292.311C1372.49 292.518 1372.48 292.491 1372.54 292.739C1373.08 294.695 1371.7 296.29 1370.35 297.529H1370.34Z" fill="#FBFBFB"/>
<path d="M1059.78 441.215C1151.53 441.215 1225.9 365.518 1225.9 272.141C1225.9 178.764 1151.53 103.067 1059.78 103.067C968.033 103.067 893.657 178.764 893.657 272.141C893.657 365.518 968.033 441.215 1059.78 441.215Z" fill="#EBC5A9"/>
<path d="M1164.11 422.039C1166.62 420.824 1169.88 399.094 1174.94 362.243C1180 325.392 1183.23 287.319 1173.4 251.438C1171.03 242.778 1166.41 232.988 1157.82 231.276C1138.51 222.776 1128.7 221.68 1116.1 220.373C1099.87 230.34 1060.82 233.671 1041.77 233.106C1022.72 232.541 1003.58 228.518 985.843 225.272C974.282 227.861 962.982 230.289 952.517 235.83C942.044 241.37 932.802 250.266 929.504 261.633C926.814 270.901 928.282 280.809 930.128 290.279C936.689 323.934 944.506 352.208 955.536 384.682C963.294 407.543 960.199 402.281 970.006 430.91C970.006 430.91 1121.19 442.741 1164.12 422.039H1164.11Z" fill="#581F14"/>
<path d="M1085.77 215.465C1065.98 224.1 1026.85 225.289 1004.4 216.114C994.705 223.476 992.673 224.235 985.708 225.297C1007.6 236.589 1026.52 243.014 1051.16 243.554C1079.88 244.186 1108.86 231.386 1116.09 220.389C1106.04 219.276 1094.16 218.045 1085.77 215.465Z" fill="#FBE3D1"/>
<path d="M959.626 274.915C961.11 303.544 973.109 330.52 986.315 355.986C999.52 381.453 1011.67 400.94 1018.8 428.313C996.974 397.964 985.902 368.188 972.502 333.311C965.588 315.324 958.563 296.604 959.634 274.915H959.626Z" fill="black"/>
<path d="M1103.12 427.09C1119.44 371.139 1133.76 314.607 1146.04 257.636C1142.98 297.953 1137.19 338.058 1128.71 377.59C1124.8 395.796 1120.22 414.146 1103.12 427.09H1103.12Z" fill="black"/>
<path d="M1170.13 276.559C1167.25 278.912 1164.4 281.248 1161.63 283.668C1158.86 286.096 1156.15 288.576 1153.54 291.164C1150.91 293.728 1148.39 296.401 1145.92 299.133C1143.46 301.865 1141.07 304.682 1138.68 307.524C1140.5 304.286 1142.61 301.216 1144.92 298.29C1147.21 295.356 1149.72 292.598 1152.36 289.967C1155.03 287.361 1157.83 284.899 1160.8 282.656C1163.76 280.404 1166.87 278.33 1170.13 276.559Z" fill="black"/>
<path d="M1171.59 297.54C1169.56 300.221 1167.12 302.599 1164.43 304.648C1161.75 306.714 1158.8 308.434 1155.7 309.826C1152.6 311.192 1149.34 312.238 1146.01 312.853C1142.69 313.477 1139.28 313.713 1135.94 313.418C1139.27 313.005 1142.53 312.415 1145.72 311.571C1148.9 310.711 1152.02 309.64 1155.01 308.283C1158.02 306.959 1160.9 305.365 1163.67 303.569C1166.44 301.764 1169.05 299.732 1171.58 297.531L1171.59 297.54Z" fill="black"/>
<path d="M1138.58 257.055C1137.93 262.738 1137.31 268.422 1136.73 274.097C1136.17 279.772 1135.66 285.456 1135.26 291.139C1134.84 296.823 1134.54 302.523 1134.27 308.224C1134.04 313.924 1133.84 319.633 1133.67 325.35C1133.18 319.65 1132.94 313.916 1132.96 308.19C1132.96 302.464 1133.19 296.73 1133.58 291.021C1134.01 285.304 1134.6 279.603 1135.43 273.937C1136.23 268.27 1137.28 262.629 1138.58 257.055Z" fill="black"/>
<path d="M946.395 267.654L951.573 281.526C953.335 286.13 955.123 290.718 957.003 295.263C958.858 299.825 960.815 304.345 962.788 308.856L968.851 322.365C966.229 318.166 963.808 313.848 961.599 309.413C959.364 304.994 957.341 300.474 955.443 295.895C953.58 291.308 951.851 286.661 950.333 281.948C948.798 277.242 947.483 272.469 946.395 267.637V267.654Z" fill="black"/>
<path d="M944.835 326.168L956.093 337.451C959.853 341.195 963.614 344.931 967.443 348.599C971.246 352.293 975.1 355.935 978.97 359.57L990.624 370.448C986.315 367.32 982.141 364.014 978.093 360.557C974.037 357.108 970.108 353.507 966.271 349.822C962.459 346.111 958.723 342.308 955.148 338.362C951.556 334.441 948.115 330.368 944.843 326.168H944.835Z" fill="black"/>
<path d="M992.521 308.898C993.997 327.711 998.171 346.221 1005.05 363.694C1008.47 372.438 1012.57 380.913 1017.27 389.05C1021.99 397.179 1027.28 404.988 1033.14 412.383C1026.78 405.41 1021.08 397.803 1016.14 389.725C1011.18 381.655 1006.97 373.13 1003.49 364.309C1000.04 355.48 997.328 346.364 995.481 337.072C993.609 327.787 992.606 318.334 992.53 308.898H992.521Z" fill="black"/>
<path d="M987.757 245.999C990.396 255.95 993.205 265.85 996.519 275.564C999.849 285.27 1003.71 294.791 1008.46 303.864C1013.18 312.938 1018.82 321.539 1025.44 329.347C1032.07 337.131 1039.69 344.13 1048.33 349.754C1039.36 344.686 1031.32 337.949 1024.46 330.216C1017.56 322.492 1011.77 313.806 1006.98 304.648C1002.2 295.465 998.374 285.827 995.279 275.986C992.159 266.145 989.764 256.11 987.766 246.016L987.757 245.999Z" fill="black"/>
<path d="M985.778 482.821C986.883 467.718 980.024 475.909 990 464.5C999.428 453.723 971.485 460.135 985.778 461.223C1000.06 462.311 980.946 436.589 994 442.5C1007.91 448.791 994.244 458.769 1009.35 461.223C1010.91 461.476 1012.5 461.476 1014.04 461.139C1021.39 459.503 1021.73 452.107 1020.9 446.137C1020.22 441.339 1019.25 436.018 1019.42 428.201C1086.38 429.93 1122.28 427.155 1159.78 417.5C1190.57 427.029 1220.31 439.931 1247.83 456.029C1252.06 458.508 1255.72 461.906 1258.31 466.072C1264.38 475.854 1263.99 483.974 1258.47 485.686" fill="#3A160D"/>
<path d="M1019.78 435.919C1029.14 435.556 1038.51 435.303 1047.88 435.16L1061.93 434.966C1066.61 434.915 1071.3 434.932 1075.98 434.797C1085.34 434.629 1094.68 434.308 1103.97 433.338C1113.24 432.352 1122.48 430.716 1131.41 427.874C1122.7 431.34 1113.44 433.431 1104.12 434.646C1094.79 435.885 1085.38 436.281 1076.01 436.484C1066.64 436.636 1057.27 436.534 1047.89 436.467C1038.51 436.391 1029.14 436.206 1019.78 435.919Z" fill="black"/>
<path d="M1062.31 435.565C1064.15 451.148 1066.16 466.639 1068.34 482.18C1063.88 467.111 1061.84 451.275 1062.31 435.565Z" fill="black"/>
<path d="M1044.46 436.762C1045.81 450.305 1047.87 464.893 1050.33 478.276C1045.55 465.071 1043.54 450.777 1044.46 436.762Z" fill="black"/>
<path d="M1062.39 440.043C1065.04 439.874 1067.67 439.79 1070.3 439.688C1072.92 439.579 1075.54 439.486 1078.15 439.334C1080.77 439.216 1083.38 439.039 1086.01 438.887C1088.63 438.727 1091.25 438.541 1093.91 438.449C1091.37 439.233 1088.76 439.79 1086.15 440.194C1083.53 440.616 1080.89 440.869 1078.24 441.012C1075.59 441.13 1072.93 441.147 1070.29 440.995C1067.64 440.852 1065 440.565 1062.39 440.043Z" fill="black"/>
<path d="M1063.99 455.188C1066.85 455.483 1069.69 455.879 1072.52 456.258L1081 457.397L1089.49 458.51C1092.32 458.881 1095.16 459.244 1098 459.707C1095.13 459.943 1092.25 459.952 1089.37 459.825C1086.49 459.716 1083.63 459.438 1080.78 459.075C1077.93 458.679 1075.09 458.198 1072.29 457.557C1069.48 456.925 1066.69 456.174 1063.98 455.196L1063.99 455.188Z" fill="black"/>
<path d="M1067.11 475.864C1081.33 479.119 1096.86 482.088 1111.27 484.331C1096.22 484.331 1081.09 481.421 1067.11 475.864Z" fill="black"/>
<path d="M1133.9 476.918C1139.14 472.247 1144.88 468.115 1150.99 464.59C1157.08 461.048 1163.53 458.105 1170.17 455.744C1176.83 453.417 1183.7 451.663 1190.66 450.6C1197.63 449.521 1204.69 449.141 1211.7 449.495C1204.69 449.799 1197.74 450.609 1190.89 451.899C1184.04 453.206 1177.3 455.01 1170.74 457.338C1157.59 461.95 1145.2 468.612 1133.9 476.927V476.918Z" fill="black"/>
<path d="M1150.32 477.467C1156.23 472.98 1162.62 469.084 1169.32 465.829C1176.01 462.558 1183.02 459.927 1190.2 457.903C1197.38 455.904 1204.74 454.513 1212.17 453.838C1219.59 453.138 1227.06 453.155 1234.44 453.923C1227.02 453.813 1219.63 454.235 1212.31 455.145C1204.99 456.081 1197.75 457.523 1190.65 459.522C1176.45 463.477 1162.89 469.582 1150.32 477.467Z" fill="black"/>
<path d="M1155.39 481.464C1184.95 465.231 1219.71 458.122 1253.29 461.461C1219.62 460.508 1186.02 467.356 1155.39 481.464Z" fill="black"/>
<path d="M1179.83 441.451C1158.54 449.099 1139.86 462.785 1126.18 480.738C1137.93 461.335 1157.79 446.814 1179.83 441.451Z" fill="black"/>
<path d="M1156.18 433.853C1141.46 448.045 1129.96 465.104 1122.32 484.044C1127.71 464.295 1139.91 446.249 1156.18 433.853Z" fill="black"/>
<path d="M1011.98 561C995.869 517.378 981.365 470.602 968.522 425.909C982.031 422.806 994.764 418.944 1007.11 411.81C1036.84 455.145 1063.41 500.639 1086.51 547.828" fill="#581F14"/>
<path d="M1079.92 210.979C1066.48 211.729 1047.92 198.473 1036.33 192.005C1043.49 201.366 1044.04 212.151 1051.25 221.081C1055.16 222.329 1075.28 224.648 1079.57 221.275C1079.57 221.275 1079.87 217.16 1080.44 210.641C1080.28 210.675 1080.12 210.7 1079.93 210.979H1079.92Z" fill="black"/>
<path d="M1118.89 501.272C1118.89 501.272 1117.05 426.786 1117.14 409.39C1117.16 404.971 1117.76 402.627 1118.66 398.301C1123.15 376.874 1129.02 355.64 1131 333.834C1133.86 302.355 1128.55 270.775 1123.25 239.616C1116.94 202.47 1110.63 165.325 1101.02 131.299C1076.31 191.575 1074.71 258.429 1073.45 323.554C1072.57 368.846 1071.76 414.719 1082.32 458.78C1084.67 468.595 1087.68 478.487 1093.59 486.683" fill="#AA3527"/>
<path d="M1087.94 393.005C1088.54 427.655 1092.47 462.144 1099.65 496.044C1090.19 462.667 1086.22 427.655 1087.94 393.005Z" fill="black"/>
<path d="M1101.16 401.893C1097.31 428.431 1097.23 455.373 1100.86 481.944C1094.9 455.736 1095.01 428.051 1101.16 401.893Z" fill="black"/>
<path d="M1109.82 405.443C1109.66 409.078 1109.18 412.704 1108.49 416.279C1107.81 419.863 1106.88 423.397 1105.79 426.871C1104.67 430.345 1103.38 433.76 1101.87 437.074C1100.37 440.397 1098.66 443.626 1096.69 446.687C1098.04 443.306 1099.39 439.958 1100.65 436.577C1101.91 433.195 1103.11 429.797 1104.19 426.365C1105.29 422.941 1106.28 419.475 1107.2 415.993C1108.12 412.502 1108.96 408.985 1109.81 405.452L1109.82 405.443Z" fill="black"/>
<path d="M1114.69 406.759C1114.72 409.213 1114.47 411.65 1114.08 414.07C1113.69 416.49 1113.11 418.868 1112.41 421.221C1111.68 423.557 1110.84 425.867 1109.81 428.093C1108.8 430.32 1107.63 432.487 1106.25 434.502C1107.01 432.175 1107.82 429.89 1108.59 427.604C1109.35 425.319 1110.11 423.034 1110.79 420.732C1111.51 418.438 1112.15 416.119 1112.79 413.792C1113.42 411.464 1114.02 409.12 1114.68 406.759H1114.69Z" fill="black"/>
<path d="M1087.93 204.595C1091.49 212.1 1094.62 219.825 1097.31 227.701C1100.01 235.577 1102.27 243.596 1104.16 251.708C1106.02 259.829 1107.49 268.034 1108.5 276.298C1109.54 284.553 1110.1 292.868 1110.17 301.182C1109.44 292.902 1108.44 284.671 1107.2 276.483C1105.92 268.295 1104.39 260.158 1102.52 252.096C1100.68 244.026 1098.49 236.032 1096.06 228.114C1093.59 220.204 1090.89 212.362 1087.93 204.604V204.595Z" fill="black"/>
<path d="M1088.7 214.967L1088.99 228.325C1089.11 232.769 1089.22 237.204 1089.41 241.64C1089.57 246.075 1089.82 250.511 1090.05 254.946L1090.82 268.278C1089.9 263.91 1089.24 259.492 1088.75 255.056C1088.24 250.621 1087.92 246.168 1087.73 241.707C1087.57 237.246 1087.53 232.777 1087.68 228.316C1087.83 223.855 1088.13 219.403 1088.7 214.967Z" fill="black"/>
<path d="M1081.9 211.645C1081.62 215.591 1081.32 219.513 1081.08 223.434C1080.86 227.355 1080.68 231.276 1080.6 235.197C1080.5 239.118 1080.5 243.04 1080.54 246.969C1080.59 250.899 1080.72 254.828 1080.81 258.783C1080.02 254.904 1079.52 250.975 1079.23 247.028C1078.91 243.082 1078.84 239.118 1078.91 235.155C1079.02 231.192 1079.28 227.237 1079.77 223.307C1080.25 219.378 1080.93 215.473 1081.9 211.636V211.645Z" fill="black"/>
<path d="M1120.92 245.814C1122.26 251.59 1123.29 257.434 1124.04 263.32C1124.8 269.206 1125.27 275.126 1125.51 281.062C1125.73 286.99 1125.73 292.935 1125.44 298.864C1125.17 304.792 1124.58 310.703 1123.7 316.564C1123.93 310.644 1124.07 304.733 1124.12 298.83C1124.15 292.927 1124.08 287.024 1123.83 281.13C1123.62 275.235 1123.23 269.349 1122.74 263.463C1122.22 257.586 1121.62 251.7 1120.92 245.814H1120.92Z" fill="black"/>
<path d="M1105.87 165.653C1108.31 175.596 1110.47 185.597 1112.54 195.615C1114.63 205.633 1116.61 215.667 1118.58 225.694L1124.37 255.823L1127.27 270.884C1128.19 275.91 1129.24 280.919 1130.28 285.928C1127.51 276.079 1125.25 266.086 1123.08 256.085C1120.92 246.084 1118.9 236.057 1116.93 226.023C1114.99 215.979 1113.08 205.928 1111.25 195.868C1109.4 185.807 1107.67 175.73 1105.86 165.653H1105.87Z" fill="black"/>
<path d="M1154.03 525.988C1160.97 483.184 1165.36 439.975 1167.19 396.657C1152.27 402.441 1135.57 403.597 1116.26 404.044C1103.51 440.81 1092.25 478.09 1082.72 515.084" fill="#581F14"/>
<path d="M1093.76 89.1779C1101.09 92.7534 1106.55 107.308 1107.16 113.54C1108.68 128.912 1109.22 142.877 1108.01 157.642C1106.76 173.04 1100.39 187.958 1093.38 198.802C1090.77 202.841 1084.49 209.174 1079.92 210.675C1070.31 213.829 1043.41 205.371 1030.88 175.941C1024.38 160.678 1022.9 143.695 1023.68 127.133C1024.21 115.817 1024.63 103.336 1031.67 94.4568C1049.63 71.8152 1075.86 80.4502 1093.76 89.1779Z" fill="#CF8D5F"/>
<path opacity="0.74" d="M1062.6 180.124C1065.48 178.277 1068.37 176.43 1071.51 175.14C1074.65 173.85 1078.06 173.15 1081.38 173.698C1085.4 174.364 1088.96 176.784 1091.63 179.508C1088.88 184.669 1083.53 188.152 1077.95 188.421C1072.37 188.691 1066.75 185.74 1062.6 180.115V180.124Z" fill="#AA3527"/>
<path d="M1062.12 179.888C1064.65 180.217 1067.13 180.52 1069.63 180.714C1072.12 180.9 1074.6 181.009 1077.09 180.967C1079.58 180.967 1082.06 180.807 1084.55 180.571C1087.03 180.335 1089.51 179.98 1092.03 179.609C1089.71 180.655 1087.25 181.38 1084.74 181.869C1082.24 182.375 1079.67 182.611 1077.11 182.645C1074.55 182.645 1071.98 182.46 1069.47 182.004C1066.96 181.557 1064.48 180.874 1062.13 179.879L1062.12 179.888Z" fill="black"/>
<path d="M1080.04 128.019C1080.02 131.198 1080.13 134.343 1080.56 137.455C1080.95 140.566 1081.63 143.61 1082.5 146.604C1083.42 149.581 1084.54 152.482 1085.94 155.281C1086.63 156.698 1087.38 158.174 1087.74 159.835C1088.11 161.462 1088.05 163.292 1087.23 164.827L1087.2 164.878H1087.19C1085.93 166.463 1083.89 167.281 1082.03 167.011C1083.9 166.893 1085.61 165.873 1086.51 164.405L1086.48 164.464C1087.04 163.115 1086.93 161.572 1086.52 160.164C1086.08 158.747 1085.34 157.398 1084.58 155.998C1083.04 153.181 1081.81 150.171 1080.94 147.076C1080.06 143.973 1079.52 140.786 1079.37 137.573C1079.2 134.368 1079.42 131.147 1080.05 128.035L1080.04 128.019Z" fill="black"/>
<path opacity="0.09" d="M1050.45 169.971C1057.06 169.971 1062.42 166.056 1062.42 161.226C1062.42 156.397 1057.06 152.482 1050.45 152.482C1043.84 152.482 1038.49 156.397 1038.49 161.226C1038.49 166.056 1043.84 169.971 1050.45 169.971Z" fill="#AA3527"/>
<mask id="mask0_27_83" style="mask-type:luminance" maskUnits="userSpaceOnUse" x="1023" y="80" width="86" height="132">
<path d="M1093.76 89.1779C1101.09 92.7534 1106.55 107.308 1107.16 113.54C1108.68 128.912 1109.22 142.877 1108.01 157.642C1106.76 173.04 1100.39 187.958 1093.38 198.802C1090.77 202.841 1084.49 209.174 1079.92 210.675C1070.31 213.829 1043.41 205.371 1030.88 175.941C1024.38 160.678 1022.9 143.695 1023.68 127.133C1024.21 115.817 1024.63 103.336 1031.67 94.4568C1049.63 71.8152 1075.86 80.4502 1093.76 89.1779Z" fill="white"/>
</mask>
<g mask="url(#mask0_27_83)">
<path opacity="0.09" d="M1105.56 166.134C1112.17 166.134 1117.53 162.219 1117.53 157.389C1117.53 152.56 1112.17 148.645 1105.56 148.645C1098.95 148.645 1093.59 152.56 1093.59 157.389C1093.59 162.219 1098.95 166.134 1105.56 166.134Z" fill="#AA3527"/>
</g>
<path d="M1068.16 64.8751C1088.64 75.5255 1106.57 103.007 1108.2 126.518C1113.94 108.809 1102.05 83.5956 1091.53 69.0493C1086.14 61.6033 1086.74 60.3384 1081.71 58.264C1078.63 56.9906 1067.91 64.7402 1068.17 64.8751H1068.16Z" fill="#AA3527"/>
<path d="M1024.08 124.367C1029.14 116.643 1034.76 109.197 1041.7 103.1C1048.64 97.0034 1056.98 92.2896 1066.08 90.6368C1075.17 88.9924 1085.04 90.6368 1092.48 96.1095C1101 102.367 1104.61 112.688 1107.63 122.807C1107.76 102.417 1097.68 82.2885 1080.47 71.2839C1074.31 67.3374 1068.54 63.8463 1061.22 63.6777C1051.75 63.4584 1041.24 68.4927 1034.47 75.1292C1027.72 81.7572 1023.27 90.4681 1020.56 99.5332C1017.84 108.598 1016.76 118.06 1024.08 124.359L1024.08 124.367Z" fill="#FBE3D1"/>
<path d="M1080.93 58.0364C1055.11 70.5588 1035.29 100.722 1032.8 129.275C1030.31 157.836 1039.79 186.406 1054.39 211.097C1068.98 235.788 1088.48 257.147 1107.87 278.288C1127.26 299.429 1146.8 320.746 1161.51 345.37C1174.56 367.218 1183.56 391.319 1197.13 412.856C1210.7 434.384 1230.28 453.965 1254.23 461.495C1218.94 461.251 1183.77 450.912 1153.97 432.023C1143.03 425.083 1132.81 417.038 1121.65 410.436C1111.98 404.718 1101.63 400.114 1092.33 393.807C1076.32 382.971 1064.03 367.547 1052.92 351.736C1032.36 322.458 1014.93 290.878 1002.47 257.358C999.411 249.111 996.62 240.603 996.308 231.807C995.996 223.012 998.458 213.787 1004.25 207.488C991.425 180.933 985.311 151.183 986.652 120.472C985.75 113.295 987.656 105.799 992.454 100.115C991.712 88.1746 1000.12 77.1616 1010.52 71.2334C1020.92 65.2969 1033.08 63.4333 1044.94 61.6708C1056.57 59.9421 1072.04 56.2908 1080.94 58.0279L1080.93 58.0364Z" fill="#AA3527"/>
<path d="M1050.82 207.69C1050.67 209.242 1050.44 210.785 1050.41 212.345C1050.39 213.121 1050.3 213.896 1050.32 214.672V217C1050.45 220.103 1050.7 223.206 1051.3 226.25C1051.86 229.294 1052.58 232.313 1053.58 235.248C1054.03 236.732 1054.64 238.157 1055.18 239.607C1055.81 241.016 1056.38 242.458 1057.1 243.824C1059.83 249.364 1063.28 254.533 1067.35 259.18C1071.41 263.843 1076.05 267.983 1080.84 271.921C1085.63 275.876 1090.61 279.62 1095.56 283.432C1100.5 287.252 1105.4 291.148 1110.1 295.263C1114.82 299.361 1119.43 303.569 1123.93 307.903C1128.39 312.271 1132.76 316.724 1136.96 321.353C1132.49 316.994 1128 312.668 1123.36 308.51C1118.77 304.302 1114.06 300.221 1109.25 296.258C1104.44 292.311 1099.59 288.407 1094.61 284.654C1089.65 280.894 1084.61 277.192 1079.77 273.228C1074.96 269.214 1070.29 264.981 1066.19 260.191C1062.09 255.41 1058.53 250.131 1055.93 244.389C1055.23 242.98 1054.69 241.496 1054.07 240.046C1053.56 238.562 1052.97 237.094 1052.56 235.577C1051.62 232.575 1050.96 229.497 1050.49 226.393C1050 223.29 1049.88 220.145 1049.88 217.016C1049.91 213.879 1050.28 210.768 1050.82 207.698V207.69Z" fill="black"/>
<path d="M1200.33 422.233C1197.58 419.534 1194.82 416.836 1192.1 414.104L1184.02 405.806L1176.12 397.34L1168.35 388.747C1158.09 377.203 1148.26 365.279 1138.68 353.161C1129.21 340.959 1119.99 328.563 1111.2 315.864L1104.69 306.284L1098.31 296.62L1092.11 286.839C1090.08 283.558 1088.07 280.261 1086.08 276.956L1092.49 286.594L1099 296.157L1105.58 305.677L1112.27 315.105C1121.26 327.636 1130.46 340.015 1140.02 352.116C1149.47 364.301 1159.29 376.191 1169.33 387.895L1176.91 396.623L1184.62 405.241L1192.43 413.792L1200.34 422.233H1200.33Z" fill="black"/>
<path d="M1021.75 235.838L1024.91 247.18L1028.46 258.395L1032.37 269.484L1036.68 280.421C1042.69 294.892 1049.64 308.974 1057.64 322.441C1065.53 335.976 1074.47 348.877 1084.21 361.147L1091.67 370.229L1099.47 379.024L1107.55 387.575L1115.93 395.847L1107.24 387.895L1098.87 379.589L1090.87 370.929L1083.2 361.965C1073.2 349.813 1064.22 336.827 1056.18 323.293C1048.25 309.691 1041.25 295.541 1035.48 280.91L1031.36 269.855L1027.67 258.657L1024.47 247.306L1021.74 235.847L1021.75 235.838Z" fill="black"/>
<path d="M1002.57 110.605C1001.79 116.744 1002.31 122.951 1003.57 128.955C1004.78 134.984 1006.64 140.861 1008.62 146.697C1010.57 152.549 1012.65 158.351 1014.82 164.119C1017.06 169.861 1019.35 175.579 1021.87 181.203C1026.71 192.537 1032.25 203.558 1038.14 214.394C1039.61 217.101 1041.14 219.782 1042.66 222.464C1044.23 225.12 1045.76 227.793 1047.39 230.416C1050.52 235.737 1053.93 240.881 1057.28 246.075C1055.47 243.571 1053.61 241.1 1051.88 238.537L1049.25 234.717L1046.68 230.854C1043.31 225.677 1040.11 220.381 1037 215.026C1030.86 204.292 1025.3 193.211 1020.32 181.878C1015.43 170.511 1011.03 158.924 1007.39 147.093C1005.55 141.19 1003.81 135.22 1002.76 129.106C1001.76 122.993 1001.41 116.694 1002.57 110.605Z" fill="black"/>
<path d="M1001.93 91.0331C1000.26 99.373 999.47 107.865 999.436 116.348C999.402 124.839 1000.21 133.314 1001.6 141.671C1002.96 150.045 1005 158.292 1007.55 166.379C1010.09 174.465 1013.15 182.384 1016.62 190.116C1023.56 205.599 1031.94 220.39 1040.99 234.75C1045.51 241.935 1050.2 249.018 1055.01 256.009C1056.21 257.754 1057.38 259.534 1058.61 261.262L1062.31 266.44L1066.01 271.618C1067.25 273.346 1068.54 275.024 1069.81 276.728C1089.93 304.1 1112.24 329.786 1135.13 354.89C1146.57 367.454 1158.22 379.834 1169.9 392.179L1204.85 429.316L1169.31 392.744C1157.51 380.517 1145.75 368.23 1134.18 355.758C1111.08 330.815 1088.73 305.078 1068.46 277.723C1067.19 276.011 1065.9 274.325 1064.67 272.587L1060.98 267.385L1057.28 262.182C1056.05 260.444 1054.89 258.665 1053.69 256.903C1048.89 249.87 1044.22 242.77 1039.7 235.551C1030.7 221.115 1022.24 206.273 1015.45 190.631C1012.03 182.831 1009.02 174.836 1006.54 166.682C1004.07 158.528 1002.08 150.222 1000.81 141.789C999.554 133.365 998.871 124.848 999.048 116.331C999.217 107.822 1000.15 99.3308 1001.96 91.0162L1001.93 91.0331Z" fill="black"/>
<path d="M996.67 92.4244C996.459 95.2241 996.265 97.9815 996.189 100.747C996.122 103.505 996.139 106.262 996.308 109.003C996.442 111.752 996.729 114.484 997.092 117.225C997.463 119.957 997.952 122.689 998.466 125.447C997.286 122.9 996.426 120.21 995.802 117.461C995.161 114.72 994.798 111.912 994.629 109.096C994.495 106.279 994.554 103.446 994.891 100.655C995.22 97.855 995.776 95.0891 996.679 92.4244H996.67Z" fill="black"/>
<path d="M989.764 114.029C990.253 117.849 990.843 121.618 991.636 125.345C992.428 129.064 993.381 132.749 994.562 136.358C995.709 139.976 997.083 143.526 998.601 147.009C1000.14 150.491 1001.85 153.898 1003.68 157.288C1001.27 154.286 999.2 151.006 997.412 147.574C995.624 144.15 994.149 140.549 992.951 136.873C991.779 133.179 990.877 129.401 990.337 125.573C989.781 121.745 989.553 117.874 989.764 114.029Z" fill="black"/>
<path d="M987.807 136.78C993.736 151.343 999.967 165.788 1006.63 180.023C1013.25 194.282 1020.23 208.365 1027.63 222.228C1042.42 249.946 1058.63 276.939 1077.09 302.355C1081.67 308.721 1086.4 315.02 1091.07 321.336C1095.75 327.652 1100.45 333.952 1105.19 340.225C1114.67 352.756 1124.44 365.068 1135.05 376.629C1145.66 388.182 1157.27 398.832 1169.93 408.133C1182.54 417.494 1196.04 425.614 1209.85 433.128C1195.86 425.951 1182.26 417.957 1169.44 408.8C1156.65 399.6 1144.87 389.008 1134.1 377.506C1123.29 366.029 1113.52 353.642 1103.97 341.145C1099.21 334.879 1094.48 328.597 1089.78 322.289C1085.09 315.982 1080.35 309.725 1075.73 303.333C1066.52 290.557 1057.87 277.386 1049.68 263.944C1041.5 250.494 1033.74 236.791 1026.49 222.818C1019.22 208.862 1012.35 194.695 1005.89 180.351C999.47 165.991 993.39 151.47 987.807 136.772V136.78Z" fill="black"/>
<path d="M1004 207.698C1005.87 217.691 1008.1 227.591 1010.7 237.398C1013.32 247.197 1016.29 256.894 1019.7 266.432C1023.07 275.986 1026.88 285.388 1031.02 294.639C1035.19 303.881 1039.7 312.98 1044.54 321.918C1039.13 313.309 1034.21 304.378 1029.83 295.195C1025.42 286.021 1021.53 276.585 1018.11 266.997C1014.72 257.392 1011.79 247.619 1009.43 237.719C1007.04 227.819 1005.23 217.792 1004 207.698Z" fill="black"/>
<path d="M1000.96 218.661C1000.96 221.418 1000.96 224.142 1001.06 226.849C1001.16 229.564 1001.32 232.263 1001.63 234.953C1001.9 237.643 1002.29 240.324 1002.76 242.997C1003.23 245.671 1003.8 248.335 1004.36 251.034C1003.13 248.563 1002.19 245.957 1001.47 243.284C1000.73 240.619 1000.25 237.887 999.95 235.13C999.681 232.372 999.579 229.598 999.748 226.841C999.9 224.083 1000.27 221.334 1000.96 218.661Z" fill="black"/>
<path d="M1124.37 403.411C1126.52 405.013 1128.64 406.616 1130.76 408.235C1132.92 409.786 1135.13 411.287 1137.31 412.814C1139.51 414.306 1141.77 415.723 1144 417.182C1146.24 418.615 1148.56 419.922 1150.84 421.297C1160.04 426.635 1169.56 431.441 1179.35 435.582C1189.1 439.849 1199.13 443.449 1209.29 446.628C1214.37 448.239 1219.49 449.673 1224.65 451.005C1227.23 451.713 1229.82 452.295 1232.41 452.944L1240.22 454.698C1237.59 454.277 1234.94 453.872 1232.32 453.383C1229.71 452.852 1227.07 452.396 1224.46 451.806C1219.25 450.634 1214.05 449.335 1208.91 447.868C1198.62 444.933 1188.54 441.29 1178.68 437.125C1168.87 432.833 1159.28 428.009 1150.16 422.401C1147.91 420.951 1145.62 419.576 1143.41 418.067C1141.21 416.532 1138.98 415.057 1136.83 413.48C1134.71 411.844 1132.58 410.233 1130.48 408.58C1128.43 406.869 1126.39 405.14 1124.37 403.403L1124.37 403.411Z" fill="black"/>
<path d="M985.5 483C1058.5 460 1139.5 431 1210 429.5C1271.78 428.185 1236.27 439.645 1230.73 441.285C1237.39 440.199 1268.6 472.935 1283.52 489.608C1245.08 521.83 1200.55 551.337 1185.5 552C1166.69 552.828 1016.54 563.459 1010.5 561C1005.67 559.032 912.5 506 985.5 483Z" fill="#FBFBFB"/>
<path d="M1069.71 65.5498C1070.37 64.1331 1071.17 62.8092 1072.18 61.5949C1073.17 60.3806 1074.39 59.2759 1075.84 58.5085C1077.33 57.7327 1079.03 57.4123 1080.68 57.6147C1082.3 57.8002 1083.95 58.635 1084.75 60.0095C1083.43 59.1578 1082 58.8796 1080.61 58.9302C1079.21 58.9892 1077.84 59.3771 1076.63 60.0011C1075.38 60.6504 1074.23 61.5274 1073.12 62.4972C1072.01 63.4753 1070.93 64.5547 1069.71 65.5413V65.5498Z" fill="black"/>
<path d="M1077.28 243.453C1082.17 248.495 1086.98 253.606 1091.72 258.792C1096.47 263.961 1101.15 269.198 1105.81 274.443C1110.45 279.713 1115.07 284.992 1119.63 290.338C1124.2 295.668 1128.68 301.073 1133.08 306.546C1128.19 301.503 1123.37 296.393 1118.64 291.207C1113.89 286.038 1109.21 280.801 1104.55 275.556C1099.91 270.285 1095.29 265.007 1090.74 259.66C1086.17 254.331 1081.68 248.926 1077.28 243.453Z" fill="black"/>
<path d="M1073.28 377.422C1087.28 390.324 1102.97 400.949 1117.99 408.311C1100.08 404.263 1080.64 391.538 1073.28 377.422Z" fill="black"/>
</svg>
