<svg width="330" height="383" viewBox="0 0 330 383" fill="none" xmlns="http://www.w3.org/2000/svg">
<path d="M7.54465 371.657C20.4334 369.729 33.6366 372.943 46.1324 376.299C58.5497 379.656 71.517 383.298 84.563 382.227C109.712 380.227 131.324 361.302 156.237 364.801C166.454 366.229 175.256 371.371 184.294 375.442C193.332 379.584 204.02 382.87 213.844 380.37C226.025 377.299 233.177 366.444 245.201 363.016C263.041 357.873 283.003 371.086 300.922 366.087C309.409 363.73 315.539 357.731 320.491 351.66C323.634 347.875 326.542 343.947 330 340.376V14.2835C330 6.42758 322.927 0 314.282 0H15.718C7.07311 0 0 6.42758 0 14.2835V371.371C0 372.157 0.0785925 372.871 0.235773 373.585C2.59348 372.728 5.10836 372.086 7.54465 371.657Z" fill="#CC997E"/>
</svg>
