<svg width="560" height="182" viewBox="0 0 560 182" fill="none" xmlns="http://www.w3.org/2000/svg">
<path d="M557.505 166.065C555.475 158.801 550.477 152.083 550.477 144.506C550.399 134.664 558.754 125.76 558.208 115.996C557.817 108.419 552.117 101.936 550.945 94.4369C548.759 80.6893 561.878 67.4884 559.77 53.6627C558.755 46.9451 554.225 40.9305 553.835 34.1348C553.444 27.9639 556.412 22.1056 557.739 16.091C558.989 10.0764 557.661 2.57768 551.57 0.0781119V0H11.7139C5.23222 0 0 5.23348 0 11.7167V170.283C0 176.767 5.23222 182 11.7139 182H558.364C558.598 182 558.755 182 558.989 182C558.911 176.61 558.911 171.221 557.505 166.065Z" fill="#AA3527" fill-opacity="0.6"/>
</svg>
