<svg width="330" height="383" viewBox="0 0 330 383" fill="none" xmlns="http://www.w3.org/2000/svg">
<path d="M9.50714 351.786C14.4571 357.929 20.6643 363.857 29.0714 366.214C46.9857 371.214 66.9428 358 84.7786 363.143C96.8 366.571 103.95 377.429 116.129 380.5C125.95 383 136.636 379.714 145.671 375.571C154.707 371.429 163.429 366.286 173.721 364.929C198.629 361.429 220.236 380.357 245.379 382.357C258.421 383.429 271.307 379.786 283.8 376.429C296.293 373.071 309.414 369.857 322.379 371.786C324.893 372.143 327.329 372.786 329.764 373.643C329.921 372.929 330 372.143 330 371.429V14.2857C330 6.42857 322.929 0 314.286 0H15.7143C7.07143 0 0 6.42857 0 14.2857V340.429C3.45714 344.071 6.36428 348.071 9.50714 351.786Z" fill="#CC997E"/>
</svg>
