<svg width="330" height="362" viewBox="0 0 330 362" fill="none" xmlns="http://www.w3.org/2000/svg">
<path d="M25.699 350.726C33.8723 354.37 42.3601 358.157 51.398 358.157C69.0807 358.157 84.9559 343.796 102.324 346.654C115.213 348.797 125.98 360.229 138.947 358.157C147.749 356.799 154.194 349.369 162.76 347.226C172.741 344.725 182.879 349.869 192.389 353.584C215.887 362.872 243.236 364.23 267.049 355.585C278.052 351.584 288.19 345.511 299.586 342.724C309.488 340.295 320.176 340.581 330 343.296V14.2891C330 6.4301 322.927 0 314.282 0H15.718C7.07311 0 0 6.4301 0 14.2891V343.796C9.03787 343.439 17.6042 347.154 25.699 350.726Z" fill="#CC997E"/>
</svg>
